<svg width="870" height="102" viewBox="0 0 870 102" fill="none" xmlns="http://www.w3.org/2000/svg">
<g opacity="0.05" clip-path="url(#clip0)">
<path d="M867.25 98.4102C866.192 98.4102 865.345 99.2549 865.345 100.311C865.345 101.367 866.192 102.211 867.25 102.211C868.308 102.211 869.154 101.367 869.154 100.311C868.943 99.2549 868.096 98.4102 867.25 98.4102Z" fill="white"/>
<path d="M849.26 100.31C849.26 101.127 849.923 101.789 850.741 101.789C851.559 101.789 852.223 101.127 852.223 100.31C852.223 99.4939 851.559 98.832 850.741 98.832C849.923 98.832 849.26 99.4939 849.26 100.31Z" fill="white"/>
<path d="M832.965 100.31C832.965 101.127 833.628 101.789 834.446 101.789C835.264 101.789 835.928 101.127 835.928 100.31C835.928 99.4939 835.264 98.832 834.446 98.832C833.628 98.832 832.965 99.4939 832.965 100.31Z" fill="white"/>
<path d="M816.67 100.31C816.67 101.127 817.333 101.789 818.151 101.789C818.97 101.789 819.633 101.127 819.633 100.31C819.633 99.4939 818.97 98.832 818.151 98.832C817.333 98.832 816.67 99.4939 816.67 100.31Z" fill="white"/>
<path d="M800.162 100.31C800.162 101.127 800.825 101.789 801.644 101.789C802.462 101.789 803.125 101.127 803.125 100.31C803.125 99.4939 802.462 98.832 801.644 98.832C800.825 98.832 800.162 99.4939 800.162 100.31Z" fill="white"/>
<path d="M783.867 100.31C783.867 101.127 784.531 101.789 785.349 101.789C786.167 101.789 786.83 101.127 786.83 100.31C786.83 99.4939 786.167 98.832 785.349 98.832C784.531 98.832 783.867 99.4939 783.867 100.31Z" fill="white"/>
<path d="M767.572 100.31C767.572 101.127 768.236 101.789 769.054 101.789C769.872 101.789 770.535 101.127 770.535 100.31C770.535 99.4939 769.872 98.832 769.054 98.832C768.236 98.832 767.572 99.4939 767.572 100.31Z" fill="white"/>
<path d="M751.277 100.31C751.277 101.127 751.941 101.789 752.759 101.789C753.577 101.789 754.24 101.127 754.24 100.31C754.24 99.4939 753.577 98.832 752.759 98.832C751.941 98.832 751.277 99.4939 751.277 100.31Z" fill="white"/>
<path d="M734.77 100.31C734.77 101.127 735.433 101.789 736.251 101.789C737.069 101.789 737.732 101.127 737.732 100.31C737.732 99.4939 737.069 98.832 736.251 98.832C735.433 98.832 734.77 99.4939 734.77 100.31Z" fill="white"/>
<path d="M718.475 100.31C718.475 101.127 719.138 101.789 719.956 101.789C720.774 101.789 721.438 101.127 721.438 100.31C721.438 99.4939 720.774 98.832 719.956 98.832C719.138 98.832 718.475 99.4939 718.475 100.31Z" fill="white"/>
<path d="M703.661 98.6211C702.815 98.6211 702.18 99.2546 702.18 100.099C702.18 100.944 702.815 101.578 703.661 101.578C704.508 101.578 705.143 100.944 705.143 100.099C705.143 99.4658 704.508 98.6211 703.661 98.6211Z" fill="white"/>
<path d="M687.153 98.6211C686.307 98.6211 685.672 99.2546 685.672 100.099C685.672 100.944 686.307 101.578 687.153 101.578C688 101.578 688.635 100.944 688.635 100.099C688.635 99.4658 688 98.6211 687.153 98.6211Z" fill="white"/>
<path d="M670.858 98.6211C670.012 98.6211 669.377 99.2546 669.377 100.099C669.377 100.944 670.012 101.578 670.858 101.578C671.705 101.578 672.34 100.944 672.34 100.099C672.34 99.4658 671.705 98.6211 670.858 98.6211Z" fill="white"/>
<path d="M654.564 98.6211C653.717 98.6211 653.082 99.2546 653.082 100.099C653.082 100.944 653.717 101.578 654.564 101.578C655.41 101.578 656.045 100.944 656.045 100.099C656.045 99.4658 655.41 98.6211 654.564 98.6211Z" fill="white"/>
<path d="M638.056 98.6211C637.209 98.6211 636.574 99.2546 636.574 100.099C636.574 100.944 637.209 101.578 638.056 101.578C638.902 101.578 639.537 100.944 639.537 100.099C639.537 99.4658 638.902 98.6211 638.056 98.6211Z" fill="white"/>
<path d="M621.761 98.6211C620.914 98.6211 620.279 99.2546 620.279 100.099C620.279 100.944 620.914 101.578 621.761 101.578C622.607 101.578 623.242 100.944 623.242 100.099C623.242 99.4658 622.607 98.6211 621.761 98.6211Z" fill="white"/>
<path d="M605.466 98.6211C604.619 98.6211 603.984 99.2546 603.984 100.099C603.984 100.944 604.619 101.578 605.466 101.578C606.312 101.578 606.947 100.944 606.947 100.099C606.947 99.4658 606.312 98.6211 605.466 98.6211Z" fill="white"/>
<path d="M588.958 98.6211C588.112 98.6211 587.477 99.2546 587.477 100.099C587.477 100.944 588.112 101.578 588.958 101.578C589.805 101.578 590.44 100.944 590.44 100.099C590.651 99.4658 589.805 98.6211 588.958 98.6211Z" fill="white"/>
<path d="M572.663 98.6211C571.817 98.6211 571.182 99.2546 571.182 100.099C571.182 100.944 571.817 101.578 572.663 101.578C573.51 101.578 574.145 100.944 574.145 100.099C574.145 99.4658 573.51 98.6211 572.663 98.6211Z" fill="white"/>
<path d="M556.368 98.6211C555.522 98.6211 554.887 99.2546 554.887 100.099C554.887 100.944 555.522 101.578 556.368 101.578C557.215 101.578 557.85 100.944 557.85 100.099C557.85 99.4658 557.215 98.6211 556.368 98.6211Z" fill="white"/>
<path d="M540.073 98.6211C539.227 98.6211 538.592 99.2546 538.592 100.099C538.592 100.944 539.227 101.578 540.073 101.578C540.92 101.578 541.555 100.944 541.555 100.099C541.555 99.4658 540.708 98.6211 540.073 98.6211Z" fill="white"/>
<path d="M523.565 98.6211C522.719 98.6211 522.084 99.2546 522.084 100.099C522.084 100.944 522.719 101.578 523.565 101.578C524.412 101.578 525.047 100.944 525.047 100.099C525.047 99.4658 524.412 98.6211 523.565 98.6211Z" fill="white"/>
<path d="M507.271 98.6211C506.424 98.6211 505.789 99.2546 505.789 100.099C505.789 100.944 506.424 101.578 507.271 101.578C508.117 101.578 508.752 100.944 508.752 100.099C508.752 99.4658 508.117 98.6211 507.271 98.6211Z" fill="white"/>
<path d="M490.976 98.6211C490.129 98.6211 489.494 99.2546 489.494 100.099C489.494 100.944 490.129 101.578 490.976 101.578C491.822 101.578 492.457 100.944 492.457 100.099C492.457 99.4658 491.822 98.6211 490.976 98.6211Z" fill="white"/>
<path d="M474.468 98.6211C473.621 98.6211 472.986 99.2546 472.986 100.099C472.986 100.944 473.621 101.578 474.468 101.578C475.314 101.578 475.949 100.944 475.949 100.099C475.949 99.4658 475.314 98.6211 474.468 98.6211Z" fill="white"/>
<path d="M458.173 98.6211C457.326 98.6211 456.692 99.2546 456.692 100.099C456.692 100.944 457.326 101.578 458.173 101.578C459.019 101.578 459.654 100.944 459.654 100.099C459.654 99.4658 459.019 98.6211 458.173 98.6211Z" fill="white"/>
<path d="M441.878 98.6211C441.031 98.6211 440.397 99.2546 440.397 100.099C440.397 100.944 441.031 101.578 441.878 101.578C442.724 101.578 443.359 100.944 443.359 100.099C443.359 99.4658 442.724 98.6211 441.878 98.6211Z" fill="white"/>
<path d="M425.37 98.6211C424.524 98.6211 423.889 99.2546 423.889 100.099C423.889 100.944 424.524 101.578 425.37 101.578C426.217 101.578 426.852 100.944 426.852 100.099C426.852 99.4658 426.217 98.6211 425.37 98.6211Z" fill="white"/>
<path d="M409.075 98.6211C408.229 98.6211 407.594 99.2546 407.594 100.099C407.594 100.944 408.229 101.578 409.075 101.578C409.922 101.578 410.557 100.944 410.557 100.099C410.557 99.4658 409.922 98.6211 409.075 98.6211Z" fill="white"/>
<path d="M392.78 98.6211C391.934 98.6211 391.299 99.2546 391.299 100.099C391.299 100.944 391.934 101.578 392.78 101.578C393.627 101.578 394.262 100.944 394.262 100.099C394.262 99.4658 393.627 98.6211 392.78 98.6211Z" fill="white"/>
<path d="M376.273 98.6211C375.426 98.6211 374.791 99.2546 374.791 100.099C374.791 100.944 375.426 101.578 376.273 101.578C377.119 101.578 377.754 100.944 377.754 100.099C377.966 99.4658 377.119 98.6211 376.273 98.6211Z" fill="white"/>
<path d="M359.978 98.6211C359.131 98.6211 358.496 99.2546 358.496 100.099C358.496 100.944 359.131 101.578 359.978 101.578C360.824 101.578 361.459 100.944 361.459 100.099C361.459 99.4658 360.824 98.6211 359.978 98.6211Z" fill="white"/>
<path d="M343.683 98.6211C342.836 98.6211 342.201 99.2546 342.201 100.099C342.201 100.944 342.836 101.578 343.683 101.578C344.529 101.578 345.164 100.944 345.164 100.099C345.164 99.4658 344.529 98.6211 343.683 98.6211Z" fill="white"/>
<path d="M327.388 98.6211C326.541 98.6211 325.906 99.2546 325.906 100.099C325.906 100.944 326.541 101.578 327.388 101.578C328.234 101.578 328.869 100.944 328.869 100.099C328.869 99.4658 328.023 98.6211 327.388 98.6211Z" fill="white"/>
<path d="M310.88 98.6211C310.033 98.6211 309.399 99.2546 309.399 100.099C309.399 100.944 310.033 101.578 310.88 101.578C311.726 101.578 312.361 100.944 312.361 100.099C312.361 99.4658 311.726 98.6211 310.88 98.6211Z" fill="white"/>
<path d="M294.585 98.6211C293.739 98.6211 293.104 99.2546 293.104 100.099C293.104 100.944 293.739 101.578 294.585 101.578C295.432 101.578 296.066 100.944 296.066 100.099C296.066 99.4658 295.432 98.6211 294.585 98.6211Z" fill="white"/>
<path d="M276.809 100.31C276.809 101.127 277.472 101.789 278.29 101.789C279.108 101.789 279.771 101.127 279.771 100.31C279.771 99.4939 279.108 98.832 278.29 98.832C277.472 98.832 276.809 99.4939 276.809 100.31Z" fill="white"/>
<path d="M261.783 98.832C260.936 98.832 260.513 99.4656 260.513 100.099C260.513 100.944 261.148 101.366 261.783 101.366C262.629 101.366 263.053 100.733 263.053 100.099C263.264 99.4656 262.629 98.832 261.783 98.832Z" fill="white"/>
<path d="M245.488 98.832C244.853 98.832 244.218 99.4656 244.218 100.099C244.218 100.733 244.853 101.366 245.488 101.366C246.123 101.366 246.758 100.733 246.758 100.099C246.758 99.4656 246.123 98.832 245.488 98.832Z" fill="white"/>
<path d="M229.193 99.043C228.558 99.043 227.923 99.6765 227.923 100.31C227.923 100.944 228.347 101.577 229.193 101.577C229.828 101.577 230.463 101.155 230.463 100.31C230.251 99.4653 229.828 99.043 229.193 99.043Z" fill="white"/>
<path d="M211.628 100.31C211.628 100.893 212.102 101.366 212.686 101.366C213.27 101.366 213.744 100.893 213.744 100.31C213.744 99.7267 213.27 99.2539 212.686 99.2539C212.102 99.2539 211.628 99.7267 211.628 100.31Z" fill="white"/>
<path d="M195.333 100.31C195.333 100.893 195.807 101.366 196.391 101.366C196.975 101.366 197.449 100.893 197.449 100.31C197.449 99.7267 196.975 99.2539 196.391 99.2539C195.807 99.2539 195.333 99.7267 195.333 100.31Z" fill="white"/>
<path d="M180.095 99.2539C179.672 99.2539 179.037 99.6763 179.037 100.31C179.037 100.732 179.46 101.366 180.095 101.366C180.518 101.366 180.941 100.943 180.941 100.31C180.941 99.6763 180.518 99.2539 180.095 99.2539Z" fill="white"/>
<path d="M163.589 99.2539C163.165 99.2539 162.742 99.6763 162.742 100.099C162.742 100.521 163.165 100.943 163.589 100.943C164.012 100.943 164.435 100.521 164.435 100.099C164.647 99.6763 164.224 99.2539 163.589 99.2539Z" fill="white"/>
<path d="M147.292 99.4648C146.869 99.4648 146.446 99.8872 146.446 100.31C146.446 100.732 146.869 101.154 147.292 101.154C147.715 101.154 148.139 100.732 148.139 100.31C148.139 99.8872 147.715 99.4648 147.292 99.4648Z" fill="white"/>
<path d="M130.998 99.4648C130.575 99.4648 130.363 99.676 130.363 100.098C130.363 100.521 130.575 100.732 130.998 100.732C131.421 100.732 131.633 100.521 131.633 100.098C131.633 99.8872 131.421 99.4648 130.998 99.4648Z" fill="white"/>
<path d="M114.701 99.6758C114.278 99.6758 114.066 99.887 114.066 100.309C114.066 100.732 114.278 100.943 114.701 100.943C115.124 100.943 115.336 100.732 115.336 100.309C115.124 99.887 114.913 99.6758 114.701 99.6758Z" fill="white"/>
<path d="M98.1948 99.6758C97.9832 99.6758 97.7715 99.887 97.7715 100.098C97.7715 100.309 97.9832 100.521 98.1948 100.521C98.4065 100.521 98.6181 100.309 98.6181 100.098C98.8298 99.887 98.6181 99.6758 98.1948 99.6758Z" fill="white"/>
<path d="M81.4758 100.309C81.4758 100.542 81.6652 100.731 81.899 100.731C82.1327 100.731 82.3223 100.542 82.3223 100.309C82.3223 100.076 82.1327 99.8867 81.899 99.8867C81.6652 99.8867 81.4758 100.076 81.4758 100.309Z" fill="white"/>
<path d="M65.6048 99.8867C65.3932 99.8867 65.1815 100.098 65.1815 100.309C65.1815 100.52 65.3932 100.731 65.6048 100.731C65.8164 100.52 65.8164 100.52 65.8164 100.309C65.8164 100.098 65.8164 99.8867 65.6048 99.8867Z" fill="white"/>
<path d="M49.0972 99.8867C48.8856 99.8867 48.8856 100.098 48.8856 100.098C48.8856 100.309 49.0972 100.309 49.0972 100.309L49.3088 100.098C49.5205 100.098 49.3088 99.8867 49.0972 99.8867Z" fill="white"/>
<path d="M32.8024 100.098C32.8024 100.098 32.5908 100.098 32.8024 100.098C32.5908 100.309 32.8024 100.52 32.8024 100.52C32.8024 100.309 33.0141 100.309 32.8024 100.098C33.0141 100.098 32.8024 100.098 32.8024 100.098Z" fill="white"/>
<path d="M16.5059 100.098L16.2943 100.309L16.5059 100.309L16.5059 100.098Z" fill="white"/>
<path d="M864.498 83.8391C864.498 85.3553 865.729 86.5844 867.249 86.5844C868.768 86.5844 870 85.3553 870 83.8391C870 82.3229 868.768 81.0938 867.249 81.0938C865.729 81.0938 864.498 82.3229 864.498 83.8391Z" fill="white"/>
<path d="M850.742 81.7266C849.473 81.7266 848.415 82.7825 848.415 84.0495C848.415 85.3166 849.473 86.3725 850.742 86.3725C852.012 86.3725 853.07 85.3166 853.07 84.0495C853.07 82.7825 852.012 81.7266 850.742 81.7266Z" fill="white"/>
<path d="M834.446 81.7266C833.176 81.7266 832.118 82.7825 832.118 84.0495C832.118 85.3166 833.176 86.3725 834.446 86.3725C835.715 86.3725 836.773 85.3166 836.773 84.0495C836.773 82.7825 835.715 81.7266 834.446 81.7266Z" fill="white"/>
<path d="M818.151 81.7266C816.881 81.7266 815.823 82.7825 815.823 84.0495C815.823 85.3166 816.881 86.3725 818.151 86.3725C819.42 86.3725 820.479 85.3166 820.479 84.0495C820.479 82.7825 819.42 81.7266 818.151 81.7266Z" fill="white"/>
<path d="M801.645 81.7266C800.375 81.7266 799.317 82.7825 799.317 84.0495C799.317 85.3166 800.375 86.3725 801.645 86.3725C802.915 86.3725 803.973 85.3166 803.973 84.0495C803.973 82.7825 802.915 81.7266 801.645 81.7266Z" fill="white"/>
<path d="M785.348 81.7266C784.078 81.7266 783.02 82.7825 783.02 84.0495C783.02 85.3166 784.078 86.1613 785.348 86.1613C786.618 86.1613 787.676 85.1054 787.676 83.8384C787.676 82.5713 786.618 81.7266 785.348 81.7266Z" fill="white"/>
<path d="M769.054 81.7266C767.784 81.7266 766.726 82.7825 766.726 84.0495C766.726 85.3166 767.784 86.3725 769.054 86.3725C770.323 86.3725 771.17 85.1054 771.17 83.8384C771.17 82.5713 770.323 81.7266 769.054 81.7266Z" fill="white"/>
<path d="M752.759 81.7266C751.489 81.7266 750.431 82.7825 750.431 84.0495C750.431 85.3166 751.489 86.1613 752.759 86.1613C754.028 86.1613 754.875 85.1054 754.875 83.8384C754.875 82.5713 753.817 81.7266 752.759 81.7266Z" fill="white"/>
<path d="M736.252 81.7266C734.982 81.7266 733.924 82.7825 733.924 84.0495C733.924 85.3166 734.982 86.3725 736.252 86.3725C737.522 86.3725 738.58 85.3166 738.58 84.0495C738.58 82.7825 737.522 81.7266 736.252 81.7266Z" fill="white"/>
<path d="M719.956 81.7266C718.686 81.7266 717.628 82.7825 717.628 84.0495C717.628 85.3166 718.686 86.3725 719.956 86.3725C721.226 86.3725 722.072 85.1054 722.072 83.8384C722.072 82.5713 721.226 81.7266 719.956 81.7266Z" fill="white"/>
<path d="M701.332 83.8386C701.332 85.1216 702.375 86.1616 703.66 86.1616C704.946 86.1616 705.988 85.1216 705.988 83.8386C705.988 82.5557 704.946 81.5156 703.66 81.5156C702.375 81.5156 701.332 82.5557 701.332 83.8386Z" fill="white"/>
<path d="M684.827 83.8386C684.827 85.1216 685.869 86.1616 687.155 86.1616C688.44 86.1616 689.482 85.1216 689.482 83.8386C689.482 82.5557 688.44 81.5156 687.155 81.5156C685.869 81.5156 684.827 82.5557 684.827 83.8386Z" fill="white"/>
<path d="M670.86 81.7266C669.59 81.7266 668.532 82.7825 668.532 84.0495C668.532 85.3166 669.59 86.3725 670.86 86.3725C672.129 86.3725 673.188 85.3166 673.188 84.0495C673.188 82.5713 672.129 81.7266 670.86 81.7266Z" fill="white"/>
<path d="M652.235 83.8386C652.235 85.1216 653.277 86.1616 654.563 86.1616C655.848 86.1616 656.891 85.1216 656.891 83.8386C656.891 82.5557 655.848 81.5156 654.563 81.5156C653.277 81.5156 652.235 82.5557 652.235 83.8386Z" fill="white"/>
<path d="M635.729 83.8386C635.729 85.1216 636.771 86.1616 638.057 86.1616C639.343 86.1616 640.385 85.1216 640.385 83.8386C640.385 82.5557 639.343 81.5156 638.057 81.5156C636.771 81.5156 635.729 82.5557 635.729 83.8386Z" fill="white"/>
<path d="M619.434 83.8386C619.434 85.1216 620.476 86.1616 621.762 86.1616C623.048 86.1616 624.09 85.1216 624.09 83.8386C624.09 82.5557 623.048 81.5156 621.762 81.5156C620.476 81.5156 619.434 82.5557 619.434 83.8386Z" fill="white"/>
<path d="M605.466 81.7266C604.196 81.7266 603.138 82.7825 603.138 84.0495C603.138 85.3166 604.196 86.3725 605.466 86.3725C606.736 86.3725 607.582 85.1054 607.582 83.8384C607.582 82.5713 606.736 81.7266 605.466 81.7266Z" fill="white"/>
<path d="M588.959 81.7266C587.689 81.7266 586.631 82.7825 586.631 84.0495C586.631 85.3166 587.689 86.3725 588.959 86.3725C590.229 86.3725 591.287 85.3166 591.287 84.0495C591.287 82.5713 590.229 81.7266 588.959 81.7266Z" fill="white"/>
<path d="M570.336 83.8386C570.336 85.1216 571.379 86.1616 572.664 86.1616C573.95 86.1616 574.992 85.1216 574.992 83.8386C574.992 82.5557 573.95 81.5156 572.664 81.5156C571.379 81.5156 570.336 82.5557 570.336 83.8386Z" fill="white"/>
<path d="M554.041 83.8386C554.041 85.1216 555.084 86.1616 556.369 86.1616C557.655 86.1616 558.697 85.1216 558.697 83.8386C558.697 82.5557 557.655 81.5156 556.369 81.5156C555.084 81.5156 554.041 82.5557 554.041 83.8386Z" fill="white"/>
<path d="M537.745 83.8386C537.745 85.1216 538.787 86.1616 540.072 86.1616C541.358 86.1616 542.4 85.1216 542.4 83.8386C542.4 82.5557 541.358 81.5156 540.072 81.5156C538.787 81.5156 537.745 82.5557 537.745 83.8386Z" fill="white"/>
<path d="M523.567 81.7266C522.297 81.7266 521.239 82.7825 521.239 84.0495C521.239 85.3166 522.297 86.3725 523.567 86.3725C524.836 86.3725 525.895 85.3166 525.895 84.0495C525.895 82.5713 524.836 81.7266 523.567 81.7266Z" fill="white"/>
<path d="M504.944 83.8386C504.944 85.1216 505.986 86.1616 507.272 86.1616C508.557 86.1616 509.6 85.1216 509.6 83.8386C509.6 82.5557 508.557 81.5156 507.272 81.5156C505.986 81.5156 504.944 82.5557 504.944 83.8386Z" fill="white"/>
<path d="M488.647 83.8386C488.647 85.1216 489.689 86.1616 490.975 86.1616C492.26 86.1616 493.303 85.1216 493.303 83.8386C493.303 82.5557 492.26 81.5156 490.975 81.5156C489.689 81.5156 488.647 82.5557 488.647 83.8386Z" fill="white"/>
<path d="M472.141 83.8386C472.141 85.1216 473.183 86.1616 474.469 86.1616C475.755 86.1616 476.797 85.1216 476.797 83.8386C476.797 82.5557 475.755 81.5156 474.469 81.5156C473.183 81.5156 472.141 82.5557 472.141 83.8386Z" fill="white"/>
<path d="M458.172 81.7266C456.902 81.7266 455.844 82.7825 455.844 84.0495C455.844 85.3166 456.902 86.3725 458.172 86.3725C459.442 86.3725 460.5 85.3166 460.5 84.0495C460.5 82.5713 459.442 81.7266 458.172 81.7266Z" fill="white"/>
<path d="M439.549 83.8386C439.549 85.1216 440.592 86.1616 441.877 86.1616C443.163 86.1616 444.205 85.1216 444.205 83.8386C444.205 82.5557 443.163 81.5156 441.877 81.5156C440.592 81.5156 439.549 82.5557 439.549 83.8386Z" fill="white"/>
<path d="M425.371 81.5156C424.102 81.5156 423.043 82.5715 423.043 83.8386C423.043 85.1057 424.102 86.1616 425.371 86.1616C426.641 86.1616 427.699 85.1057 427.699 83.8386C427.699 82.5715 426.641 81.5156 425.371 81.5156Z" fill="white"/>
<path d="M409.074 81.5156C407.805 81.5156 406.747 82.5715 406.747 83.8386C406.747 85.1057 407.805 86.1616 409.074 86.1616C410.344 86.1616 411.402 85.1057 411.402 83.8386C411.402 82.5715 410.344 81.5156 409.074 81.5156Z" fill="white"/>
<path d="M392.78 81.5156C391.51 81.5156 390.452 82.5715 390.452 83.8386C390.452 85.1057 391.51 86.1616 392.78 86.1616C394.049 86.1616 395.107 85.1057 395.107 83.8386C395.107 82.5715 394.049 81.5156 392.78 81.5156Z" fill="white"/>
<path d="M376.274 81.5156C375.004 81.5156 373.946 82.5715 373.946 83.8386C373.946 85.1057 375.004 86.1616 376.274 86.1616C377.543 86.1616 378.602 85.1057 378.602 83.8386C378.602 82.5715 377.755 81.5156 376.274 81.5156Z" fill="white"/>
<path d="M359.979 81.5156C358.709 81.5156 357.651 82.5715 357.651 83.8386C357.651 85.1057 358.709 86.1616 359.979 86.1616C361.248 86.1616 362.307 85.1057 362.307 83.8386C362.307 82.5715 361.248 81.5156 359.979 81.5156Z" fill="white"/>
<path d="M343.682 81.5156C342.412 81.5156 341.354 82.5715 341.354 83.8386C341.354 85.1057 342.412 86.1616 343.682 86.1616C344.952 86.1616 346.01 85.1057 346.01 83.8386C346.01 82.5715 344.952 81.5156 343.682 81.5156Z" fill="white"/>
<path d="M327.387 81.5156C326.117 81.5156 325.059 82.5715 325.059 83.8386C325.059 85.1057 326.117 86.1616 327.387 86.1616C328.657 86.1616 329.715 85.1057 329.715 83.8386C329.503 82.5715 328.657 81.5156 327.387 81.5156Z" fill="white"/>
<path d="M310.881 81.5156C309.611 81.5156 308.553 82.5715 308.553 83.8386C308.553 85.1057 309.611 86.1616 310.881 86.1616C312.151 86.1616 313.209 85.1057 313.209 83.8386C313.209 82.5715 312.151 81.5156 310.881 81.5156Z" fill="white"/>
<path d="M294.586 81.5156C293.316 81.5156 292.258 82.5715 292.258 83.8386C292.258 85.1057 293.316 86.1616 294.586 86.1616C295.856 86.1616 296.914 85.1057 296.914 83.8386C296.914 82.5715 295.856 81.5156 294.586 81.5156Z" fill="white"/>
<path d="M278.29 81.7266C277.02 81.7266 275.962 82.7825 275.962 84.0495C275.962 85.3166 277.02 86.3725 278.29 86.3725C279.56 86.3725 280.406 85.3166 280.406 84.0495C280.406 82.7825 279.348 81.7266 278.29 81.7266Z" fill="white"/>
<path d="M259.666 83.8384C259.666 85.0047 260.613 85.9502 261.782 85.9502C262.951 85.9502 263.898 85.0047 263.898 83.8384C263.898 82.672 262.951 81.7266 261.782 81.7266C260.613 81.7266 259.666 82.672 259.666 83.8384Z" fill="white"/>
<path d="M245.488 81.9375C244.43 81.9375 243.583 82.7822 243.583 83.8381C243.583 84.894 244.43 85.7387 245.488 85.7387C246.546 85.7387 247.393 84.894 247.393 83.8381C247.393 82.7822 246.546 81.9375 245.488 81.9375Z" fill="white"/>
<path d="M227.288 83.8381C227.288 84.8878 228.141 85.7387 229.193 85.7387C230.245 85.7387 231.098 84.8878 231.098 83.8381C231.098 82.7884 230.245 81.9375 229.193 81.9375C228.141 81.9375 227.288 82.7884 227.288 83.8381Z" fill="white"/>
<path d="M212.686 82.1484C211.628 82.1484 210.993 82.9932 210.993 83.8379C210.993 84.6826 211.839 85.5273 212.686 85.5273C213.532 85.5273 214.379 84.6826 214.379 83.8379C214.379 82.9932 213.744 82.1484 212.686 82.1484Z" fill="white"/>
<path d="M196.39 82.3594C195.543 82.3594 194.697 82.9929 194.697 84.0488C194.697 84.8935 195.332 85.5271 196.39 85.5271C197.237 85.5271 197.871 84.8935 197.871 84.0488C198.083 82.9929 197.237 82.3594 196.39 82.3594Z" fill="white"/>
<path d="M178.613 83.8376C178.613 84.6541 179.277 85.3159 180.095 85.3159C180.913 85.3159 181.576 84.6541 181.576 83.8376C181.576 83.0212 180.913 82.3594 180.095 82.3594C179.277 82.3594 178.613 83.0212 178.613 83.8376Z" fill="white"/>
<path d="M163.588 82.5703C162.953 82.5703 162.318 83.2038 162.318 83.8374C162.318 84.4709 162.953 85.1045 163.588 85.1045C164.223 85.1045 164.857 84.4709 164.857 83.8374C165.069 83.2038 164.434 82.5703 163.588 82.5703Z" fill="white"/>
<path d="M147.293 82.7813C146.658 82.7813 146.023 83.4148 146.023 84.0483C146.023 84.6819 146.658 85.3154 147.293 85.3154C147.928 85.3154 148.563 84.4707 148.563 83.8372C148.563 83.2036 147.928 82.7813 147.293 82.7813Z" fill="white"/>
<path d="M129.938 83.8372C129.938 84.4203 130.412 84.8931 130.997 84.8931C131.581 84.8931 132.055 84.4203 132.055 83.8372C132.055 83.254 131.581 82.7813 130.997 82.7813C130.412 82.7813 129.938 83.254 129.938 83.8372Z" fill="white"/>
<path d="M114.702 82.9922C114.279 82.9922 113.856 83.4145 113.856 83.8369C113.856 84.2593 114.279 84.6816 114.702 84.6816C115.126 84.6816 115.549 84.4705 115.549 83.8369C115.549 83.4145 115.126 82.9922 114.702 82.9922Z" fill="white"/>
<path d="M98.1945 82.9922C97.7712 82.9922 97.348 83.4145 97.348 83.8369C97.348 84.2593 97.7712 84.6816 98.1945 84.6816C98.6177 84.6816 99.041 84.2593 99.041 83.8369C99.041 83.4145 98.6177 82.9922 98.1945 82.9922Z" fill="white"/>
<path d="M81.9002 83.2031C81.477 83.2031 81.2654 83.4143 81.2654 83.8367C81.2654 84.259 81.477 84.4702 81.9002 84.4702C82.3235 84.4702 82.5352 84.259 82.5352 83.8367C82.5352 83.4143 82.3235 83.2031 81.9002 83.2031Z" fill="white"/>
<path d="M65.6034 83.418C65.3918 83.418 64.9685 83.6291 64.9685 84.0515C64.9685 84.4739 65.1802 84.4739 65.6034 84.4739C65.8151 84.4739 66.2383 84.2627 66.2383 83.8403C66.2383 83.418 65.8151 83.418 65.6034 83.418Z" fill="white"/>
<path d="M48.6749 83.8403C48.6749 84.0736 48.8644 84.2627 49.0982 84.2627C49.332 84.2627 49.5215 84.0736 49.5215 83.8403C49.5215 83.6071 49.332 83.418 49.0982 83.418C48.8644 83.418 48.6749 83.6071 48.6749 83.8403Z" fill="white"/>
<path d="M32.802 83.6289C32.5903 83.6289 32.5903 83.8401 32.5903 83.8401C32.5903 84.0513 32.802 84.0513 32.802 84.0513C33.0136 84.0513 33.0137 83.8401 33.0137 83.8401C33.0137 83.8401 33.0136 83.6289 32.802 83.6289Z" fill="white"/>
<path d="M16.5075 83.6289C16.2958 83.6289 16.2958 83.8401 16.5075 83.6289C16.2958 83.8401 16.5075 84.0513 16.5075 84.0513C16.5075 84.0513 16.7191 84.0513 16.5075 83.6289C16.7191 83.8401 16.5075 83.6289 16.5075 83.6289Z" fill="white"/>
<path d="M864.498 67.5774C864.498 69.0936 865.729 70.3227 867.249 70.3227C868.768 70.3227 870 69.0936 870 67.5774C870 66.0612 868.768 64.832 867.249 64.832C865.729 64.832 864.498 66.0612 864.498 67.5774Z" fill="white"/>
<path d="M850.742 65.2539C849.473 65.2539 848.415 66.3098 848.415 67.5769C848.415 68.844 849.473 69.8999 850.742 69.8999C852.012 69.6887 853.07 68.844 853.07 67.5769C853.07 66.3098 852.012 65.2539 850.742 65.2539Z" fill="white"/>
<path d="M834.446 65.2539C833.176 65.2539 832.118 66.3098 832.118 67.5769C832.118 68.844 833.176 69.8999 834.446 69.8999C835.715 69.8999 836.773 68.844 836.773 67.5769C836.773 66.3098 835.715 65.2539 834.446 65.2539Z" fill="white"/>
<path d="M818.151 65.2539C816.881 65.2539 815.823 66.3098 815.823 67.5769C815.823 68.844 816.881 69.8999 818.151 69.8999C819.42 69.8999 820.479 68.844 820.479 67.5769C820.267 66.3098 819.42 65.2539 818.151 65.2539Z" fill="white"/>
<path d="M801.645 65.2539C800.375 65.2539 799.317 66.3098 799.317 67.5769C799.317 68.844 800.375 69.8999 801.645 69.8999C802.915 69.8999 803.973 68.844 803.973 67.5769C803.973 66.3098 802.915 65.2539 801.645 65.2539Z" fill="white"/>
<path d="M785.348 65.2539C784.078 65.2539 783.02 66.3098 783.02 67.5769C783.232 68.844 784.078 69.6887 785.348 69.6887C786.618 69.6887 787.676 68.844 787.676 67.5769C787.676 66.3098 786.618 65.2539 785.348 65.2539Z" fill="white"/>
<path d="M769.054 65.2539C767.784 65.2539 766.726 66.3098 766.726 67.5769C766.726 68.844 767.784 69.8999 769.054 69.8999C770.323 69.8999 771.17 68.844 771.17 67.5769C771.17 66.3098 770.323 65.2539 769.054 65.2539Z" fill="white"/>
<path d="M752.759 65.2539C751.489 65.2539 750.431 66.3098 750.431 67.5769C750.431 68.844 751.489 69.8999 752.759 69.8999C754.028 69.8999 754.875 68.844 754.875 67.5769C754.875 66.3098 753.817 65.2539 752.759 65.2539Z" fill="white"/>
<path d="M736.252 65.2539C734.982 65.2539 733.924 66.3098 733.924 67.5769C733.924 68.844 734.982 69.8999 736.252 69.8999C737.522 69.8999 738.58 68.844 738.58 67.5769C738.58 66.3098 737.522 65.2539 736.252 65.2539Z" fill="white"/>
<path d="M719.956 65.2539C718.686 65.2539 717.628 66.3098 717.628 67.5769C717.628 68.844 718.686 69.8999 719.956 69.8999C721.226 69.8999 722.072 68.844 722.072 67.5769C722.072 66.3098 721.226 65.2539 719.956 65.2539Z" fill="white"/>
<path d="M701.332 67.5769C701.332 68.8598 702.375 69.8999 703.66 69.8999C704.946 69.8999 705.988 68.8598 705.988 67.5769C705.988 66.2939 704.946 65.2539 703.66 65.2539C702.375 65.2539 701.332 66.2939 701.332 67.5769Z" fill="white"/>
<path d="M684.827 67.5769C684.827 68.8598 685.869 69.8999 687.155 69.8999C688.44 69.8999 689.482 68.8598 689.482 67.5769C689.482 66.2939 688.44 65.2539 687.155 65.2539C685.869 65.2539 684.827 66.2939 684.827 67.5769Z" fill="white"/>
<path d="M670.86 65.2539C669.59 65.2539 668.532 66.3098 668.532 67.5769C668.532 68.844 669.59 69.8999 670.86 69.8999C672.129 69.8999 673.188 68.844 673.188 67.5769C673.188 66.3098 672.129 65.2539 670.86 65.2539Z" fill="white"/>
<path d="M652.235 67.5769C652.235 68.8598 653.277 69.8999 654.563 69.8999C655.848 69.8999 656.891 68.8598 656.891 67.5769C656.891 66.2939 655.848 65.2539 654.563 65.2539C653.277 65.2539 652.235 66.2939 652.235 67.5769Z" fill="white"/>
<path d="M635.729 67.5769C635.729 68.8598 636.771 69.8999 638.057 69.8999C639.343 69.8999 640.385 68.8598 640.385 67.5769C640.385 66.2939 639.343 65.2539 638.057 65.2539C636.771 65.2539 635.729 66.2939 635.729 67.5769Z" fill="white"/>
<path d="M619.434 67.5769C619.434 68.8598 620.476 69.8999 621.762 69.8999C623.048 69.8999 624.09 68.8598 624.09 67.5769C624.09 66.2939 623.048 65.2539 621.762 65.2539C620.476 65.2539 619.434 66.2939 619.434 67.5769Z" fill="white"/>
<path d="M605.466 65.2539C604.196 65.2539 603.138 66.3098 603.138 67.5769C603.138 68.844 604.196 69.8999 605.466 69.8999C606.736 69.8999 607.582 68.844 607.582 67.5769C607.582 66.3098 606.736 65.2539 605.466 65.2539Z" fill="white"/>
<path d="M588.959 65.2539C587.689 65.2539 586.631 66.3098 586.631 67.5769C586.631 68.844 587.689 69.8999 588.959 69.8999C590.229 69.8999 591.287 68.844 591.287 67.5769C591.287 66.3098 590.229 65.2539 588.959 65.2539Z" fill="white"/>
<path d="M570.336 67.5769C570.336 68.8598 571.379 69.8999 572.664 69.8999C573.95 69.8999 574.992 68.8598 574.992 67.5769C574.992 66.2939 573.95 65.2539 572.664 65.2539C571.379 65.2539 570.336 66.2939 570.336 67.5769Z" fill="white"/>
<path d="M554.041 67.5769C554.041 68.8598 555.084 69.8999 556.369 69.8999C557.655 69.8999 558.697 68.8598 558.697 67.5769C558.697 66.2939 557.655 65.2539 556.369 65.2539C555.084 65.2539 554.041 66.2939 554.041 67.5769Z" fill="white"/>
<path d="M537.745 67.5769C537.745 68.8598 538.787 69.8999 540.072 69.8999C541.358 69.8999 542.4 68.8598 542.4 67.5769C542.4 66.2939 541.358 65.2539 540.072 65.2539C538.787 65.2539 537.745 66.2939 537.745 67.5769Z" fill="white"/>
<path d="M523.567 65.2539C522.297 65.2539 521.239 66.3098 521.239 67.5769C521.239 68.844 522.297 69.8999 523.567 69.8999C524.836 69.8999 525.895 68.844 525.895 67.5769C525.895 66.3098 524.836 65.2539 523.567 65.2539Z" fill="white"/>
<path d="M504.944 67.5769C504.944 68.8598 505.986 69.8999 507.272 69.8999C508.557 69.8999 509.6 68.8598 509.6 67.5769C509.6 66.2939 508.557 65.2539 507.272 65.2539C505.986 65.2539 504.944 66.2939 504.944 67.5769Z" fill="white"/>
<path d="M488.647 67.5769C488.647 68.8598 489.689 69.8999 490.975 69.8999C492.26 69.8999 493.303 68.8598 493.303 67.5769C493.303 66.2939 492.26 65.2539 490.975 65.2539C489.689 65.2539 488.647 66.2939 488.647 67.5769Z" fill="white"/>
<path d="M472.141 67.5769C472.141 68.8598 473.183 69.8999 474.469 69.8999C475.755 69.8999 476.797 68.8598 476.797 67.5769C476.797 66.2939 475.755 65.2539 474.469 65.2539C473.183 65.2539 472.141 66.2939 472.141 67.5769Z" fill="white"/>
<path d="M458.172 65.2539C456.902 65.2539 455.844 66.3098 455.844 67.5769C455.844 68.844 456.902 69.8999 458.172 69.8999C459.442 69.8999 460.5 68.844 460.5 67.5769C460.5 66.3098 459.442 65.2539 458.172 65.2539Z" fill="white"/>
<path d="M439.549 67.5769C439.549 68.8598 440.592 69.8999 441.877 69.8999C443.163 69.8999 444.205 68.8598 444.205 67.5769C444.205 66.2939 443.163 65.2539 441.877 65.2539C440.592 65.2539 439.549 66.2939 439.549 67.5769Z" fill="white"/>
<path d="M423.043 67.5769C423.043 68.8598 424.086 69.8999 425.371 69.8999C426.657 69.8999 427.699 68.8598 427.699 67.5769C427.699 66.2939 426.657 65.2539 425.371 65.2539C424.086 65.2539 423.043 66.2939 423.043 67.5769Z" fill="white"/>
<path d="M406.747 67.5769C406.747 68.8598 407.789 69.8999 409.074 69.8999C410.36 69.8999 411.402 68.8598 411.402 67.5769C411.402 66.2939 410.36 65.2539 409.074 65.2539C407.789 65.2539 406.747 66.2939 406.747 67.5769Z" fill="white"/>
<path d="M392.78 65.2539C391.51 65.2539 390.452 66.3098 390.452 67.5769C390.452 68.844 391.51 69.8999 392.78 69.8999C394.049 69.8999 395.107 68.844 395.107 67.5769C395.107 66.3098 394.049 65.2539 392.78 65.2539Z" fill="white"/>
<path d="M376.274 65.2539C375.004 65.2539 373.946 66.3098 373.946 67.5769C373.946 68.844 375.004 69.8999 376.274 69.8999C377.543 69.8999 378.602 68.844 378.602 67.5769C378.602 66.3098 377.755 65.2539 376.274 65.2539Z" fill="white"/>
<path d="M359.979 65.2539C358.709 65.2539 357.651 66.3098 357.651 67.5769C357.651 68.844 358.709 69.8999 359.979 69.8999C361.248 69.8999 362.307 68.844 362.307 67.5769C362.307 66.3098 361.248 65.2539 359.979 65.2539Z" fill="white"/>
<path d="M341.354 67.5769C341.354 68.8598 342.396 69.8999 343.682 69.8999C344.968 69.8999 346.01 68.8598 346.01 67.5769C346.01 66.2939 344.968 65.2539 343.682 65.2539C342.396 65.2539 341.354 66.2939 341.354 67.5769Z" fill="white"/>
<path d="M327.387 65.2539C326.117 65.2539 325.059 66.3098 325.059 67.5769C325.059 68.844 326.117 69.8999 327.387 69.8999C328.657 69.8999 329.715 68.844 329.715 67.5769C329.503 66.3098 328.657 65.2539 327.387 65.2539Z" fill="white"/>
<path d="M310.881 65.2539C309.611 65.2539 308.553 66.3098 308.553 67.5769C308.553 68.844 309.611 69.8999 310.881 69.8999C312.151 69.8999 313.209 68.844 313.209 67.5769C313.209 66.3098 312.151 65.2539 310.881 65.2539Z" fill="white"/>
<path d="M294.586 65.2539C293.316 65.2539 292.258 66.3098 292.258 67.5769C292.258 68.844 293.316 69.8999 294.586 69.8999C295.856 69.8999 296.914 68.844 296.914 67.5769C296.914 66.3098 295.856 65.2539 294.586 65.2539Z" fill="white"/>
<path d="M278.29 65.2539C277.02 65.2539 275.962 66.3098 275.962 67.5769C275.962 68.844 277.02 69.8999 278.29 69.8999C279.56 69.8999 280.406 68.844 280.406 67.5769C280.406 66.3098 279.348 65.2539 278.29 65.2539Z" fill="white"/>
<path d="M261.782 65.4648C260.724 65.4648 259.666 66.3096 259.666 67.5767C259.666 68.6326 260.512 69.6885 261.782 69.6885C262.84 69.6885 263.898 68.8437 263.898 67.5767C263.898 66.3096 263.052 65.4648 261.782 65.4648Z" fill="white"/>
<path d="M245.488 65.6758C244.43 65.6758 243.583 66.5205 243.583 67.5764C243.583 68.6323 244.43 69.477 245.488 69.477C246.546 69.477 247.393 68.6323 247.393 67.5764C247.393 66.5205 246.546 65.6758 245.488 65.6758Z" fill="white"/>
<path d="M227.288 67.5764C227.288 68.6261 228.141 69.477 229.193 69.477C230.245 69.477 231.098 68.6261 231.098 67.5764C231.098 66.5267 230.245 65.6758 229.193 65.6758C228.141 65.6758 227.288 66.5267 227.288 67.5764Z" fill="white"/>
<path d="M212.686 65.8867C211.628 65.8867 210.993 66.7314 210.993 67.5762C210.993 68.6321 211.84 69.2656 212.686 69.2656C213.533 69.2656 214.379 68.4209 214.379 67.5762C214.591 66.5203 213.745 65.8867 212.686 65.8867Z" fill="white"/>
<path d="M194.908 67.5759C194.908 68.3923 195.572 69.0542 196.39 69.0542C197.208 69.0542 197.871 68.3923 197.871 67.5759C197.871 66.7595 197.208 66.0977 196.39 66.0977C195.572 66.0977 194.908 66.7595 194.908 67.5759Z" fill="white"/>
<path d="M180.095 66.0977C179.248 66.0977 178.613 66.7312 178.613 67.5759C178.613 68.4206 179.248 69.0542 180.095 69.0542C180.941 69.0542 181.576 68.4206 181.576 67.5759C181.576 66.7312 180.941 66.0977 180.095 66.0977Z" fill="white"/>
<path d="M163.588 66.3125C162.953 66.3125 162.318 66.946 162.318 67.5796C162.318 68.2131 162.953 68.8467 163.588 68.8467C164.223 68.8467 164.857 68.2131 164.857 67.5796C165.069 66.946 164.434 66.3125 163.588 66.3125Z" fill="white"/>
<path d="M147.293 66.3125C146.658 66.3125 146.023 66.7349 146.023 67.5796C146.023 68.2131 146.658 68.8467 147.293 68.8467C147.928 68.8467 148.563 68.4243 148.563 67.5796C148.563 66.946 147.928 66.3125 147.293 66.3125Z" fill="white"/>
<path d="M129.938 67.5793C129.938 68.1625 130.412 68.6352 130.997 68.6352C131.581 68.6352 132.055 68.1625 132.055 67.5793C132.055 66.9962 131.581 66.5234 130.997 66.5234C130.412 66.5234 129.938 66.9962 129.938 67.5793Z" fill="white"/>
<path d="M113.856 67.5752C113.856 68.0417 114.235 68.4199 114.702 68.4199C115.17 68.4199 115.549 68.0417 115.549 67.5752C115.549 67.1087 115.17 66.7305 114.702 66.7305C114.235 66.7305 113.856 67.1087 113.856 67.5752Z" fill="white"/>
<path d="M98.1945 66.7305C97.7712 66.7305 97.348 67.1528 97.348 67.5752C97.348 67.9975 97.7712 68.4199 98.1945 68.4199C98.6177 68.4199 99.041 67.9975 99.041 67.5752C99.041 67.1528 98.6177 66.7305 98.1945 66.7305Z" fill="white"/>
<path d="M81.9002 66.9453C81.477 66.9453 81.2654 67.1565 81.2654 67.5789C81.2654 68.0012 81.477 68.2124 81.9002 68.2124C82.3235 68.2124 82.5352 68.0012 82.5352 67.5789C82.5352 67.1565 82.3235 66.9453 81.9002 66.9453Z" fill="white"/>
<path d="M64.9685 67.5789C64.9685 67.9288 65.2528 68.2124 65.6034 68.2124C65.9541 68.2124 66.2383 67.9288 66.2383 67.5789C66.2383 67.229 65.9541 66.9453 65.6034 66.9453C65.2528 66.9453 64.9685 67.229 64.9685 67.5789Z" fill="white"/>
<path d="M48.6749 67.5786C48.6749 67.8119 48.8644 68.001 49.0982 68.001C49.332 68.001 49.5215 67.8119 49.5215 67.5786C49.5215 67.3453 49.332 67.1563 49.0982 67.1563C48.8644 67.1563 48.6749 67.3453 48.6749 67.5786Z" fill="white"/>
<path d="M32.802 67.3672C32.5903 67.3672 32.5903 67.5784 32.5903 67.5784C32.5903 67.7896 32.802 67.7896 32.802 67.7896C33.0136 67.7896 33.0137 67.5784 33.0137 67.5784C33.0137 67.3672 33.0136 67.3672 32.802 67.3672Z" fill="white"/>
<path d="M16.5075 67.3672C16.2958 67.3672 16.2958 67.3672 16.5075 67.3672C16.2958 67.5784 16.5075 67.7896 16.5075 67.7896C16.5075 67.7896 16.7191 67.5784 16.5075 67.3672C16.7191 67.3672 16.5075 67.3672 16.5075 67.3672Z" fill="white"/>
<path d="M864.498 51.3157C864.498 52.8319 865.729 54.061 867.249 54.061C868.768 54.061 870 52.8319 870 51.3157C870 49.7994 868.768 48.5703 867.249 48.5703C865.729 48.5703 864.498 49.7994 864.498 51.3157Z" fill="white"/>
<path d="M850.742 48.9922C849.473 48.9922 848.415 50.0481 848.415 51.3152C848.415 52.5823 849.473 53.6382 850.742 53.6382C852.012 53.6382 853.07 52.5823 853.07 51.3152C853.07 50.0481 852.012 48.9922 850.742 48.9922Z" fill="white"/>
<path d="M834.446 48.9922C833.176 48.9922 832.118 50.0481 832.118 51.3152C832.118 52.5823 833.176 53.6382 834.446 53.6382C835.715 53.6382 836.773 52.5823 836.773 51.3152C836.773 50.0481 835.715 48.9922 834.446 48.9922Z" fill="white"/>
<path d="M818.151 48.9922C816.881 48.9922 815.823 50.0481 815.823 51.3152C815.823 52.5823 816.881 53.6382 818.151 53.6382C819.42 53.6382 820.479 52.5823 820.479 51.3152C820.479 50.0481 819.42 48.9922 818.151 48.9922Z" fill="white"/>
<path d="M801.645 48.9922C800.375 48.9922 799.317 50.0481 799.317 51.3152C799.317 52.5823 800.375 53.6382 801.645 53.6382C802.915 53.6382 803.973 52.5823 803.973 51.3152C803.973 50.0481 802.915 48.9922 801.645 48.9922Z" fill="white"/>
<path d="M785.348 48.9922C784.078 48.9922 783.02 50.0481 783.02 51.3152C783.02 52.5823 784.078 53.427 785.348 53.427C786.618 53.427 787.676 52.3711 787.676 51.3152C787.676 50.2593 786.618 48.9922 785.348 48.9922Z" fill="white"/>
<path d="M769.054 48.9922C767.784 48.9922 766.726 50.0481 766.726 51.3152C766.726 52.5823 767.784 53.6382 769.054 53.6382C770.323 53.6382 771.17 52.3711 771.17 51.3152C771.17 50.2593 770.323 48.9922 769.054 48.9922Z" fill="white"/>
<path d="M752.759 48.9922C751.489 48.9922 750.431 50.0481 750.431 51.3152C750.431 52.5823 751.489 53.427 752.759 53.427C754.028 53.427 754.875 52.3711 754.875 51.3152C754.875 50.2593 753.817 48.9922 752.759 48.9922Z" fill="white"/>
<path d="M736.252 48.9922C734.982 48.9922 733.924 50.0481 733.924 51.3152C733.924 52.5823 734.982 53.6382 736.252 53.6382C737.522 53.6382 738.58 52.5823 738.58 51.3152C738.58 50.0481 737.522 48.9922 736.252 48.9922Z" fill="white"/>
<path d="M719.956 48.9922C718.686 48.9922 717.628 50.0481 717.628 51.3152C717.628 52.5823 718.686 53.6382 719.956 53.6382C721.226 53.6382 722.072 52.3711 722.072 51.3152C722.072 50.2593 721.226 48.9922 719.956 48.9922Z" fill="white"/>
<path d="M701.332 51.3152C701.332 52.5981 702.375 53.6382 703.66 53.6382C704.946 53.6382 705.988 52.5981 705.988 51.3152C705.988 50.0322 704.946 48.9922 703.66 48.9922C702.375 48.9922 701.332 50.0322 701.332 51.3152Z" fill="white"/>
<path d="M684.827 51.3152C684.827 52.5981 685.869 53.6382 687.155 53.6382C688.44 53.6382 689.482 52.5981 689.482 51.3152C689.482 50.0322 688.44 48.9922 687.155 48.9922C685.869 48.9922 684.827 50.0322 684.827 51.3152Z" fill="white"/>
<path d="M670.86 48.9922C669.59 48.9922 668.532 50.0481 668.532 51.3152C668.532 52.5823 669.59 53.6382 670.86 53.6382C672.129 53.6382 673.188 52.5823 673.188 51.3152C673.188 50.0481 672.129 48.9922 670.86 48.9922Z" fill="white"/>
<path d="M652.235 51.3152C652.235 52.5981 653.277 53.6382 654.563 53.6382C655.848 53.6382 656.891 52.5981 656.891 51.3152C656.891 50.0322 655.848 48.9922 654.563 48.9922C653.277 48.9922 652.235 50.0322 652.235 51.3152Z" fill="white"/>
<path d="M635.729 51.3152C635.729 52.5981 636.771 53.6382 638.057 53.6382C639.343 53.6382 640.385 52.5981 640.385 51.3152C640.385 50.0322 639.343 48.9922 638.057 48.9922C636.771 48.9922 635.729 50.0322 635.729 51.3152Z" fill="white"/>
<path d="M619.434 51.3152C619.434 52.5981 620.476 53.6382 621.762 53.6382C623.048 53.6382 624.09 52.5981 624.09 51.3152C624.09 50.0322 623.048 48.9922 621.762 48.9922C620.476 48.9922 619.434 50.0322 619.434 51.3152Z" fill="white"/>
<path d="M605.466 48.9922C604.196 48.9922 603.138 50.0481 603.138 51.3152C603.138 52.5823 604.196 53.6382 605.466 53.6382C606.736 53.6382 607.582 52.5823 607.582 51.3152C607.582 50.0481 606.736 48.9922 605.466 48.9922Z" fill="white"/>
<path d="M588.959 48.9922C587.689 48.9922 586.631 50.0481 586.631 51.3152C586.631 52.5823 587.689 53.6382 588.959 53.6382C590.229 53.6382 591.287 52.5823 591.287 51.3152C591.287 50.0481 590.229 48.9922 588.959 48.9922Z" fill="white"/>
<path d="M570.336 51.3152C570.336 52.5981 571.379 53.6382 572.664 53.6382C573.95 53.6382 574.992 52.5981 574.992 51.3152C574.992 50.0322 573.95 48.9922 572.664 48.9922C571.379 48.9922 570.336 50.0322 570.336 51.3152Z" fill="white"/>
<path d="M554.041 51.3152C554.041 52.5981 555.084 53.6382 556.369 53.6382C557.655 53.6382 558.697 52.5981 558.697 51.3152C558.697 50.0322 557.655 48.9922 556.369 48.9922C555.084 48.9922 554.041 50.0322 554.041 51.3152Z" fill="white"/>
<path d="M537.745 51.3152C537.745 52.5981 538.787 53.6382 540.072 53.6382C541.358 53.6382 542.4 52.5981 542.4 51.3152C542.4 50.0322 541.358 48.9922 540.072 48.9922C538.787 48.9922 537.745 50.0322 537.745 51.3152Z" fill="white"/>
<path d="M523.567 48.9922C522.297 48.9922 521.239 50.0481 521.239 51.3152C521.239 52.5823 522.297 53.6382 523.567 53.6382C524.836 53.6382 525.895 52.5823 525.895 51.3152C525.895 50.0481 524.836 48.9922 523.567 48.9922Z" fill="white"/>
<path d="M504.944 51.3152C504.944 52.5981 505.986 53.6382 507.272 53.6382C508.557 53.6382 509.6 52.5981 509.6 51.3152C509.6 50.0322 508.557 48.9922 507.272 48.9922C505.986 48.9922 504.944 50.0322 504.944 51.3152Z" fill="white"/>
<path d="M488.647 51.3152C488.647 52.5981 489.689 53.6382 490.975 53.6382C492.26 53.6382 493.303 52.5981 493.303 51.3152C493.303 50.0322 492.26 48.9922 490.975 48.9922C489.689 48.9922 488.647 50.0322 488.647 51.3152Z" fill="white"/>
<path d="M472.141 51.3152C472.141 52.5981 473.183 53.6382 474.469 53.6382C475.755 53.6382 476.797 52.5981 476.797 51.3152C476.797 50.0322 475.755 48.9922 474.469 48.9922C473.183 48.9922 472.141 50.0322 472.141 51.3152Z" fill="white"/>
<path d="M458.172 48.9922C456.902 48.9922 455.844 50.0481 455.844 51.3152C455.844 52.5823 456.902 53.6382 458.172 53.6382C459.442 53.6382 460.5 52.5823 460.5 51.3152C460.5 50.0481 459.442 48.9922 458.172 48.9922Z" fill="white"/>
<path d="M439.549 51.3152C439.549 52.5981 440.592 53.6382 441.877 53.6382C443.163 53.6382 444.205 52.5981 444.205 51.3152C444.205 50.0322 443.163 48.9922 441.877 48.9922C440.592 48.9922 439.549 50.0322 439.549 51.3152Z" fill="white"/>
<path d="M425.371 48.9922C424.102 48.9922 423.043 50.0481 423.043 51.3152C423.043 52.5823 424.102 53.6382 425.371 53.6382C426.641 53.6382 427.699 52.5823 427.699 51.3152C427.699 50.0481 426.641 48.9922 425.371 48.9922Z" fill="white"/>
<path d="M409.074 48.9922C407.805 48.9922 406.747 50.0481 406.747 51.3152C406.747 52.5823 407.805 53.6382 409.074 53.6382C410.344 53.6382 411.402 52.5823 411.402 51.3152C411.402 50.0481 410.344 48.9922 409.074 48.9922Z" fill="white"/>
<path d="M392.78 48.9922C391.51 48.9922 390.452 50.0481 390.452 51.3152C390.452 52.5823 391.51 53.6382 392.78 53.6382C394.049 53.6382 395.107 52.5823 395.107 51.3152C395.107 50.0481 394.049 48.9922 392.78 48.9922Z" fill="white"/>
<path d="M376.274 48.9922C375.004 48.9922 373.946 50.0481 373.946 51.3152C373.946 52.5823 375.004 53.6382 376.274 53.6382C377.543 53.6382 378.602 52.5823 378.602 51.3152C378.602 50.0481 377.755 48.9922 376.274 48.9922Z" fill="white"/>
<path d="M359.979 48.9922C358.709 48.9922 357.651 50.0481 357.651 51.3152C357.651 52.5823 358.709 53.6382 359.979 53.6382C361.248 53.6382 362.307 52.5823 362.307 51.3152C362.307 50.0481 361.248 48.9922 359.979 48.9922Z" fill="white"/>
<path d="M343.682 48.9922C342.412 48.9922 341.354 50.0481 341.354 51.3152C341.354 52.5823 342.412 53.6382 343.682 53.6382C344.952 53.6382 346.01 52.5823 346.01 51.3152C346.01 50.0481 344.952 48.9922 343.682 48.9922Z" fill="white"/>
<path d="M327.387 48.9922C326.117 48.9922 325.059 50.0481 325.059 51.3152C325.059 52.5823 326.117 53.6382 327.387 53.6382C328.657 53.6382 329.715 52.5823 329.715 51.3152C329.715 50.0481 328.657 48.9922 327.387 48.9922Z" fill="white"/>
<path d="M310.881 48.9922C309.611 48.9922 308.553 50.0481 308.553 51.3152C308.553 52.5823 309.611 53.6382 310.881 53.6382C312.151 53.6382 313.209 52.5823 313.209 51.3152C313.209 50.0481 312.151 48.9922 310.881 48.9922Z" fill="white"/>
<path d="M294.586 48.9922C293.316 48.9922 292.258 50.0481 292.258 51.3152C292.258 52.5823 293.316 53.6382 294.586 53.6382C295.856 53.6382 296.914 52.5823 296.914 51.3152C296.914 50.0481 295.856 48.9922 294.586 48.9922Z" fill="white"/>
<path d="M278.29 48.9922C277.02 48.9922 275.962 50.0481 275.962 51.3152C275.962 52.5823 277.02 53.6382 278.29 53.6382C279.56 53.6382 280.406 52.5823 280.406 51.3152C280.406 50.0481 279.348 48.9922 278.29 48.9922Z" fill="white"/>
<path d="M259.666 51.3188C259.666 52.4852 260.613 53.4306 261.782 53.4306C262.951 53.4306 263.898 52.4852 263.898 51.3188C263.898 50.1525 262.951 49.207 261.782 49.207C260.613 49.207 259.666 50.1525 259.666 51.3188Z" fill="white"/>
<path d="M245.488 49.207C244.43 49.207 243.583 50.0518 243.583 51.1077C243.583 52.1636 244.43 53.0083 245.488 53.0083C246.546 53.0083 247.393 52.1636 247.393 51.1077C247.393 50.0518 246.546 49.207 245.488 49.207Z" fill="white"/>
<path d="M227.288 51.3186C227.288 52.3683 228.141 53.2192 229.193 53.2192C230.245 53.2192 231.098 52.3683 231.098 51.3186C231.098 50.2689 230.245 49.418 229.193 49.418C228.141 49.418 227.288 50.2689 227.288 51.3186Z" fill="white"/>
<path d="M212.686 49.418C211.628 49.418 210.993 50.2627 210.993 51.1074C210.993 51.9521 211.839 52.7969 212.686 52.7969C213.532 52.7969 214.379 51.9521 214.379 51.1074C214.379 50.2627 213.744 49.418 212.686 49.418Z" fill="white"/>
<path d="M194.908 51.3181C194.908 52.1345 195.572 52.7964 196.39 52.7964C197.208 52.7964 197.871 52.1345 197.871 51.3181C197.871 50.5017 197.208 49.8398 196.39 49.8398C195.572 49.8398 194.908 50.5017 194.908 51.3181Z" fill="white"/>
<path d="M178.613 51.3181C178.613 52.1345 179.277 52.7964 180.095 52.7964C180.913 52.7964 181.576 52.1345 181.576 51.3181C181.576 50.5017 180.913 49.8398 180.095 49.8398C179.277 49.8398 178.613 50.5017 178.613 51.3181Z" fill="white"/>
<path d="M163.588 49.8398C162.953 49.8398 162.318 50.4734 162.318 51.1069C162.318 51.7405 162.953 52.374 163.588 52.374C164.223 52.374 164.857 51.7405 164.857 51.1069C165.069 50.4734 164.434 49.8398 163.588 49.8398Z" fill="white"/>
<path d="M147.293 50.0508C146.658 50.0508 146.023 50.4731 146.023 51.3179C146.023 52.1626 146.658 52.5849 147.293 52.5849C147.928 52.5849 148.563 52.1626 148.563 51.3179C148.563 50.4731 147.928 50.0508 147.293 50.0508Z" fill="white"/>
<path d="M130.997 50.2617C130.362 50.2617 129.938 50.6841 129.938 51.3176C129.938 51.9512 130.362 52.3735 130.997 52.3735C131.631 52.3735 132.055 51.9512 132.055 51.3176C132.055 50.6841 131.631 50.2617 130.997 50.2617Z" fill="white"/>
<path d="M113.856 51.3174C113.856 51.7839 114.235 52.1621 114.702 52.1621C115.17 52.1621 115.549 51.7839 115.549 51.3174C115.549 50.8509 115.17 50.4727 114.702 50.4727C114.235 50.4727 113.856 50.8509 113.856 51.3174Z" fill="white"/>
<path d="M98.1945 50.4727C97.7712 50.4727 97.348 50.895 97.348 51.3174C97.348 51.7397 97.7712 52.1621 98.1945 52.1621C98.6177 52.1621 99.041 51.7397 99.041 51.3174C99.041 50.895 98.6177 50.4727 98.1945 50.4727Z" fill="white"/>
<path d="M81.9002 50.4727C81.477 50.4727 81.2654 50.6838 81.2654 51.1062C81.2654 51.5286 81.477 51.7397 81.9002 51.7397C82.3235 51.7397 82.5352 51.5286 82.5352 51.1062C82.5352 50.895 82.3235 50.4727 81.9002 50.4727Z" fill="white"/>
<path d="M65.6034 50.6836C65.3918 50.6836 64.9685 50.8948 64.9685 51.3171C64.9685 51.7395 65.1802 51.9507 65.6034 51.9507C65.8151 51.9507 66.2383 51.7395 66.2383 51.3171C66.2383 50.8948 65.8151 50.6836 65.6034 50.6836Z" fill="white"/>
<path d="M49.0982 50.8945C48.8865 50.8945 48.6749 51.1057 48.6749 51.3169C48.6749 51.5281 48.8865 51.7393 49.0982 51.7393C49.3098 51.7393 49.5215 51.5281 49.5215 51.3169C49.5215 51.1057 49.3098 50.8945 49.0982 50.8945Z" fill="white"/>
<path d="M32.802 50.8945C32.5903 50.8945 32.5903 51.1057 32.5903 51.1057L32.802 51.3169C33.0136 51.3169 33.0137 51.1057 33.0137 51.1057C33.0137 51.1057 33.0136 50.8945 32.802 50.8945Z" fill="white"/>
<path d="M16.5075 51.1055C16.2958 51.1055 16.2958 51.1055 16.5075 51.1055C16.2958 51.3166 16.5075 51.5278 16.5075 51.5278C16.5075 51.3166 16.7191 51.3166 16.5075 51.1055C16.7191 51.1055 16.5075 51.1055 16.5075 51.1055Z" fill="white"/>
<path d="M-0.000793457 51.1055L-0.000793448 51.3166L0.210938 51.3166L-0.000793457 51.1055Z" fill="white"/>
<path d="M864.498 34.8469C864.498 36.3631 865.729 37.5922 867.249 37.5922C868.768 37.5922 870 36.3631 870 34.8469C870 33.3307 868.768 32.1016 867.249 32.1016C865.729 32.1016 864.498 33.3307 864.498 34.8469Z" fill="white"/>
<path d="M850.742 32.7344C849.473 32.7344 848.415 33.7903 848.415 35.0574C848.415 36.3244 849.473 37.3803 850.742 37.3803C852.012 37.3803 853.07 36.3244 853.07 35.0574C853.07 33.7903 852.012 32.7344 850.742 32.7344Z" fill="white"/>
<path d="M834.446 32.7344C833.176 32.7344 832.118 33.7903 832.118 35.0574C832.118 36.3244 833.176 37.3803 834.446 37.3803C835.715 37.3803 836.773 36.3244 836.773 35.0574C836.773 33.7903 835.715 32.7344 834.446 32.7344Z" fill="white"/>
<path d="M818.151 32.7344C816.881 32.7344 815.823 33.7903 815.823 35.0574C815.823 36.3244 816.881 37.3803 818.151 37.3803C819.42 37.3803 820.479 36.3244 820.479 35.0574C820.267 33.7903 819.42 32.7344 818.151 32.7344Z" fill="white"/>
<path d="M801.645 32.7344C800.375 32.7344 799.317 33.7903 799.317 35.0574C799.317 36.3244 800.375 37.3803 801.645 37.3803C802.915 37.3803 803.973 36.3244 803.973 35.0574C803.973 33.7903 802.915 32.7344 801.645 32.7344Z" fill="white"/>
<path d="M785.348 32.7344C784.078 32.7344 783.02 33.7903 783.02 35.0574C783.232 36.1133 784.078 37.1692 785.348 37.1692C786.618 37.1692 787.676 36.1133 787.676 34.8462C787.676 33.7903 786.618 32.7344 785.348 32.7344Z" fill="white"/>
<path d="M769.054 32.7344C767.784 32.7344 766.726 33.7903 766.726 35.0574C766.726 36.3244 767.784 37.3803 769.054 37.3803C770.323 37.3803 771.17 36.1133 771.17 34.8462C771.17 33.7903 770.323 32.7344 769.054 32.7344Z" fill="white"/>
<path d="M752.759 32.7344C751.489 32.7344 750.431 33.7903 750.431 35.0574C750.431 36.3244 751.489 37.3803 752.759 37.3803C754.028 37.3803 754.875 36.1133 754.875 34.8462C754.875 33.7903 753.817 32.7344 752.759 32.7344Z" fill="white"/>
<path d="M736.252 32.7344C734.982 32.7344 733.924 33.7903 733.924 35.0574C733.924 36.3244 734.982 37.3803 736.252 37.3803C737.522 37.3803 738.58 36.3244 738.58 35.0574C738.58 33.7903 737.522 32.7344 736.252 32.7344Z" fill="white"/>
<path d="M719.956 32.7344C718.686 32.7344 717.628 33.7903 717.628 35.0574C717.628 36.3244 718.686 37.3803 719.956 37.3803C721.226 37.3803 722.072 36.1133 722.072 34.8462C722.072 33.7903 721.226 32.7344 719.956 32.7344Z" fill="white"/>
<path d="M703.66 32.7344C702.391 32.7344 701.332 33.7903 701.332 35.0574C701.332 36.3244 702.391 37.3803 703.66 37.3803C704.93 37.3803 705.988 36.3244 705.988 35.0574C705.777 33.5791 704.93 32.7344 703.66 32.7344Z" fill="white"/>
<path d="M687.155 32.7344C685.885 32.7344 684.827 33.7903 684.827 35.0574C684.827 36.3244 685.885 37.3803 687.155 37.3803C688.424 37.3803 689.482 36.1133 689.482 34.8462C689.482 33.5791 688.424 32.7344 687.155 32.7344Z" fill="white"/>
<path d="M670.86 32.7344C669.59 32.7344 668.532 33.7903 668.532 35.0574C668.532 36.3244 669.59 37.3803 670.86 37.3803C672.129 37.3803 673.188 36.3244 673.188 35.0574C673.188 33.5791 672.129 32.7344 670.86 32.7344Z" fill="white"/>
<path d="M654.563 32.7344C653.293 32.7344 652.235 33.7903 652.235 35.0574C652.235 36.3244 653.293 37.3803 654.563 37.3803C655.832 37.3803 656.891 36.3244 656.891 35.0574C656.679 33.5791 655.832 32.7344 654.563 32.7344Z" fill="white"/>
<path d="M638.057 32.7344C636.787 32.7344 635.729 33.7903 635.729 35.0574C635.729 36.3244 636.787 37.3803 638.057 37.3803C639.327 37.3803 640.385 36.3244 640.385 35.0574C640.385 33.5791 639.327 32.7344 638.057 32.7344Z" fill="white"/>
<path d="M621.762 32.7344C620.492 32.7344 619.434 33.7903 619.434 35.0574C619.434 36.3244 620.492 37.3803 621.762 37.3803C623.032 37.3803 624.09 36.3244 624.09 35.0574C624.09 33.5791 623.032 32.7344 621.762 32.7344Z" fill="white"/>
<path d="M605.466 32.7344C604.196 32.7344 603.138 33.7903 603.138 35.0574C603.138 36.3244 604.196 37.3803 605.466 37.3803C606.736 37.3803 607.582 36.1133 607.582 34.8462C607.582 33.5791 606.736 32.7344 605.466 32.7344Z" fill="white"/>
<path d="M588.959 32.7344C587.689 32.7344 586.631 33.7903 586.631 35.0574C586.631 36.3244 587.689 37.3803 588.959 37.3803C590.229 37.3803 591.287 36.3244 591.287 35.0574C591.287 33.5791 590.229 32.7344 588.959 32.7344Z" fill="white"/>
<path d="M572.664 32.7344C571.395 32.7344 570.336 33.7903 570.336 35.0574C570.336 36.3244 571.395 37.3803 572.664 37.3803C573.934 37.3803 574.992 36.3244 574.992 35.0574C574.992 33.5791 573.934 32.7344 572.664 32.7344Z" fill="white"/>
<path d="M556.369 32.7344C555.1 32.7344 554.041 33.7903 554.041 35.0574C554.041 36.3244 555.1 37.3803 556.369 37.3803C557.639 37.3803 558.697 36.3244 558.697 35.0574C558.697 33.5791 557.639 32.7344 556.369 32.7344Z" fill="white"/>
<path d="M540.072 32.7344C538.803 32.7344 537.745 33.7903 537.745 35.0574C537.745 36.3244 538.803 37.3803 540.072 37.3803C541.342 37.3803 542.4 36.3244 542.4 35.0574C542.189 33.5791 541.131 32.7344 540.072 32.7344Z" fill="white"/>
<path d="M523.567 32.7344C522.297 32.7344 521.239 33.7903 521.239 35.0574C521.239 36.3244 522.297 37.3803 523.567 37.3803C524.836 37.3803 525.895 36.3244 525.895 35.0574C525.895 33.5791 524.836 32.7344 523.567 32.7344Z" fill="white"/>
<path d="M507.272 32.7344C506.002 32.7344 504.944 33.7903 504.944 35.0574C504.944 36.3244 506.002 37.3803 507.272 37.3803C508.541 37.3803 509.6 36.3244 509.6 35.0574C509.6 33.5791 508.541 32.7344 507.272 32.7344Z" fill="white"/>
<path d="M490.975 32.7344C489.705 32.7344 488.647 33.7903 488.647 35.0574C488.647 36.3244 489.705 37.3803 490.975 37.3803C492.245 37.3803 493.303 36.3244 493.303 35.0574C493.091 33.5791 492.245 32.7344 490.975 32.7344Z" fill="white"/>
<path d="M474.469 32.7344C473.199 32.7344 472.141 33.7903 472.141 35.0574C472.141 36.3244 473.199 37.3803 474.469 37.3803C475.739 37.3803 476.797 36.3244 476.797 35.0574C476.797 33.5791 475.739 32.7344 474.469 32.7344Z" fill="white"/>
<path d="M458.172 32.7344C456.902 32.7344 455.844 33.7903 455.844 35.0574C455.844 36.3244 456.902 37.3803 458.172 37.3803C459.442 37.3803 460.5 36.3244 460.5 35.0574C460.5 33.5791 459.442 32.7344 458.172 32.7344Z" fill="white"/>
<path d="M441.877 32.7344C440.607 32.7344 439.549 33.7903 439.549 35.0574C439.549 36.3244 440.607 37.3803 441.877 37.3803C443.147 37.3803 444.205 36.3244 444.205 35.0574C443.993 33.5791 443.147 32.7344 441.877 32.7344Z" fill="white"/>
<path d="M425.371 32.5195C424.102 32.5195 423.043 33.5754 423.043 34.8425C423.043 36.1096 424.102 37.1655 425.371 37.1655C426.641 37.1655 427.699 36.1096 427.699 34.8425C427.699 33.5754 426.641 32.5195 425.371 32.5195Z" fill="white"/>
<path d="M409.074 32.5195C407.805 32.5195 406.747 33.5754 406.747 34.8425C406.747 36.1096 407.805 37.1655 409.074 37.1655C410.344 37.1655 411.402 36.1096 411.402 34.8425C411.402 33.5754 410.344 32.5195 409.074 32.5195Z" fill="white"/>
<path d="M392.78 32.5195C391.51 32.5195 390.452 33.5754 390.452 34.8425C390.452 36.1096 391.51 37.1655 392.78 37.1655C394.049 37.1655 395.107 36.1096 395.107 34.8425C395.107 33.5754 394.049 32.5195 392.78 32.5195Z" fill="white"/>
<path d="M376.274 32.5195C375.004 32.5195 373.946 33.5754 373.946 34.8425C373.946 36.1096 375.004 37.1655 376.274 37.1655C377.543 37.1655 378.602 36.1096 378.602 34.8425C378.602 33.5754 377.755 32.5195 376.274 32.5195Z" fill="white"/>
<path d="M359.979 32.5195C358.709 32.5195 357.651 33.5754 357.651 34.8425C357.651 36.1096 358.709 37.1655 359.979 37.1655C361.248 37.1655 362.307 36.1096 362.307 34.8425C362.307 33.5754 361.248 32.5195 359.979 32.5195Z" fill="white"/>
<path d="M343.682 32.5195C342.412 32.5195 341.354 33.5754 341.354 34.8425C341.354 36.1096 342.412 37.1655 343.682 37.1655C344.952 37.1655 346.01 36.1096 346.01 34.8425C346.01 33.5754 344.952 32.5195 343.682 32.5195Z" fill="white"/>
<path d="M327.387 32.5195C326.117 32.5195 325.059 33.5754 325.059 34.8425C325.059 36.1096 326.117 37.1655 327.387 37.1655C328.657 37.1655 329.715 36.1096 329.715 34.8425C329.503 33.5754 328.657 32.5195 327.387 32.5195Z" fill="white"/>
<path d="M310.881 32.5195C309.611 32.5195 308.553 33.5754 308.553 34.8425C308.553 36.1096 309.611 37.1655 310.881 37.1655C312.151 37.1655 313.209 36.1096 313.209 34.8425C313.209 33.5754 312.151 32.5195 310.881 32.5195Z" fill="white"/>
<path d="M294.586 32.5195C293.316 32.5195 292.258 33.5754 292.258 34.8425C292.258 36.1096 293.316 37.1655 294.586 37.1655C295.856 37.1655 296.914 36.1096 296.914 34.8425C296.914 33.5754 295.856 32.5195 294.586 32.5195Z" fill="white"/>
<path d="M278.29 32.7344C277.02 32.7344 275.962 33.7903 275.962 35.0574C275.962 36.3244 277.02 37.3803 278.29 37.3803C279.56 37.3803 280.406 36.3244 280.406 35.0574C280.406 33.7903 279.348 32.7344 278.29 32.7344Z" fill="white"/>
<path d="M259.666 34.8462C259.666 36.0125 260.613 36.958 261.782 36.958C262.951 36.958 263.898 36.0125 263.898 34.8462C263.898 33.6799 262.951 32.7344 261.782 32.7344C260.613 32.7344 259.666 33.6799 259.666 34.8462Z" fill="white"/>
<path d="M245.488 32.9453C244.43 32.9453 243.583 33.79 243.583 34.8459C243.583 35.9018 244.43 36.7466 245.488 36.7466C246.546 36.7466 247.393 35.9018 247.393 34.8459C247.393 33.79 246.546 32.9453 245.488 32.9453Z" fill="white"/>
<path d="M227.288 34.8459C227.288 35.8956 228.141 36.7466 229.193 36.7466C230.245 36.7466 231.098 35.8956 231.098 34.8459C231.098 33.7962 230.245 32.9453 229.193 32.9453C228.141 32.9453 227.288 33.7962 227.288 34.8459Z" fill="white"/>
<path d="M212.686 33.1563C211.628 33.1563 210.993 34.001 210.993 34.8457C210.993 35.9016 211.84 36.5351 212.686 36.5351C213.533 36.5351 214.379 35.6904 214.379 34.8457C214.591 34.001 213.745 33.1563 212.686 33.1563Z" fill="white"/>
<path d="M196.39 33.3672C195.543 33.3672 194.697 34.0007 194.697 34.8454C194.697 35.6902 195.332 36.5349 196.39 36.5349C197.237 36.5349 197.871 35.9014 197.871 34.8454C198.083 34.0007 197.237 33.3672 196.39 33.3672Z" fill="white"/>
<path d="M178.613 34.8454C178.613 35.6619 179.277 36.3237 180.095 36.3237C180.913 36.3237 181.576 35.6619 181.576 34.8454C181.576 34.029 180.913 33.3672 180.095 33.3672C179.277 33.3672 178.613 34.029 178.613 34.8454Z" fill="white"/>
<path d="M163.588 33.5781C162.953 33.5781 162.318 34.2117 162.318 34.8452C162.318 35.4787 162.953 36.1123 163.588 36.1123C164.223 36.1123 164.857 35.4787 164.857 34.8452C165.069 34.2117 164.434 33.5781 163.588 33.5781Z" fill="white"/>
<path d="M147.293 33.7891C146.658 33.7891 146.023 34.2114 146.023 35.0561C146.023 35.6897 146.658 36.3232 147.293 36.3232C147.928 36.3232 148.563 35.9009 148.563 35.0561C148.563 34.2114 147.928 33.7891 147.293 33.7891Z" fill="white"/>
<path d="M129.938 34.845C129.938 35.4281 130.412 35.9009 130.997 35.9009C131.581 35.9009 132.055 35.4281 132.055 34.845C132.055 34.2618 131.581 33.7891 130.997 33.7891C130.412 33.7891 129.938 34.2618 129.938 34.845Z" fill="white"/>
<path d="M114.702 34C114.279 34 113.856 34.4224 113.856 34.8447C113.856 35.2671 114.279 35.6894 114.702 35.6894C115.126 35.6894 115.549 35.2671 115.549 34.8447C115.549 34.4224 115.126 34 114.702 34Z" fill="white"/>
<path d="M98.1945 34C97.7712 34 97.348 34.4224 97.348 34.8447C97.348 35.2671 97.7712 35.6894 98.1945 35.6894C98.6177 35.6894 99.041 35.2671 99.041 34.8447C99.041 34.4224 98.6177 34 98.1945 34Z" fill="white"/>
<path d="M81.9002 34.2109C81.477 34.2109 81.2654 34.4221 81.2654 34.8445C81.2654 35.2668 81.477 35.478 81.9002 35.478C82.3235 35.478 82.5352 35.2668 82.5352 34.8445C82.5352 34.6333 82.3235 34.2109 81.9002 34.2109Z" fill="white"/>
<path d="M65.6034 34.4219C65.3918 34.4219 64.9685 34.6331 64.9685 35.0554C64.9685 35.2666 65.1802 35.6889 65.6034 35.6889C65.8151 35.6889 66.2383 35.4778 66.2383 35.0554C66.0267 34.6331 65.8151 34.4219 65.6034 34.4219Z" fill="white"/>
<path d="M48.6749 34.8442C48.6749 35.0775 48.8644 35.2666 49.0982 35.2666C49.332 35.2666 49.5215 35.0775 49.5215 34.8442C49.5215 34.611 49.332 34.4219 49.0982 34.4219C48.8644 34.4219 48.6749 34.611 48.6749 34.8442Z" fill="white"/>
<path d="M32.802 34.6328C32.5903 34.6328 32.5903 34.844 32.5903 34.844L32.802 35.0552C33.0136 35.0552 33.0137 34.844 33.0137 34.844C33.0137 34.844 33.0136 34.6328 32.802 34.6328Z" fill="white"/>
<path d="M16.5075 34.6328C16.2958 34.6328 16.2958 34.844 16.5075 34.6328C16.2958 34.844 16.5075 35.0552 16.5075 35.0552C16.5075 35.0552 16.7191 35.0552 16.5075 34.6328C16.7191 34.844 16.5075 34.6328 16.5075 34.6328Z" fill="white"/>
<path d="M-0.000793457 34.8438L-0.000793448 35.0549L0.210938 34.8438L-0.000793457 34.8438Z" fill="white"/>
<path d="M867.249 15.8398C865.767 15.8398 864.498 17.1069 864.498 18.5852C864.498 20.0634 865.767 21.3305 867.249 21.3305C868.73 21.3305 870 20.0634 870 18.5852C870 17.1069 868.73 15.8398 867.249 15.8398Z" fill="white"/>
<path d="M850.742 16.4727C849.473 16.4727 848.415 17.5286 848.415 18.7956C848.415 20.0627 849.473 21.1186 850.742 21.1186C852.012 21.1186 853.07 20.0627 853.07 18.7956C853.07 17.3174 852.012 16.4727 850.742 16.4727Z" fill="white"/>
<path d="M834.446 16.4727C833.176 16.4727 832.118 17.5286 832.118 18.7956C832.118 20.0627 833.176 21.1186 834.446 21.1186C835.715 21.1186 836.773 20.0627 836.773 18.7956C836.773 17.3174 835.715 16.4727 834.446 16.4727Z" fill="white"/>
<path d="M818.151 16.4727C816.881 16.4727 815.823 17.5286 815.823 18.7956C815.823 20.0627 816.881 21.1186 818.151 21.1186C819.42 21.1186 820.479 20.0627 820.479 18.7956C820.267 17.3174 819.42 16.4727 818.151 16.4727Z" fill="white"/>
<path d="M801.645 16.4727C800.375 16.4727 799.317 17.5286 799.317 18.7956C799.317 20.0627 800.375 21.1186 801.645 21.1186C802.915 21.1186 803.973 20.0627 803.973 18.7956C803.973 17.3174 802.915 16.4727 801.645 16.4727Z" fill="white"/>
<path d="M785.348 16.4727C784.078 16.4727 783.02 17.5286 783.02 18.7956C783.232 19.8515 784.078 20.9074 785.348 20.9074C786.618 20.9074 787.676 19.8515 787.676 18.5845C787.676 17.3174 786.618 16.4727 785.348 16.4727Z" fill="white"/>
<path d="M769.054 16.4727C767.784 16.4727 766.726 17.5286 766.726 18.7956C766.726 20.0627 767.784 21.1186 769.054 21.1186C770.323 21.1186 771.17 19.8515 771.17 18.5845C771.17 17.3174 770.323 16.4727 769.054 16.4727Z" fill="white"/>
<path d="M752.759 16.4727C751.489 16.4727 750.431 17.5286 750.431 18.7956C750.431 20.0627 751.489 21.1186 752.759 21.1186C754.028 21.1186 754.875 19.8515 754.875 18.5845C754.875 17.3174 753.817 16.4727 752.759 16.4727Z" fill="white"/>
<path d="M736.252 16.4727C734.982 16.4727 733.924 17.5286 733.924 18.7956C733.924 20.0627 734.982 21.1186 736.252 21.1186C737.522 21.1186 738.58 20.0627 738.58 18.7956C738.58 17.3174 737.522 16.4727 736.252 16.4727Z" fill="white"/>
<path d="M719.956 16.4727C718.686 16.4727 717.628 17.5286 717.628 18.7956C717.628 20.0627 718.686 21.1186 719.956 21.1186C721.226 21.1186 722.072 19.8515 722.072 18.5845C722.072 17.3174 721.226 16.4727 719.956 16.4727Z" fill="white"/>
<path d="M703.66 16.2617C702.391 16.2617 701.332 17.3176 701.332 18.5847C701.332 19.8518 702.391 20.9077 703.66 20.9077C704.93 20.9077 705.988 19.8518 705.988 18.5847C705.777 17.3176 704.93 16.2617 703.66 16.2617Z" fill="white"/>
<path d="M687.155 16.2617C685.885 16.2617 684.827 17.3176 684.827 18.5847C684.827 19.8518 685.885 20.9077 687.155 20.9077C688.424 20.9077 689.482 19.8518 689.482 18.5847C689.482 17.3176 688.424 16.2617 687.155 16.2617Z" fill="white"/>
<path d="M670.86 16.2617C669.59 16.2617 668.532 17.3176 668.532 18.5847C668.532 19.8518 669.59 20.9077 670.86 20.9077C672.129 20.9077 673.188 19.8518 673.188 18.5847C673.188 17.3176 672.129 16.2617 670.86 16.2617Z" fill="white"/>
<path d="M654.563 16.2617C653.293 16.2617 652.235 17.3176 652.235 18.5847C652.235 19.8518 653.293 20.9077 654.563 20.9077C655.832 20.9077 656.891 19.8518 656.891 18.5847C656.679 17.3176 655.832 16.2617 654.563 16.2617Z" fill="white"/>
<path d="M638.057 16.2617C636.787 16.2617 635.729 17.3176 635.729 18.5847C635.729 19.8518 636.787 20.9077 638.057 20.9077C639.327 20.9077 640.385 19.8518 640.385 18.5847C640.385 17.3176 639.327 16.2617 638.057 16.2617Z" fill="white"/>
<path d="M621.762 16.2617C620.492 16.2617 619.434 17.3176 619.434 18.5847C619.434 19.8518 620.492 20.9077 621.762 20.9077C623.032 20.9077 624.09 19.8518 624.09 18.5847C624.09 17.3176 623.032 16.2617 621.762 16.2617Z" fill="white"/>
<path d="M605.466 16.2617C604.196 16.2617 603.138 17.3176 603.138 18.5847C603.138 19.8518 604.196 20.9077 605.466 20.9077C606.736 20.9077 607.582 19.8518 607.582 18.5847C607.582 17.3176 606.736 16.2617 605.466 16.2617Z" fill="white"/>
<path d="M588.959 16.2617C587.689 16.2617 586.631 17.3176 586.631 18.5847C586.631 19.8518 587.689 20.9077 588.959 20.9077C590.229 20.9077 591.287 19.8518 591.287 18.5847C591.287 17.3176 590.229 16.2617 588.959 16.2617Z" fill="white"/>
<path d="M572.664 16.2617C571.395 16.2617 570.336 17.3176 570.336 18.5847C570.336 19.8518 571.395 20.9077 572.664 20.9077C573.934 20.9077 574.992 19.8518 574.992 18.5847C574.992 17.3176 573.934 16.2617 572.664 16.2617Z" fill="white"/>
<path d="M556.369 16.2617C555.1 16.2617 554.041 17.3176 554.041 18.5847C554.041 19.8518 555.1 20.9077 556.369 20.9077C557.639 20.9077 558.697 19.8518 558.697 18.5847C558.697 17.3176 557.639 16.2617 556.369 16.2617Z" fill="white"/>
<path d="M540.072 16.2617C538.803 16.2617 537.745 17.3176 537.745 18.5847C537.745 19.8518 538.803 20.9077 540.072 20.9077C541.342 20.9077 542.4 19.8518 542.4 18.5847C542.189 17.3176 541.131 16.2617 540.072 16.2617Z" fill="white"/>
<path d="M523.567 16.2617C522.297 16.2617 521.239 17.3176 521.239 18.5847C521.239 19.8518 522.297 20.9077 523.567 20.9077C524.836 20.9077 525.895 19.8518 525.895 18.5847C525.895 17.3176 524.836 16.2617 523.567 16.2617Z" fill="white"/>
<path d="M507.272 16.2617C506.002 16.2617 504.944 17.3176 504.944 18.5847C504.944 19.8518 506.002 20.9077 507.272 20.9077C508.541 20.9077 509.6 19.8518 509.6 18.5847C509.6 17.3176 508.541 16.2617 507.272 16.2617Z" fill="white"/>
<path d="M490.975 16.2617C489.705 16.2617 488.647 17.3176 488.647 18.5847C488.647 19.8518 489.705 20.9077 490.975 20.9077C492.245 20.9077 493.303 19.8518 493.303 18.5847C493.091 17.3176 492.245 16.2617 490.975 16.2617Z" fill="white"/>
<path d="M474.469 16.2617C473.199 16.2617 472.141 17.3176 472.141 18.5847C472.141 19.8518 473.199 20.9077 474.469 20.9077C475.739 20.9077 476.797 19.8518 476.797 18.5847C476.797 17.3176 475.739 16.2617 474.469 16.2617Z" fill="white"/>
<path d="M458.172 16.2617C456.902 16.2617 455.844 17.3176 455.844 18.5847C455.844 19.8518 456.902 20.9077 458.172 20.9077C459.442 20.9077 460.5 19.8518 460.5 18.5847C460.5 17.3176 459.442 16.2617 458.172 16.2617Z" fill="white"/>
<path d="M441.877 16.2617C440.607 16.2617 439.549 17.3176 439.549 18.5847C439.549 19.8518 440.607 20.9077 441.877 20.9077C443.147 20.9077 444.205 19.8518 444.205 18.5847C443.993 17.3176 443.147 16.2617 441.877 16.2617Z" fill="white"/>
<path d="M425.371 16.2617C424.102 16.2617 423.043 17.3176 423.043 18.5847C423.043 19.8518 424.102 20.9077 425.371 20.9077C426.641 20.9077 427.699 19.8518 427.699 18.5847C427.699 17.3176 426.641 16.2617 425.371 16.2617Z" fill="white"/>
<path d="M409.074 16.2617C407.805 16.2617 406.747 17.3176 406.747 18.5847C406.747 19.8518 407.805 20.9077 409.074 20.9077C410.344 20.9077 411.402 19.8518 411.402 18.5847C411.402 17.3176 410.344 16.2617 409.074 16.2617Z" fill="white"/>
<path d="M392.78 16.2617C391.51 16.2617 390.452 17.3176 390.452 18.5847C390.452 19.8518 391.51 20.9077 392.78 20.9077C394.049 20.9077 395.107 19.8518 395.107 18.5847C395.107 17.3176 394.049 16.2617 392.78 16.2617Z" fill="white"/>
<path d="M376.274 16.2617C375.004 16.2617 373.946 17.3176 373.946 18.5847C373.946 19.8518 375.004 20.9077 376.274 20.9077C377.543 20.9077 378.602 19.8518 378.602 18.5847C378.602 17.3176 377.755 16.2617 376.274 16.2617Z" fill="white"/>
<path d="M359.979 16.2617C358.709 16.2617 357.651 17.3176 357.651 18.5847C357.651 19.8518 358.709 20.9077 359.979 20.9077C361.248 20.9077 362.307 19.8518 362.307 18.5847C362.307 17.3176 361.248 16.2617 359.979 16.2617Z" fill="white"/>
<path d="M343.682 16.2617C342.412 16.2617 341.354 17.3176 341.354 18.5847C341.354 19.8518 342.412 20.9077 343.682 20.9077C344.952 20.9077 346.01 19.8518 346.01 18.5847C346.01 17.3176 344.952 16.2617 343.682 16.2617Z" fill="white"/>
<path d="M327.387 16.2617C326.117 16.2617 325.059 17.3176 325.059 18.5847C325.059 19.8518 326.117 20.9077 327.387 20.9077C328.657 20.9077 329.715 19.8518 329.715 18.5847C329.503 17.3176 328.657 16.2617 327.387 16.2617Z" fill="white"/>
<path d="M310.881 16.2617C309.611 16.2617 308.553 17.3176 308.553 18.5847C308.553 19.8518 309.611 20.9077 310.881 20.9077C312.151 20.9077 313.209 19.8518 313.209 18.5847C313.209 17.3176 312.151 16.2617 310.881 16.2617Z" fill="white"/>
<path d="M294.586 16.2617C293.316 16.2617 292.258 17.3176 292.258 18.5847C292.258 19.8518 293.316 20.9077 294.586 20.9077C295.856 20.9077 296.914 19.8518 296.914 18.5847C296.914 17.3176 295.856 16.2617 294.586 16.2617Z" fill="white"/>
<path d="M278.29 16.4727C277.02 16.4727 275.962 17.5286 275.962 18.7956C275.962 20.0627 277.02 21.1186 278.29 21.1186C279.56 21.1186 280.406 20.0627 280.406 18.7956C280.406 17.3174 279.348 16.4727 278.29 16.4727Z" fill="white"/>
<path d="M261.782 16.4727C260.724 16.4727 259.666 17.3174 259.666 18.5845C259.666 19.6404 260.512 20.6963 261.782 20.6963C262.84 20.6963 263.898 19.8515 263.898 18.5845C263.898 17.5286 263.052 16.4727 261.782 16.4727Z" fill="white"/>
<path d="M245.488 16.6836C244.43 16.6836 243.583 17.5283 243.583 18.5842C243.583 19.6401 244.43 20.4848 245.488 20.4848C246.546 20.4848 247.393 19.6401 247.393 18.5842C247.393 17.5283 246.546 16.6836 245.488 16.6836Z" fill="white"/>
<path d="M229.193 16.6836C228.135 16.6836 227.288 17.5283 227.288 18.5842C227.288 19.6401 228.135 20.4848 229.193 20.4848C230.251 20.4848 231.098 19.6401 231.098 18.5842C231.098 17.5283 230.251 16.6836 229.193 16.6836Z" fill="white"/>
<path d="M212.686 16.8945C211.628 16.8945 210.993 17.7393 210.993 18.584C210.993 19.4287 211.84 20.2734 212.686 20.2734C213.533 20.2734 214.379 19.4287 214.379 18.584C214.591 17.7393 213.745 16.8945 212.686 16.8945Z" fill="white"/>
<path d="M196.39 17.1055C195.543 17.1055 194.697 17.739 194.697 18.7949C194.697 19.6396 195.332 20.2732 196.39 20.2732C197.237 20.2732 197.871 19.6396 197.871 18.7949C198.083 17.739 197.237 17.1055 196.39 17.1055Z" fill="white"/>
<path d="M178.613 18.5837C178.613 19.4001 179.277 20.062 180.095 20.062C180.913 20.062 181.576 19.4001 181.576 18.5837C181.576 17.7673 180.913 17.1055 180.095 17.1055C179.277 17.1055 178.613 17.7673 178.613 18.5837Z" fill="white"/>
<path d="M163.588 17.3164C162.953 17.3164 162.318 17.9499 162.318 18.5835C162.318 19.217 162.953 19.8506 163.588 19.8506C164.223 19.8506 164.857 19.217 164.857 18.5835C165.069 17.9499 164.434 17.3164 163.588 17.3164Z" fill="white"/>
<path d="M147.293 17.3164C146.658 17.3164 146.023 17.9499 146.023 18.5835C146.023 19.217 146.658 19.8506 147.293 19.8506C147.928 19.8506 148.563 19.217 148.563 18.5835C148.563 17.9499 147.928 17.3164 147.293 17.3164Z" fill="white"/>
<path d="M129.938 18.5832C129.938 19.1664 130.412 19.6391 130.997 19.6391C131.581 19.6391 132.055 19.1664 132.055 18.5832C132.055 18.0001 131.581 17.5273 130.997 17.5273C130.412 17.5273 129.938 18.0001 129.938 18.5832Z" fill="white"/>
<path d="M114.702 17.7383C114.279 17.7383 113.856 18.1606 113.856 18.583C113.856 19.0054 114.279 19.4277 114.702 19.4277C115.126 19.4277 115.549 19.0054 115.549 18.583C115.549 18.1606 115.126 17.7383 114.702 17.7383Z" fill="white"/>
<path d="M98.1945 17.7383C97.7712 17.7383 97.348 18.1606 97.348 18.583C97.348 19.0054 97.7712 19.4277 98.1945 19.4277C98.6177 19.4277 99.041 19.0054 99.041 18.583C99.041 18.1606 98.6177 17.7383 98.1945 17.7383Z" fill="white"/>
<path d="M81.9002 17.9492C81.477 17.9492 81.2654 18.1604 81.2654 18.5828C81.2654 19.0051 81.477 19.2163 81.9002 19.2163C82.3235 19.2163 82.5352 19.0051 82.5352 18.5828C82.5352 18.1604 82.3235 17.9492 81.9002 17.9492Z" fill="white"/>
<path d="M65.6034 17.9492C65.3918 17.9492 64.9685 18.1604 64.9685 18.5828C64.9685 18.7939 65.1802 19.2163 65.6034 19.2163C65.8151 19.2163 66.2383 19.0051 66.2383 18.5828C66.0267 18.3716 65.8151 17.9492 65.6034 17.9492Z" fill="white"/>
<path d="M49.0982 18.1602C48.8865 18.1602 48.6749 18.3713 48.6749 18.5825C48.6749 18.7937 48.8865 19.0049 49.0982 19.0049C49.3098 19.0049 49.5215 18.7937 49.5215 18.5825C49.5215 18.3713 49.3098 18.1602 49.0982 18.1602Z" fill="white"/>
<path d="M32.802 18.3711C32.5903 18.3711 32.5903 18.5823 32.5903 18.5823L32.802 18.7935C33.0136 18.7935 33.0137 18.5823 33.0137 18.5823C33.0137 18.5823 33.0136 18.3711 32.802 18.3711Z" fill="white"/>
<path d="M16.5075 18.3711C16.2958 18.3711 16.2958 18.5823 16.5075 18.3711C16.2958 18.5823 16.5075 18.7935 16.5075 18.7935C16.5075 18.7935 16.7191 18.5823 16.5075 18.3711C16.7191 18.5823 16.5075 18.3711 16.5075 18.3711Z" fill="white"/>
<path d="M864.92 2.32298C864.92 3.60593 865.963 4.64596 867.248 4.64596C868.534 4.64596 869.576 3.60593 869.576 2.32298C869.576 1.04003 868.534 4.55576e-08 867.248 1.01756e-07C865.963 1.57954e-07 864.92 1.04003 864.92 2.32298Z" fill="white"/>
<path d="M850.742 0.421875C849.684 0.421875 848.837 1.2666 848.837 2.3225C848.837 3.3784 849.684 4.22312 850.742 4.22312C851.8 4.22312 852.646 3.3784 852.646 2.3225C852.646 1.2666 851.8 0.421875 850.742 0.421875Z" fill="white"/>
<path d="M834.447 0.421875C833.389 0.421875 832.542 1.2666 832.542 2.3225C832.542 3.3784 833.389 4.22312 834.447 4.22312C835.505 4.22312 836.352 3.3784 836.352 2.3225C836.352 1.2666 835.505 0.421875 834.447 0.421875Z" fill="white"/>
<path d="M818.152 0.421875C817.094 0.421875 816.247 1.2666 816.247 2.3225C816.247 3.3784 817.094 4.22312 818.152 4.22312C819.21 4.22312 820.057 3.3784 820.057 2.3225C820.057 1.2666 819.21 0.421875 818.152 0.421875Z" fill="white"/>
<path d="M801.644 0.421875C800.586 0.421875 799.74 1.2666 799.74 2.3225C799.74 3.3784 800.586 4.22312 801.644 4.22312C802.702 4.22312 803.549 3.3784 803.549 2.3225C803.549 1.2666 802.702 0.421875 801.644 0.421875Z" fill="white"/>
<path d="M785.349 0.421875C784.291 0.421875 783.445 1.2666 783.445 2.3225C783.445 3.3784 784.291 4.22312 785.349 4.22312C786.407 4.22312 787.254 3.3784 787.254 2.3225C787.254 1.2666 786.407 0.421875 785.349 0.421875Z" fill="white"/>
<path d="M769.054 0.421875C767.996 0.421875 767.15 1.2666 767.15 2.3225C767.15 3.3784 767.996 4.22312 769.054 4.22312C770.112 4.22312 770.959 3.3784 770.959 2.3225C770.959 1.2666 770.112 0.421875 769.054 0.421875Z" fill="white"/>
<path d="M752.757 0.421875C751.699 0.421875 750.853 1.2666 750.853 2.3225C750.853 3.3784 751.699 4.22312 752.757 4.22312C753.816 4.22312 754.662 3.3784 754.662 2.3225C754.45 1.2666 753.604 0.421875 752.757 0.421875Z" fill="white"/>
<path d="M736.252 0.421875C735.193 0.421875 734.347 1.2666 734.347 2.3225C734.347 3.3784 735.193 4.22312 736.252 4.22312C737.31 4.22312 738.156 3.3784 738.156 2.3225C738.156 1.2666 737.31 0.421875 736.252 0.421875Z" fill="white"/>
<path d="M719.957 0.421875C718.899 0.421875 718.052 1.2666 718.052 2.3225C718.052 3.3784 718.899 4.22312 719.957 4.22312C721.015 4.01194 721.861 3.16722 721.861 2.3225C721.861 1.2666 721.015 0.421875 719.957 0.421875Z" fill="white"/>
<path d="M703.66 0.421875C702.602 0.421875 701.756 1.2666 701.756 2.3225C701.756 3.3784 702.602 4.22312 703.66 4.22312C704.719 4.22312 705.354 3.3784 705.354 2.3225C705.354 1.2666 704.507 0.421875 703.66 0.421875Z" fill="white"/>
<path d="M687.154 0.421875C686.096 0.421875 685.249 1.2666 685.249 2.3225C685.249 3.3784 686.096 4.22312 687.154 4.22312C688.212 4.22312 689.059 3.3784 689.059 2.3225C689.059 1.2666 688.212 0.421875 687.154 0.421875Z" fill="white"/>
<path d="M670.859 0.421875C669.801 0.421875 668.954 1.2666 668.954 2.3225C668.954 3.3784 669.801 4.22312 670.859 4.22312C671.917 4.22312 672.764 3.3784 672.764 2.3225C672.764 1.2666 671.917 0.421875 670.859 0.421875Z" fill="white"/>
<path d="M654.564 0.421875C653.506 0.421875 652.659 1.2666 652.659 2.3225C652.659 3.3784 653.506 4.22312 654.564 4.22312C655.622 4.22312 656.469 3.3784 656.469 2.3225C656.257 1.2666 655.411 0.421875 654.564 0.421875Z" fill="white"/>
<path d="M638.056 0.421875C636.998 0.421875 636.152 1.2666 636.152 2.3225C636.152 3.3784 636.998 4.22312 638.056 4.22312C639.114 4.22312 639.961 3.3784 639.961 2.3225C639.961 1.2666 639.114 0.421875 638.056 0.421875Z" fill="white"/>
<path d="M620.069 2.32225C620.069 3.25531 620.827 4.01169 621.762 4.01169C622.697 4.01169 623.455 3.25531 623.455 2.32225C623.455 1.3892 622.697 0.632813 621.762 0.632813C620.827 0.632813 620.069 1.3892 620.069 2.32225Z" fill="white"/>
<path d="M603.772 2.32225C603.772 3.25531 604.53 4.01169 605.465 4.01169C606.4 4.01169 607.158 3.25531 607.158 2.32225C607.158 1.3892 606.4 0.632813 605.465 0.632813C604.53 0.632813 603.772 1.3892 603.772 2.32225Z" fill="white"/>
<path d="M587.266 2.32225C587.266 3.25531 588.024 4.01169 588.959 4.01169C589.894 4.01169 590.652 3.25531 590.652 2.32225C590.652 1.3892 589.894 0.632813 588.959 0.632813C588.024 0.632813 587.266 1.3892 587.266 2.32225Z" fill="white"/>
<path d="M570.971 2.32225C570.971 3.25531 571.729 4.01169 572.664 4.01169C573.599 4.01169 574.357 3.25531 574.357 2.32225C574.357 1.3892 573.599 0.632813 572.664 0.632813C571.729 0.632813 570.971 1.3892 570.971 2.32225Z" fill="white"/>
<path d="M556.369 0.632813C555.311 0.632813 554.676 1.47753 554.676 2.32225C554.676 3.16697 555.523 4.01169 556.369 4.01169C557.216 4.01169 558.063 3.16697 558.063 2.32225C558.063 1.47753 557.216 0.632813 556.369 0.632813Z" fill="white"/>
<path d="M540.073 0.632813C539.015 0.632813 538.38 1.47753 538.38 2.32225C538.38 3.16697 539.226 4.01169 540.073 4.01169C540.919 4.01169 541.766 3.16697 541.766 2.32225C541.766 1.47753 540.919 0.632813 540.073 0.632813Z" fill="white"/>
<path d="M523.567 0.632813C522.509 0.632813 521.874 1.47753 521.874 2.32225C521.874 3.16697 522.72 4.01169 523.567 4.01169C524.413 4.01169 525.26 3.16697 525.26 2.32225C525.26 1.47753 524.625 0.632813 523.567 0.632813Z" fill="white"/>
<path d="M507.27 0.632813C506.212 0.632813 505.577 1.47753 505.577 2.32225C505.577 3.16697 506.423 4.01169 507.27 4.01169C508.116 4.01169 508.963 3.16697 508.963 2.32225C508.963 1.47753 508.116 0.632813 507.27 0.632813Z" fill="white"/>
<path d="M489.282 2.32225C489.282 3.25531 490.04 4.01169 490.975 4.01169C491.91 4.01169 492.668 3.25531 492.668 2.32225C492.668 1.3892 491.91 0.632813 490.975 0.632813C490.04 0.632813 489.282 1.3892 489.282 2.32225Z" fill="white"/>
<path d="M472.776 2.32225C472.776 3.25531 473.534 4.01169 474.469 4.01169C475.404 4.01169 476.162 3.25531 476.162 2.32225C476.162 1.3892 475.404 0.632813 474.469 0.632813C473.534 0.632813 472.776 1.3892 472.776 2.32225Z" fill="white"/>
<path d="M458.172 0.632813C457.326 0.632813 456.479 1.47753 456.479 2.32225C456.479 3.16697 457.326 4.01169 458.172 4.01169C459.019 4.01169 459.865 3.16697 459.865 2.32225C459.865 1.47753 459.019 0.632813 458.172 0.632813Z" fill="white"/>
<path d="M441.877 0.632813C441.031 0.632813 440.184 1.47753 440.184 2.32225C440.184 3.16697 441.031 4.01169 441.877 4.01169C442.724 4.01169 443.57 3.16697 443.57 2.32225C443.57 1.47753 442.724 0.632813 441.877 0.632813Z" fill="white"/>
<path d="M423.678 2.32225C423.678 3.25531 424.436 4.01169 425.371 4.01169C426.306 4.01169 427.064 3.25531 427.064 2.32225C427.064 1.3892 426.306 0.632813 425.371 0.632813C424.436 0.632813 423.678 1.3892 423.678 2.32225Z" fill="white"/>
<path d="M407.382 2.32225C407.382 3.25531 408.14 4.01169 409.075 4.01169C410.01 4.01169 410.768 3.25531 410.768 2.32225C410.768 1.3892 410.01 0.632813 409.075 0.632813C408.14 0.632813 407.382 1.3892 407.382 2.32225Z" fill="white"/>
<path d="M392.78 0.632813C391.933 0.632813 391.087 1.26635 391.087 2.32225C391.087 3.37815 391.721 4.01169 392.78 4.01169C393.626 4.01169 394.473 3.37815 394.473 2.32225C394.473 1.26635 393.626 0.632813 392.78 0.632813Z" fill="white"/>
<path d="M376.274 0.632813C375.427 0.632813 374.581 1.26635 374.581 2.32225C374.581 3.37815 375.216 4.01169 376.274 4.01169C377.12 4.01169 377.967 3.37815 377.967 2.32225C377.967 1.26635 377.332 0.632813 376.274 0.632813Z" fill="white"/>
<path d="M358.286 2.32225C358.286 3.25531 359.044 4.01169 359.979 4.01169C360.914 4.01169 361.672 3.25531 361.672 2.32225C361.672 1.3892 360.914 0.632813 359.979 0.632813C359.044 0.632813 358.286 1.3892 358.286 2.32225Z" fill="white"/>
<path d="M341.989 2.32225C341.989 3.25531 342.747 4.01169 343.682 4.01169C344.617 4.01169 345.375 3.25531 345.375 2.32225C345.375 1.3892 344.617 0.632813 343.682 0.632813C342.747 0.632813 341.989 1.3892 341.989 2.32225Z" fill="white"/>
<path d="M327.387 0.632813C326.541 0.632813 325.906 1.26635 325.906 2.32225C325.906 3.16697 326.541 4.01169 327.387 4.01169C328.234 4.01169 329.08 3.37815 329.08 2.32225C328.868 1.47753 328.234 0.632813 327.387 0.632813Z" fill="white"/>
<path d="M310.881 0.632813C310.035 0.632813 309.4 1.26635 309.4 2.32225C309.4 3.16697 310.035 4.01169 310.881 4.01169C311.728 4.01169 312.574 3.37815 312.574 2.32225C312.574 1.47753 311.728 0.632813 310.881 0.632813Z" fill="white"/>
<path d="M294.585 0.632813C293.739 0.632813 292.892 1.26635 292.892 2.32225C292.892 3.16697 293.527 4.01169 294.585 4.01169C295.432 4.01169 296.066 3.37815 296.066 2.32225C296.066 1.47753 295.432 0.632813 294.585 0.632813Z" fill="white"/>
<path d="M278.29 0.632813C277.444 0.632813 276.809 1.26635 276.809 2.11107C276.809 2.95579 277.444 3.58933 278.29 3.58933C279.137 3.58933 279.771 2.95579 279.771 2.11107C279.771 1.47753 279.137 0.632813 278.29 0.632813Z" fill="white"/>
<path d="M260.301 2.32201C260.301 3.13843 260.964 3.80027 261.782 3.80027C262.6 3.80027 263.264 3.13843 263.264 2.32201C263.264 1.50559 262.6 0.84375 261.782 0.84375C260.964 0.84375 260.301 1.50559 260.301 2.32201Z" fill="white"/>
<path d="M244.218 2.32177C244.218 3.02156 244.787 3.58885 245.488 3.58885C246.189 3.58885 246.758 3.02156 246.758 2.32177C246.758 1.62198 246.189 1.05469 245.488 1.05469C244.787 1.05469 244.218 1.62198 244.218 2.32177Z" fill="white"/>
<path d="M229.193 1.05469C228.558 1.05469 227.923 1.68823 227.923 2.32177C227.923 2.95531 228.558 3.58885 229.193 3.58885C229.828 3.58885 230.463 2.95531 230.463 2.32177C230.463 1.47705 229.828 1.05469 229.193 1.05469Z" fill="white"/>
<path d="M212.685 1.05469C212.05 1.05469 211.416 1.47705 211.416 2.32177C211.416 3.16649 211.839 3.58885 212.685 3.58885C213.532 3.58885 213.955 2.95531 213.955 2.32177C213.955 1.68823 213.32 1.05469 212.685 1.05469Z" fill="white"/>
<path d="M196.391 1.26563C195.756 1.26563 195.333 1.68799 195.333 2.32153C195.333 2.95507 195.756 3.37743 196.391 3.37743C197.026 3.37743 197.449 2.95507 197.449 2.32153C197.449 1.68799 197.026 1.26563 196.391 1.26563Z" fill="white"/>
<path d="M180.094 1.26563C179.459 1.26563 179.036 1.68799 179.036 2.32153C179.036 2.95507 179.459 3.37743 180.094 3.37743C180.729 3.37743 181.152 2.95507 181.152 2.32153C180.941 1.68799 180.517 1.26563 180.094 1.26563Z" fill="white"/>
<path d="M163.587 1.26563C163.164 1.26563 162.741 1.68799 162.741 2.11035C162.741 2.53271 163.164 2.95507 163.587 2.95507C164.01 2.95507 164.434 2.53271 164.434 2.11035C164.434 1.68799 164.222 1.26563 163.587 1.26563Z" fill="white"/>
<path d="M146.446 2.32128C146.446 2.78781 146.825 3.166 147.292 3.166C147.76 3.166 148.139 2.78781 148.139 2.32128C148.139 1.85476 147.76 1.47656 147.292 1.47656C146.825 1.47656 146.446 1.85476 146.446 2.32128Z" fill="white"/>
<path d="M130.363 2.32495C130.363 2.67484 130.647 2.95849 130.998 2.95849C131.349 2.95849 131.633 2.67484 131.633 2.32495C131.633 1.97505 131.349 1.69141 130.998 1.69141C130.647 1.69141 130.363 1.97505 130.363 2.32495Z" fill="white"/>
<path d="M114.066 2.32495C114.066 2.67484 114.351 2.95849 114.701 2.95849C115.052 2.95849 115.336 2.67484 115.336 2.32495C115.336 1.97505 115.052 1.69141 114.701 1.69141C114.351 1.69141 114.066 1.97505 114.066 2.32495Z" fill="white"/>
<path d="M98.1951 1.69141C97.9835 1.69141 97.5602 1.90259 97.5602 2.32495C97.5602 2.74731 97.7719 2.95849 98.1951 2.95849C98.4068 2.95849 98.8301 2.74731 98.8301 2.32495C98.8301 1.90259 98.6184 1.69141 98.1951 1.69141Z" fill="white"/>
<path d="M81.899 1.90234C81.6873 1.90234 81.4758 2.11352 81.4758 2.3247C81.4758 2.53588 81.6873 2.74706 81.899 2.74706C82.1106 2.74706 82.3223 2.53588 82.3223 2.3247C82.3223 2.11352 82.1106 1.90234 81.899 1.90234Z" fill="white"/>
<path d="M65.6048 1.90234C65.3932 1.90234 65.1815 2.11352 65.1815 2.3247C65.1815 2.53588 65.3932 2.74706 65.6048 2.74706C65.8164 2.53588 65.8164 2.53588 65.8164 2.3247C65.8164 2.11352 65.8164 1.90234 65.6048 1.90234Z" fill="white"/>
<path d="M49.0972 1.90234C48.8856 1.90234 48.8856 2.11352 48.8856 2.11352C48.8856 2.3247 49.0972 2.3247 49.0972 2.3247L49.3088 2.11352C49.5205 2.11352 49.3088 1.90234 49.0972 1.90234Z" fill="white"/>
<path d="M32.8024 2.11328C32.8024 2.11328 32.5908 2.11328 32.8024 2.11328C32.5908 2.32446 32.8024 2.53564 32.8024 2.53564C32.8024 2.53564 33.0141 2.32446 32.8024 2.11328C33.0141 2.11328 32.8024 2.11328 32.8024 2.11328Z" fill="white"/>
<path d="M16.5059 2.11328L16.2943 2.32446L16.5059 2.32446L16.5059 2.11328Z" fill="white"/>
</g>
<defs>
<clipPath id="clip0">
<rect width="102" height="870" fill="white" transform="translate(870) rotate(90)"/>
</clipPath>
</defs>
</svg>
