<svg width="870" height="102" viewBox="0 0 870 102" fill="none" xmlns="http://www.w3.org/2000/svg">
<g opacity="0.05" clip-path="url(#clip0)">
<path d="M2.75035 98.4102C3.80849 98.4102 4.655 99.2549 4.655 100.311C4.655 101.367 3.80849 102.211 2.75035 102.211C1.69221 102.211 0.845703 101.367 0.845703 100.311C1.05733 99.2549 1.90384 98.4102 2.75035 98.4102Z" fill="white"/>
<path d="M20.7401 100.31C20.7401 101.127 20.0769 101.789 19.2587 101.789C18.4406 101.789 17.7773 101.127 17.7773 100.31C17.7773 99.4939 18.4406 98.832 19.2587 98.832C20.0769 98.832 20.7401 99.4939 20.7401 100.31Z" fill="white"/>
<path d="M37.035 100.31C37.035 101.127 36.3718 101.789 35.5537 101.789C34.7355 101.789 34.0723 101.127 34.0723 100.31C34.0723 99.4939 34.7355 98.832 35.5537 98.832C36.3718 98.832 37.035 99.4939 37.035 100.31Z" fill="white"/>
<path d="M53.33 100.31C53.33 101.127 52.6667 101.789 51.8486 101.789C51.0304 101.789 50.3672 101.127 50.3672 100.31C50.3672 99.4939 51.0304 98.832 51.8486 98.832C52.6667 98.832 53.33 99.4939 53.33 100.31Z" fill="white"/>
<path d="M69.8378 100.31C69.8378 101.127 69.1745 101.789 68.3564 101.789C67.5382 101.789 66.875 101.127 66.875 100.31C66.875 99.4939 67.5382 98.832 68.3564 98.832C69.1745 98.832 69.8378 99.4939 69.8378 100.31Z" fill="white"/>
<path d="M86.1327 100.31C86.1327 101.127 85.4695 101.789 84.6513 101.789C83.8332 101.789 83.1699 101.127 83.1699 100.31C83.1699 99.4939 83.8332 98.832 84.6513 98.832C85.4695 98.832 86.1327 99.4939 86.1327 100.31Z" fill="white"/>
<path d="M102.428 100.31C102.428 101.127 101.764 101.789 100.946 101.789C100.128 101.789 99.4648 101.127 99.4648 100.31C99.4648 99.4939 100.128 98.832 100.946 98.832C101.764 98.832 102.428 99.4939 102.428 100.31Z" fill="white"/>
<path d="M118.723 100.31C118.723 101.127 118.059 101.789 117.241 101.789C116.423 101.789 115.76 101.127 115.76 100.31C115.76 99.4939 116.423 98.832 117.241 98.832C118.059 98.832 118.723 99.4939 118.723 100.31Z" fill="white"/>
<path d="M135.23 100.31C135.23 101.127 134.567 101.789 133.749 101.789C132.931 101.789 132.268 101.127 132.268 100.31C132.268 99.4939 132.931 98.832 133.749 98.832C134.567 98.832 135.23 99.4939 135.23 100.31Z" fill="white"/>
<path d="M151.525 100.31C151.525 101.127 150.862 101.789 150.044 101.789C149.226 101.789 148.562 101.127 148.562 100.31C148.562 99.4939 149.226 98.832 150.044 98.832C150.862 98.832 151.525 99.4939 151.525 100.31Z" fill="white"/>
<path d="M166.339 98.6211C167.185 98.6211 167.82 99.2546 167.82 100.099C167.82 100.944 167.185 101.578 166.339 101.578C165.492 101.578 164.857 100.944 164.857 100.099C164.857 99.4658 165.492 98.6211 166.339 98.6211Z" fill="white"/>
<path d="M182.847 98.6211C183.693 98.6211 184.328 99.2546 184.328 100.099C184.328 100.944 183.693 101.578 182.847 101.578C182 101.578 181.365 100.944 181.365 100.099C181.365 99.4658 182 98.6211 182.847 98.6211Z" fill="white"/>
<path d="M199.142 98.6211C199.988 98.6211 200.623 99.2546 200.623 100.099C200.623 100.944 199.988 101.578 199.142 101.578C198.295 101.578 197.66 100.944 197.66 100.099C197.66 99.4658 198.295 98.6211 199.142 98.6211Z" fill="white"/>
<path d="M215.436 98.6211C216.283 98.6211 216.918 99.2546 216.918 100.099C216.918 100.944 216.283 101.578 215.436 101.578C214.59 101.578 213.955 100.944 213.955 100.099C213.955 99.4658 214.59 98.6211 215.436 98.6211Z" fill="white"/>
<path d="M231.944 98.6211C232.791 98.6211 233.426 99.2546 233.426 100.099C233.426 100.944 232.791 101.578 231.944 101.578C231.098 101.578 230.463 100.944 230.463 100.099C230.463 99.4658 231.098 98.6211 231.944 98.6211Z" fill="white"/>
<path d="M248.239 98.6211C249.086 98.6211 249.721 99.2546 249.721 100.099C249.721 100.944 249.086 101.578 248.239 101.578C247.393 101.578 246.758 100.944 246.758 100.099C246.758 99.4658 247.393 98.6211 248.239 98.6211Z" fill="white"/>
<path d="M264.534 98.6211C265.381 98.6211 266.016 99.2546 266.016 100.099C266.016 100.944 265.381 101.578 264.534 101.578C263.688 101.578 263.053 100.944 263.053 100.099C263.053 99.4658 263.688 98.6211 264.534 98.6211Z" fill="white"/>
<path d="M281.042 98.6211C281.888 98.6211 282.523 99.2546 282.523 100.099C282.523 100.944 281.888 101.578 281.042 101.578C280.195 101.578 279.56 100.944 279.56 100.099C279.349 99.4658 280.195 98.6211 281.042 98.6211Z" fill="white"/>
<path d="M297.337 98.6211C298.183 98.6211 298.818 99.2546 298.818 100.099C298.818 100.944 298.183 101.578 297.337 101.578C296.49 101.578 295.855 100.944 295.855 100.099C295.855 99.4658 296.49 98.6211 297.337 98.6211Z" fill="white"/>
<path d="M313.632 98.6211C314.478 98.6211 315.113 99.2546 315.113 100.099C315.113 100.944 314.478 101.578 313.632 101.578C312.785 101.578 312.15 100.944 312.15 100.099C312.15 99.4658 312.785 98.6211 313.632 98.6211Z" fill="white"/>
<path d="M329.927 98.6211C330.773 98.6211 331.408 99.2546 331.408 100.099C331.408 100.944 330.773 101.578 329.927 101.578C329.08 101.578 328.445 100.944 328.445 100.099C328.445 99.4658 329.292 98.6211 329.927 98.6211Z" fill="white"/>
<path d="M346.435 98.6211C347.281 98.6211 347.916 99.2546 347.916 100.099C347.916 100.944 347.281 101.578 346.435 101.578C345.588 101.578 344.953 100.944 344.953 100.099C344.953 99.4658 345.588 98.6211 346.435 98.6211Z" fill="white"/>
<path d="M362.729 98.6211C363.576 98.6211 364.211 99.2546 364.211 100.099C364.211 100.944 363.576 101.578 362.729 101.578C361.883 101.578 361.248 100.944 361.248 100.099C361.248 99.4658 361.883 98.6211 362.729 98.6211Z" fill="white"/>
<path d="M379.024 98.6211C379.871 98.6211 380.506 99.2546 380.506 100.099C380.506 100.944 379.871 101.578 379.024 101.578C378.178 101.578 377.543 100.944 377.543 100.099C377.543 99.4658 378.178 98.6211 379.024 98.6211Z" fill="white"/>
<path d="M395.532 98.6211C396.379 98.6211 397.014 99.2546 397.014 100.099C397.014 100.944 396.379 101.578 395.532 101.578C394.686 101.578 394.051 100.944 394.051 100.099C394.051 99.4658 394.686 98.6211 395.532 98.6211Z" fill="white"/>
<path d="M411.827 98.6211C412.674 98.6211 413.308 99.2546 413.308 100.099C413.308 100.944 412.674 101.578 411.827 101.578C410.981 101.578 410.346 100.944 410.346 100.099C410.346 99.4658 410.981 98.6211 411.827 98.6211Z" fill="white"/>
<path d="M428.122 98.6211C428.969 98.6211 429.603 99.2546 429.603 100.099C429.603 100.944 428.969 101.578 428.122 101.578C427.276 101.578 426.641 100.944 426.641 100.099C426.641 99.4658 427.276 98.6211 428.122 98.6211Z" fill="white"/>
<path d="M444.63 98.6211C445.476 98.6211 446.111 99.2546 446.111 100.099C446.111 100.944 445.476 101.578 444.63 101.578C443.783 101.578 443.148 100.944 443.148 100.099C443.148 99.4658 443.783 98.6211 444.63 98.6211Z" fill="white"/>
<path d="M460.925 98.6211C461.771 98.6211 462.406 99.2546 462.406 100.099C462.406 100.944 461.771 101.578 460.925 101.578C460.078 101.578 459.443 100.944 459.443 100.099C459.443 99.4658 460.078 98.6211 460.925 98.6211Z" fill="white"/>
<path d="M477.22 98.6211C478.066 98.6211 478.701 99.2546 478.701 100.099C478.701 100.944 478.066 101.578 477.22 101.578C476.373 101.578 475.738 100.944 475.738 100.099C475.738 99.4658 476.373 98.6211 477.22 98.6211Z" fill="white"/>
<path d="M493.727 98.6211C494.574 98.6211 495.209 99.2546 495.209 100.099C495.209 100.944 494.574 101.578 493.727 101.578C492.881 101.578 492.246 100.944 492.246 100.099C492.034 99.4658 492.881 98.6211 493.727 98.6211Z" fill="white"/>
<path d="M510.022 98.6211C510.869 98.6211 511.504 99.2546 511.504 100.099C511.504 100.944 510.869 101.578 510.022 101.578C509.176 101.578 508.541 100.944 508.541 100.099C508.541 99.4658 509.176 98.6211 510.022 98.6211Z" fill="white"/>
<path d="M526.317 98.6211C527.164 98.6211 527.799 99.2546 527.799 100.099C527.799 100.944 527.164 101.578 526.317 101.578C525.471 101.578 524.836 100.944 524.836 100.099C524.836 99.4658 525.471 98.6211 526.317 98.6211Z" fill="white"/>
<path d="M542.612 98.6211C543.459 98.6211 544.094 99.2546 544.094 100.099C544.094 100.944 543.459 101.578 542.612 101.578C541.766 101.578 541.131 100.944 541.131 100.099C541.131 99.4658 541.977 98.6211 542.612 98.6211Z" fill="white"/>
<path d="M559.12 98.6211C559.967 98.6211 560.601 99.2546 560.601 100.099C560.601 100.944 559.967 101.578 559.12 101.578C558.274 101.578 557.639 100.944 557.639 100.099C557.639 99.4658 558.274 98.6211 559.12 98.6211Z" fill="white"/>
<path d="M575.415 98.6211C576.261 98.6211 576.896 99.2546 576.896 100.099C576.896 100.944 576.261 101.578 575.415 101.578C574.568 101.578 573.934 100.944 573.934 100.099C573.934 99.4658 574.568 98.6211 575.415 98.6211Z" fill="white"/>
<path d="M593.191 100.31C593.191 101.127 592.528 101.789 591.71 101.789C590.892 101.789 590.229 101.127 590.229 100.31C590.229 99.4939 590.892 98.832 591.71 98.832C592.528 98.832 593.191 99.4939 593.191 100.31Z" fill="white"/>
<path d="M608.217 98.832C609.064 98.832 609.487 99.4656 609.487 100.099C609.487 100.944 608.852 101.366 608.217 101.366C607.371 101.366 606.947 100.733 606.947 100.099C606.736 99.4656 607.371 98.832 608.217 98.832Z" fill="white"/>
<path d="M624.512 98.832C625.147 98.832 625.782 99.4656 625.782 100.099C625.782 100.733 625.147 101.366 624.512 101.366C623.877 101.366 623.242 100.733 623.242 100.099C623.242 99.4656 623.877 98.832 624.512 98.832Z" fill="white"/>
<path d="M640.807 99.043C641.442 99.043 642.077 99.6765 642.077 100.31C642.077 100.944 641.653 101.577 640.807 101.577C640.172 101.577 639.537 101.155 639.537 100.31C639.749 99.4653 640.172 99.043 640.807 99.043Z" fill="white"/>
<path d="M658.372 100.312C658.372 100.895 657.898 101.368 657.314 101.368C656.73 101.368 656.256 100.895 656.256 100.312C656.256 99.7286 656.73 99.2559 657.314 99.2559C657.898 99.2559 658.372 99.7286 658.372 100.312Z" fill="white"/>
<path d="M674.667 100.312C674.667 100.895 674.193 101.368 673.609 101.368C673.025 101.368 672.551 100.895 672.551 100.312C672.551 99.7286 673.025 99.2559 673.609 99.2559C674.193 99.2559 674.667 99.7286 674.667 100.312Z" fill="white"/>
<path d="M689.905 99.2559C690.328 99.2559 690.963 99.6782 690.963 100.312C690.963 100.734 690.54 101.368 689.905 101.368C689.482 101.368 689.059 100.945 689.059 100.312C689.059 99.6782 689.482 99.2559 689.905 99.2559Z" fill="white"/>
<path d="M706.411 99.2559C706.835 99.2559 707.258 99.6782 707.258 100.101C707.258 100.523 706.835 100.945 706.411 100.945C705.988 100.945 705.565 100.523 705.565 100.101C705.353 99.6782 705.776 99.2559 706.411 99.2559Z" fill="white"/>
<path d="M722.708 99.4668C723.131 99.4668 723.554 99.8892 723.554 100.312C723.554 100.734 723.131 101.156 722.708 101.156C722.285 101.156 721.861 100.734 721.861 100.312C721.861 99.8892 722.285 99.4668 722.708 99.4668Z" fill="white"/>
<path d="M739.002 99.4668C739.425 99.4668 739.637 99.678 739.637 100.1C739.637 100.523 739.425 100.734 739.002 100.734C738.579 100.734 738.367 100.523 738.367 100.1C738.367 99.8892 738.579 99.4668 739.002 99.4668Z" fill="white"/>
<path d="M755.299 99.6758C755.722 99.6758 755.934 99.887 755.934 100.309C755.934 100.732 755.722 100.943 755.299 100.943C754.876 100.943 754.664 100.732 754.664 100.309C754.876 99.887 755.087 99.6758 755.299 99.6758Z" fill="white"/>
<path d="M771.805 99.6758C772.017 99.6758 772.228 99.887 772.228 100.098C772.228 100.309 772.017 100.521 771.805 100.521C771.594 100.521 771.382 100.309 771.382 100.098C771.17 99.887 771.382 99.6758 771.805 99.6758Z" fill="white"/>
<path d="M788.524 100.311C788.524 100.544 788.335 100.733 788.101 100.733C787.867 100.733 787.678 100.544 787.678 100.311C787.678 100.078 787.867 99.8887 788.101 99.8887C788.335 99.8887 788.524 100.078 788.524 100.311Z" fill="white"/>
<path d="M804.395 99.8887C804.607 99.8887 804.818 100.1 804.818 100.311C804.818 100.522 804.607 100.733 804.395 100.733C804.184 100.522 804.184 100.522 804.184 100.311C804.184 100.1 804.184 99.8887 804.395 99.8887Z" fill="white"/>
<path d="M820.903 99.8887C821.114 99.8887 821.114 100.1 821.114 100.1C821.114 100.311 820.903 100.311 820.903 100.311L820.691 100.1C820.48 100.1 820.691 99.8887 820.903 99.8887Z" fill="white"/>
<path d="M837.198 100.1C837.198 100.1 837.409 100.1 837.198 100.1C837.409 100.311 837.198 100.522 837.198 100.522C837.198 100.311 836.986 100.311 837.198 100.1C836.986 100.1 837.198 100.1 837.198 100.1Z" fill="white"/>
<path d="M853.494 100.1L853.706 100.311L853.494 100.311L853.494 100.1Z" fill="white"/>
<path d="M5.50231 83.8391C5.50231 85.3553 4.27058 86.5844 2.75115 86.5844C1.23173 86.5844 -1.86278e-07 85.3553 -1.20003e-07 83.8391C-5.37272e-08 82.3229 1.23173 81.0938 2.75115 81.0938C4.27058 81.0938 5.50231 82.3229 5.50231 83.8391Z" fill="white"/>
<path d="M19.2576 81.7266C20.5274 81.7266 21.5855 82.7825 21.5855 84.0495C21.5855 85.3166 20.5274 86.3725 19.2576 86.3725C17.9878 86.3725 16.9297 85.3166 16.9297 84.0495C16.9297 82.7825 17.9878 81.7266 19.2576 81.7266Z" fill="white"/>
<path d="M35.5545 81.7266C36.8242 81.7266 37.8824 82.7825 37.8824 84.0495C37.8824 85.3166 36.8242 86.3725 35.5545 86.3725C34.2847 86.3725 33.2266 85.3166 33.2266 84.0495C33.2266 82.7825 34.2847 81.7266 35.5545 81.7266Z" fill="white"/>
<path d="M51.8494 81.7266C53.1192 81.7266 54.1773 82.7825 54.1773 84.0495C54.1773 85.3166 53.1192 86.3725 51.8494 86.3725C50.5796 86.3725 49.5215 85.3166 49.5215 84.0495C49.5215 82.7825 50.5796 81.7266 51.8494 81.7266Z" fill="white"/>
<path d="M68.3552 81.7266C69.625 81.7266 70.6831 82.7825 70.6831 84.0495C70.6831 85.3166 69.625 86.3725 68.3552 86.3725C67.0855 86.3725 66.0273 85.3166 66.0273 84.0495C66.0273 82.7825 67.0855 81.7266 68.3552 81.7266Z" fill="white"/>
<path d="M84.6521 81.7266C85.9219 81.7266 86.98 82.7825 86.98 84.0495C86.98 85.3166 85.9219 86.1613 84.6521 86.1613C83.3824 86.1613 82.3242 85.1054 82.3242 83.8384C82.3242 82.5713 83.3824 81.7266 84.6521 81.7266Z" fill="white"/>
<path d="M100.946 81.7266C102.216 81.7266 103.274 82.7825 103.274 84.0495C103.274 85.3166 102.216 86.3725 100.946 86.3725C99.6766 86.3725 98.8301 85.1054 98.8301 83.8384C98.8301 82.5713 99.6766 81.7266 100.946 81.7266Z" fill="white"/>
<path d="M117.241 81.7266C118.511 81.7266 119.569 82.7825 119.569 84.0495C119.569 85.3166 118.511 86.1613 117.241 86.1613C115.972 86.1613 115.125 85.1054 115.125 83.8384C115.125 82.5713 116.183 81.7266 117.241 81.7266Z" fill="white"/>
<path d="M133.748 81.7266C135.018 81.7266 136.076 82.7825 136.076 84.0495C136.076 85.3166 135.018 86.3725 133.748 86.3725C132.478 86.3725 131.42 85.3166 131.42 84.0495C131.42 82.7825 132.478 81.7266 133.748 81.7266Z" fill="white"/>
<path d="M150.044 81.7266C151.314 81.7266 152.372 82.7825 152.372 84.0495C152.372 85.3166 151.314 86.3725 150.044 86.3725C148.774 86.3725 147.928 85.1054 147.928 83.8384C147.928 82.5713 148.774 81.7266 150.044 81.7266Z" fill="white"/>
<path d="M168.668 83.8386C168.668 85.1216 167.625 86.1616 166.34 86.1616C165.054 86.1616 164.012 85.1216 164.012 83.8386C164.012 82.5557 165.054 81.5156 166.34 81.5156C167.625 81.5156 168.668 82.5557 168.668 83.8386Z" fill="white"/>
<path d="M185.173 83.8386C185.173 85.1216 184.131 86.1616 182.845 86.1616C181.56 86.1616 180.518 85.1216 180.518 83.8386C180.518 82.5557 181.56 81.5156 182.845 81.5156C184.131 81.5156 185.173 82.5557 185.173 83.8386Z" fill="white"/>
<path d="M199.14 81.7266C200.41 81.7266 201.468 82.7825 201.468 84.0495C201.468 85.3166 200.41 86.3725 199.14 86.3725C197.871 86.3725 196.812 85.3166 196.812 84.0495C196.812 82.5713 197.871 81.7266 199.14 81.7266Z" fill="white"/>
<path d="M217.765 83.8386C217.765 85.1216 216.723 86.1616 215.437 86.1616C214.152 86.1616 213.109 85.1216 213.109 83.8386C213.109 82.5557 214.152 81.5156 215.437 81.5156C216.723 81.5156 217.765 82.5557 217.765 83.8386Z" fill="white"/>
<path d="M234.271 83.8386C234.271 85.1216 233.229 86.1616 231.943 86.1616C230.657 86.1616 229.615 85.1216 229.615 83.8386C229.615 82.5557 230.657 81.5156 231.943 81.5156C233.229 81.5156 234.271 82.5557 234.271 83.8386Z" fill="white"/>
<path d="M250.566 83.8386C250.566 85.1216 249.524 86.1616 248.238 86.1616C246.952 86.1616 245.91 85.1216 245.91 83.8386C245.91 82.5557 246.952 81.5156 248.238 81.5156C249.524 81.5156 250.566 82.5557 250.566 83.8386Z" fill="white"/>
<path d="M264.534 81.7266C265.804 81.7266 266.862 82.7825 266.862 84.0495C266.862 85.3166 265.804 86.3725 264.534 86.3725C263.264 86.3725 262.418 85.1054 262.418 83.8384C262.418 82.5713 263.264 81.7266 264.534 81.7266Z" fill="white"/>
<path d="M281.041 81.7266C282.311 81.7266 283.369 82.7825 283.369 84.0495C283.369 85.3166 282.311 86.3725 281.041 86.3725C279.771 86.3725 278.713 85.3166 278.713 84.0495C278.713 82.5713 279.771 81.7266 281.041 81.7266Z" fill="white"/>
<path d="M299.664 83.8386C299.664 85.1216 298.621 86.1616 297.336 86.1616C296.05 86.1616 295.008 85.1216 295.008 83.8386C295.008 82.5557 296.05 81.5156 297.336 81.5156C298.621 81.5156 299.664 82.5557 299.664 83.8386Z" fill="white"/>
<path d="M315.959 83.8386C315.959 85.1216 314.916 86.1616 313.631 86.1616C312.345 86.1616 311.303 85.1216 311.303 83.8386C311.303 82.5557 312.345 81.5156 313.631 81.5156C314.916 81.5156 315.959 82.5557 315.959 83.8386Z" fill="white"/>
<path d="M332.255 83.8386C332.255 85.1216 331.213 86.1616 329.928 86.1616C328.642 86.1616 327.6 85.1216 327.6 83.8386C327.6 82.5557 328.642 81.5156 329.928 81.5156C331.213 81.5156 332.255 82.5557 332.255 83.8386Z" fill="white"/>
<path d="M346.433 81.7266C347.703 81.7266 348.761 82.7825 348.761 84.0495C348.761 85.3166 347.703 86.3725 346.433 86.3725C345.164 86.3725 344.105 85.3166 344.105 84.0495C344.105 82.5713 345.164 81.7266 346.433 81.7266Z" fill="white"/>
<path d="M365.056 83.8386C365.056 85.1216 364.014 86.1616 362.728 86.1616C361.443 86.1616 360.4 85.1216 360.4 83.8386C360.4 82.5557 361.443 81.5156 362.728 81.5156C364.014 81.5156 365.056 82.5557 365.056 83.8386Z" fill="white"/>
<path d="M381.353 83.8386C381.353 85.1216 380.311 86.1616 379.025 86.1616C377.74 86.1616 376.697 85.1216 376.697 83.8386C376.697 82.5557 377.74 81.5156 379.025 81.5156C380.311 81.5156 381.353 82.5557 381.353 83.8386Z" fill="white"/>
<path d="M397.859 83.8386C397.859 85.1216 396.817 86.1616 395.531 86.1616C394.245 86.1616 393.203 85.1216 393.203 83.8386C393.203 82.5557 394.245 81.5156 395.531 81.5156C396.817 81.5156 397.859 82.5557 397.859 83.8386Z" fill="white"/>
<path d="M411.828 81.7266C413.098 81.7266 414.156 82.7825 414.156 84.0495C414.156 85.3166 413.098 86.3725 411.828 86.3725C410.558 86.3725 409.5 85.3166 409.5 84.0495C409.5 82.5713 410.558 81.7266 411.828 81.7266Z" fill="white"/>
<path d="M430.451 83.8386C430.451 85.1216 429.408 86.1616 428.123 86.1616C426.837 86.1616 425.795 85.1216 425.795 83.8386C425.795 82.5557 426.837 81.5156 428.123 81.5156C429.408 81.5156 430.451 82.5557 430.451 83.8386Z" fill="white"/>
<path d="M444.629 81.5156C445.898 81.5156 446.957 82.5715 446.957 83.8386C446.957 85.1057 445.898 86.1616 444.629 86.1616C443.359 86.1616 442.301 85.1057 442.301 83.8386C442.301 82.5715 443.359 81.5156 444.629 81.5156Z" fill="white"/>
<path d="M460.926 81.5156C462.195 81.5156 463.253 82.5715 463.253 83.8386C463.253 85.1057 462.195 86.1616 460.926 86.1616C459.656 86.1616 458.598 85.1057 458.598 83.8386C458.598 82.5715 459.656 81.5156 460.926 81.5156Z" fill="white"/>
<path d="M477.22 81.5156C478.49 81.5156 479.548 82.5715 479.548 83.8386C479.548 85.1057 478.49 86.1616 477.22 86.1616C475.951 86.1616 474.893 85.1057 474.893 83.8386C474.893 82.5715 475.951 81.5156 477.22 81.5156Z" fill="white"/>
<path d="M493.726 81.5156C494.996 81.5156 496.054 82.5715 496.054 83.8386C496.054 85.1057 494.996 86.1616 493.726 86.1616C492.457 86.1616 491.398 85.1057 491.398 83.8386C491.398 82.5715 492.245 81.5156 493.726 81.5156Z" fill="white"/>
<path d="M510.021 81.5156C511.291 81.5156 512.349 82.5715 512.349 83.8386C512.349 85.1057 511.291 86.1616 510.021 86.1616C508.752 86.1616 507.693 85.1057 507.693 83.8386C507.693 82.5715 508.752 81.5156 510.021 81.5156Z" fill="white"/>
<path d="M526.318 81.5156C527.588 81.5156 528.646 82.5715 528.646 83.8386C528.646 85.1057 527.588 86.1616 526.318 86.1616C525.048 86.1616 523.99 85.1057 523.99 83.8386C523.99 82.5715 525.048 81.5156 526.318 81.5156Z" fill="white"/>
<path d="M542.613 81.5156C543.883 81.5156 544.941 82.5715 544.941 83.8386C544.941 85.1057 543.883 86.1616 542.613 86.1616C541.343 86.1616 540.285 85.1057 540.285 83.8386C540.497 82.5715 541.343 81.5156 542.613 81.5156Z" fill="white"/>
<path d="M559.119 81.5156C560.389 81.5156 561.447 82.5715 561.447 83.8386C561.447 85.1057 560.389 86.1616 559.119 86.1616C557.849 86.1616 556.791 85.1057 556.791 83.8386C556.791 82.5715 557.849 81.5156 559.119 81.5156Z" fill="white"/>
<path d="M575.414 81.5156C576.684 81.5156 577.742 82.5715 577.742 83.8386C577.742 85.1057 576.684 86.1616 575.414 86.1616C574.144 86.1616 573.086 85.1057 573.086 83.8386C573.086 82.5715 574.144 81.5156 575.414 81.5156Z" fill="white"/>
<path d="M591.71 81.7266C592.98 81.7266 594.038 82.7825 594.038 84.0495C594.038 85.3166 592.98 86.3725 591.71 86.3725C590.44 86.3725 589.594 85.3166 589.594 84.0495C589.594 82.7825 590.652 81.7266 591.71 81.7266Z" fill="white"/>
<path d="M610.334 83.8384C610.334 85.0047 609.387 85.9502 608.218 85.9502C607.049 85.9502 606.102 85.0047 606.102 83.8384C606.102 82.672 607.049 81.7266 608.218 81.7266C609.387 81.7266 610.334 82.672 610.334 83.8384Z" fill="white"/>
<path d="M624.512 81.9375C625.57 81.9375 626.417 82.7822 626.417 83.8381C626.417 84.894 625.57 85.7387 624.512 85.7387C623.454 85.7387 622.607 84.894 622.607 83.8381C622.607 82.7822 623.454 81.9375 624.512 81.9375Z" fill="white"/>
<path d="M642.712 83.8381C642.712 84.8878 641.859 85.7387 640.807 85.7387C639.755 85.7387 638.902 84.8878 638.902 83.8381C638.902 82.7884 639.755 81.9375 640.807 81.9375C641.859 81.9375 642.712 82.7884 642.712 83.8381Z" fill="white"/>
<path d="M657.314 82.1484C658.372 82.1484 659.007 82.9932 659.007 83.8379C659.007 84.6826 658.161 85.5273 657.314 85.5273C656.468 85.5273 655.621 84.6826 655.621 83.8379C655.621 82.9932 656.256 82.1484 657.314 82.1484Z" fill="white"/>
<path d="M673.61 82.3613C674.457 82.3613 675.303 82.9949 675.303 84.0508C675.303 84.8955 674.668 85.529 673.61 85.529C672.763 85.529 672.129 84.8955 672.129 84.0508C671.917 82.9949 672.763 82.3613 673.61 82.3613Z" fill="white"/>
<path d="M691.387 83.8396C691.387 84.656 690.723 85.3178 689.905 85.3178C689.087 85.3178 688.424 84.656 688.424 83.8396C688.424 83.0232 689.087 82.3613 689.905 82.3613C690.723 82.3613 691.387 83.0232 691.387 83.8396Z" fill="white"/>
<path d="M706.412 82.5703C707.047 82.5703 707.682 83.2038 707.682 83.8374C707.682 84.4709 707.047 85.1045 706.412 85.1045C705.777 85.1045 705.143 84.4709 705.143 83.8374C704.931 83.2038 705.566 82.5703 706.412 82.5703Z" fill="white"/>
<path d="M722.707 82.7832C723.342 82.7832 723.977 83.4167 723.977 84.0503C723.977 84.6838 723.342 85.3174 722.707 85.3174C722.072 85.3174 721.437 84.4726 721.437 83.8391C721.437 83.2056 722.072 82.7832 722.707 82.7832Z" fill="white"/>
<path d="M740.062 83.8391C740.062 84.4223 739.588 84.895 739.003 84.895C738.419 84.895 737.945 84.4223 737.945 83.8391C737.945 83.2559 738.419 82.7832 739.003 82.7832C739.588 82.7832 740.062 83.2559 740.062 83.8391Z" fill="white"/>
<path d="M755.298 82.9941C755.721 82.9941 756.144 83.4165 756.144 83.8389C756.144 84.2612 755.721 84.6836 755.298 84.6836C754.874 84.6836 754.451 84.4724 754.451 83.8389C754.451 83.4165 754.874 82.9941 755.298 82.9941Z" fill="white"/>
<path d="M771.806 82.9941C772.229 82.9941 772.652 83.4165 772.652 83.8389C772.652 84.2612 772.229 84.6836 771.806 84.6836C771.382 84.6836 770.959 84.2612 770.959 83.8389C770.959 83.4165 771.382 82.9941 771.806 82.9941Z" fill="white"/>
<path d="M788.1 83.2051C788.523 83.2051 788.735 83.4163 788.735 83.8386C788.735 84.261 788.523 84.4722 788.1 84.4722C787.677 84.4722 787.465 84.261 787.465 83.8386C787.465 83.4163 787.677 83.2051 788.1 83.2051Z" fill="white"/>
<path d="M804.397 83.416C804.608 83.416 805.031 83.6272 805.031 84.0496C805.031 84.4719 804.82 84.4719 804.397 84.4719C804.185 84.4719 803.762 84.2607 803.762 83.8384C803.762 83.416 804.185 83.416 804.397 83.416Z" fill="white"/>
<path d="M821.325 83.8384C821.325 84.0716 821.136 84.2607 820.902 84.2607C820.668 84.2607 820.479 84.0716 820.479 83.8384C820.479 83.6051 820.668 83.416 820.902 83.416C821.136 83.416 821.325 83.6051 821.325 83.8384Z" fill="white"/>
<path d="M837.198 83.627C837.41 83.627 837.41 83.8381 837.41 83.8381C837.41 84.0493 837.198 84.0493 837.198 84.0493C836.986 84.0493 836.986 83.8381 836.986 83.8381C836.986 83.8381 836.986 83.627 837.198 83.627Z" fill="white"/>
<path d="M853.493 83.627C853.704 83.627 853.704 83.8381 853.493 83.627C853.704 83.8381 853.493 84.0493 853.493 84.0493C853.493 84.0493 853.281 84.0493 853.493 83.627C853.281 83.8381 853.493 83.627 853.493 83.627Z" fill="white"/>
<path d="M5.50231 67.5774C5.50231 69.0936 4.27058 70.3227 2.75115 70.3227C1.23173 70.3227 -1.86278e-07 69.0936 -1.20003e-07 67.5774C-5.37271e-08 66.0612 1.23173 64.832 2.75115 64.832C4.27058 64.832 5.50231 66.0612 5.50231 67.5774Z" fill="white"/>
<path d="M19.2576 65.2559C20.5274 65.2559 21.5855 66.3118 21.5855 67.5788C21.5855 68.8459 20.5274 69.9018 19.2576 69.9018C17.9878 69.6906 16.9297 68.8459 16.9297 67.5788C16.9297 66.3118 17.9878 65.2559 19.2576 65.2559Z" fill="white"/>
<path d="M35.5545 65.2559C36.8242 65.2559 37.8824 66.3118 37.8824 67.5788C37.8824 68.8459 36.8242 69.9018 35.5545 69.9018C34.2847 69.9018 33.2266 68.8459 33.2266 67.5788C33.2266 66.3118 34.2847 65.2559 35.5545 65.2559Z" fill="white"/>
<path d="M51.8494 65.2559C53.1192 65.2559 54.1773 66.3118 54.1773 67.5788C54.1773 68.8459 53.1192 69.9018 51.8494 69.9018C50.5796 69.9018 49.5215 68.8459 49.5215 67.5788C49.7331 66.3118 50.5796 65.2559 51.8494 65.2559Z" fill="white"/>
<path d="M68.3552 65.2559C69.625 65.2559 70.6831 66.3118 70.6831 67.5788C70.6831 68.8459 69.625 69.9018 68.3552 69.9018C67.0855 69.9018 66.0273 68.8459 66.0273 67.5788C66.0273 66.3118 67.0855 65.2559 68.3552 65.2559Z" fill="white"/>
<path d="M84.6521 65.2559C85.9219 65.2559 86.98 66.3118 86.98 67.5788C86.7684 68.8459 85.9219 69.6906 84.6521 69.6906C83.3824 69.6906 82.3242 68.8459 82.3242 67.5788C82.3242 66.3118 83.3824 65.2559 84.6521 65.2559Z" fill="white"/>
<path d="M100.946 65.2559C102.216 65.2559 103.274 66.3118 103.274 67.5788C103.274 68.8459 102.216 69.9018 100.946 69.9018C99.6766 69.9018 98.8301 68.8459 98.8301 67.5788C98.8301 66.3118 99.6766 65.2559 100.946 65.2559Z" fill="white"/>
<path d="M117.241 65.2559C118.511 65.2559 119.569 66.3118 119.569 67.5788C119.569 68.8459 118.511 69.9018 117.241 69.9018C115.972 69.9018 115.125 68.8459 115.125 67.5788C115.125 66.3118 116.183 65.2559 117.241 65.2559Z" fill="white"/>
<path d="M133.748 65.2559C135.018 65.2559 136.076 66.3118 136.076 67.5788C136.076 68.8459 135.018 69.9018 133.748 69.9018C132.478 69.9018 131.42 68.8459 131.42 67.5788C131.42 66.3118 132.478 65.2559 133.748 65.2559Z" fill="white"/>
<path d="M150.044 65.2559C151.314 65.2559 152.372 66.3118 152.372 67.5788C152.372 68.8459 151.314 69.9018 150.044 69.9018C148.774 69.9018 147.928 68.8459 147.928 67.5788C147.928 66.3118 148.774 65.2559 150.044 65.2559Z" fill="white"/>
<path d="M168.668 67.5788C168.668 68.8618 167.625 69.9018 166.34 69.9018C165.054 69.9018 164.012 68.8618 164.012 67.5788C164.012 66.2959 165.054 65.2559 166.34 65.2559C167.625 65.2559 168.668 66.2959 168.668 67.5788Z" fill="white"/>
<path d="M185.173 67.5788C185.173 68.8618 184.131 69.9018 182.845 69.9018C181.56 69.9018 180.518 68.8618 180.518 67.5788C180.518 66.2959 181.56 65.2559 182.845 65.2559C184.131 65.2559 185.173 66.2959 185.173 67.5788Z" fill="white"/>
<path d="M199.14 65.2559C200.41 65.2559 201.468 66.3118 201.468 67.5788C201.468 68.8459 200.41 69.9018 199.14 69.9018C197.871 69.9018 196.812 68.8459 196.812 67.5788C196.812 66.3118 197.871 65.2559 199.14 65.2559Z" fill="white"/>
<path d="M217.765 67.5788C217.765 68.8618 216.723 69.9018 215.437 69.9018C214.152 69.9018 213.109 68.8618 213.109 67.5788C213.109 66.2959 214.152 65.2559 215.437 65.2559C216.723 65.2559 217.765 66.2959 217.765 67.5788Z" fill="white"/>
<path d="M234.271 67.5788C234.271 68.8618 233.229 69.9018 231.943 69.9018C230.657 69.9018 229.615 68.8618 229.615 67.5788C229.615 66.2959 230.657 65.2559 231.943 65.2559C233.229 65.2559 234.271 66.2959 234.271 67.5788Z" fill="white"/>
<path d="M250.566 67.5788C250.566 68.8618 249.524 69.9018 248.238 69.9018C246.952 69.9018 245.91 68.8618 245.91 67.5788C245.91 66.2959 246.952 65.2559 248.238 65.2559C249.524 65.2559 250.566 66.2959 250.566 67.5788Z" fill="white"/>
<path d="M264.534 65.2559C265.804 65.2559 266.862 66.3118 266.862 67.5788C266.862 68.8459 265.804 69.9018 264.534 69.9018C263.264 69.9018 262.418 68.8459 262.418 67.5788C262.418 66.3118 263.264 65.2559 264.534 65.2559Z" fill="white"/>
<path d="M281.041 65.2559C282.311 65.2559 283.369 66.3118 283.369 67.5788C283.369 68.8459 282.311 69.9018 281.041 69.9018C279.771 69.9018 278.713 68.8459 278.713 67.5788C278.713 66.3118 279.771 65.2559 281.041 65.2559Z" fill="white"/>
<path d="M299.664 67.5788C299.664 68.8618 298.621 69.9018 297.336 69.9018C296.05 69.9018 295.008 68.8618 295.008 67.5788C295.008 66.2959 296.05 65.2559 297.336 65.2559C298.621 65.2559 299.664 66.2959 299.664 67.5788Z" fill="white"/>
<path d="M315.959 67.5788C315.959 68.8618 314.916 69.9018 313.631 69.9018C312.345 69.9018 311.303 68.8618 311.303 67.5788C311.303 66.2959 312.345 65.2559 313.631 65.2559C314.916 65.2559 315.959 66.2959 315.959 67.5788Z" fill="white"/>
<path d="M332.255 67.5788C332.255 68.8618 331.213 69.9018 329.928 69.9018C328.642 69.9018 327.6 68.8618 327.6 67.5788C327.6 66.2959 328.642 65.2559 329.928 65.2559C331.213 65.2559 332.255 66.2959 332.255 67.5788Z" fill="white"/>
<path d="M346.433 65.2559C347.703 65.2559 348.761 66.3118 348.761 67.5788C348.761 68.8459 347.703 69.9018 346.433 69.9018C345.164 69.9018 344.105 68.8459 344.105 67.5788C344.105 66.3118 345.164 65.2559 346.433 65.2559Z" fill="white"/>
<path d="M365.056 67.5788C365.056 68.8618 364.014 69.9018 362.728 69.9018C361.443 69.9018 360.4 68.8618 360.4 67.5788C360.4 66.2959 361.443 65.2559 362.728 65.2559C364.014 65.2559 365.056 66.2959 365.056 67.5788Z" fill="white"/>
<path d="M381.353 67.5788C381.353 68.8618 380.311 69.9018 379.025 69.9018C377.74 69.9018 376.697 68.8618 376.697 67.5788C376.697 66.2959 377.74 65.2559 379.025 65.2559C380.311 65.2559 381.353 66.2959 381.353 67.5788Z" fill="white"/>
<path d="M397.859 67.5788C397.859 68.8618 396.817 69.9018 395.531 69.9018C394.245 69.9018 393.203 68.8618 393.203 67.5788C393.203 66.2959 394.245 65.2559 395.531 65.2559C396.817 65.2559 397.859 66.2959 397.859 67.5788Z" fill="white"/>
<path d="M411.828 65.2559C413.098 65.2559 414.156 66.3118 414.156 67.5788C414.156 68.8459 413.098 69.9018 411.828 69.9018C410.558 69.9018 409.5 68.8459 409.5 67.5788C409.5 66.3118 410.558 65.2559 411.828 65.2559Z" fill="white"/>
<path d="M430.451 67.5788C430.451 68.8618 429.408 69.9018 428.123 69.9018C426.837 69.9018 425.795 68.8618 425.795 67.5788C425.795 66.2959 426.837 65.2559 428.123 65.2559C429.408 65.2559 430.451 66.2959 430.451 67.5788Z" fill="white"/>
<path d="M446.957 67.5788C446.957 68.8618 445.914 69.9018 444.629 69.9018C443.343 69.9018 442.301 68.8618 442.301 67.5788C442.301 66.2959 443.343 65.2559 444.629 65.2559C445.914 65.2559 446.957 66.2959 446.957 67.5788Z" fill="white"/>
<path d="M463.253 67.5788C463.253 68.8618 462.211 69.9018 460.926 69.9018C459.64 69.9018 458.598 68.8618 458.598 67.5788C458.598 66.2959 459.64 65.2559 460.926 65.2559C462.211 65.2559 463.253 66.2959 463.253 67.5788Z" fill="white"/>
<path d="M477.22 65.2559C478.49 65.2559 479.548 66.3118 479.548 67.5788C479.548 68.8459 478.49 69.9018 477.22 69.9018C475.951 69.9018 474.893 68.8459 474.893 67.5788C474.893 66.3118 475.951 65.2559 477.22 65.2559Z" fill="white"/>
<path d="M493.726 65.2559C494.996 65.2559 496.054 66.3118 496.054 67.5788C496.054 68.8459 494.996 69.9018 493.726 69.9018C492.457 69.9018 491.398 68.8459 491.398 67.5788C491.398 66.3118 492.245 65.2559 493.726 65.2559Z" fill="white"/>
<path d="M510.021 65.2559C511.291 65.2559 512.349 66.3118 512.349 67.5788C512.349 68.8459 511.291 69.9018 510.021 69.9018C508.752 69.9018 507.693 68.8459 507.693 67.5788C507.693 66.3118 508.752 65.2559 510.021 65.2559Z" fill="white"/>
<path d="M528.646 67.5788C528.646 68.8618 527.604 69.9018 526.318 69.9018C525.032 69.9018 523.99 68.8618 523.99 67.5788C523.99 66.2959 525.032 65.2559 526.318 65.2559C527.604 65.2559 528.646 66.2959 528.646 67.5788Z" fill="white"/>
<path d="M542.613 65.2559C543.883 65.2559 544.941 66.3118 544.941 67.5788C544.941 68.8459 543.883 69.9018 542.613 69.9018C541.343 69.9018 540.285 68.8459 540.285 67.5788C540.497 66.3118 541.343 65.2559 542.613 65.2559Z" fill="white"/>
<path d="M559.119 65.2559C560.389 65.2559 561.447 66.3118 561.447 67.5788C561.447 68.8459 560.389 69.9018 559.119 69.9018C557.849 69.9018 556.791 68.8459 556.791 67.5788C556.791 66.3118 557.849 65.2559 559.119 65.2559Z" fill="white"/>
<path d="M575.414 65.2559C576.684 65.2559 577.742 66.3118 577.742 67.5788C577.742 68.8459 576.684 69.9018 575.414 69.9018C574.144 69.9018 573.086 68.8459 573.086 67.5788C573.086 66.3118 574.144 65.2559 575.414 65.2559Z" fill="white"/>
<path d="M591.71 65.2559C592.98 65.2559 594.038 66.3118 594.038 67.5788C594.038 68.8459 592.98 69.9018 591.71 69.9018C590.44 69.9018 589.594 68.8459 589.594 67.5788C589.594 66.3118 590.652 65.2559 591.71 65.2559Z" fill="white"/>
<path d="M608.218 65.4648C609.276 65.4648 610.334 66.3096 610.334 67.5767C610.334 68.6326 609.488 69.6885 608.218 69.6885C607.16 69.6885 606.102 68.8437 606.102 67.5767C606.102 66.3096 606.948 65.4648 608.218 65.4648Z" fill="white"/>
<path d="M624.512 65.6758C625.57 65.6758 626.417 66.5205 626.417 67.5764C626.417 68.6323 625.57 69.477 624.512 69.477C623.454 69.477 622.607 68.6323 622.607 67.5764C622.607 66.5205 623.454 65.6758 624.512 65.6758Z" fill="white"/>
<path d="M642.712 67.5764C642.712 68.6261 641.859 69.477 640.807 69.477C639.755 69.477 638.902 68.6261 638.902 67.5764C638.902 66.5267 639.755 65.6758 640.807 65.6758C641.859 65.6758 642.712 66.5267 642.712 67.5764Z" fill="white"/>
<path d="M657.314 65.8887C658.372 65.8887 659.007 66.7334 659.007 67.5781C659.007 68.634 658.16 69.2676 657.314 69.2676C656.467 69.2676 655.621 68.4228 655.621 67.5781C655.409 66.5222 656.255 65.8887 657.314 65.8887Z" fill="white"/>
<path d="M675.092 67.5779C675.092 68.3943 674.428 69.0561 673.61 69.0561C672.792 69.0561 672.129 68.3943 672.129 67.5779C672.129 66.7614 672.792 66.0996 673.61 66.0996C674.428 66.0996 675.092 66.7614 675.092 67.5779Z" fill="white"/>
<path d="M689.905 66.0996C690.752 66.0996 691.387 66.7331 691.387 67.5779C691.387 68.4226 690.752 69.0561 689.905 69.0561C689.059 69.0561 688.424 68.4226 688.424 67.5779C688.424 66.7331 689.059 66.0996 689.905 66.0996Z" fill="white"/>
<path d="M706.412 66.3105C707.047 66.3105 707.682 66.9441 707.682 67.5776C707.682 68.2112 707.047 68.8447 706.412 68.8447C705.777 68.8447 705.143 68.2112 705.143 67.5776C704.931 66.9441 705.566 66.3105 706.412 66.3105Z" fill="white"/>
<path d="M722.707 66.3105C723.342 66.3105 723.977 66.7329 723.977 67.5776C723.977 68.2112 723.342 68.8447 722.707 68.8447C722.072 68.8447 721.437 68.4223 721.437 67.5776C721.437 66.9441 722.072 66.3105 722.707 66.3105Z" fill="white"/>
<path d="M740.062 67.5774C740.062 68.1605 739.588 68.6333 739.003 68.6333C738.419 68.6333 737.945 68.1605 737.945 67.5774C737.945 66.9942 738.419 66.5215 739.003 66.5215C739.588 66.5215 740.062 66.9942 740.062 67.5774Z" fill="white"/>
<path d="M756.144 67.5771C756.144 68.0437 755.765 68.4219 755.298 68.4219C754.83 68.4219 754.451 68.0437 754.451 67.5771C754.451 67.1106 754.83 66.7324 755.298 66.7324C755.765 66.7324 756.144 67.1106 756.144 67.5771Z" fill="white"/>
<path d="M771.806 66.7324C772.229 66.7324 772.652 67.1548 772.652 67.5771C772.652 67.9995 772.229 68.4219 771.806 68.4219C771.382 68.4219 770.959 67.9995 770.959 67.5771C770.959 67.1548 771.382 66.7324 771.806 66.7324Z" fill="white"/>
<path d="M788.1 66.9434C788.523 66.9434 788.735 67.1545 788.735 67.5769C788.735 67.9993 788.523 68.2104 788.1 68.2104C787.677 68.2104 787.465 67.9993 787.465 67.5769C787.465 67.1545 787.677 66.9434 788.1 66.9434Z" fill="white"/>
<path d="M805.031 67.5769C805.031 67.9268 804.747 68.2104 804.397 68.2104C804.046 68.2104 803.762 67.9268 803.762 67.5769C803.762 67.227 804.046 66.9434 804.397 66.9434C804.747 66.9434 805.031 67.227 805.031 67.5769Z" fill="white"/>
<path d="M821.325 67.5767C821.325 67.8099 821.136 67.999 820.902 67.999C820.668 67.999 820.479 67.8099 820.479 67.5767C820.479 67.3434 820.668 67.1543 820.902 67.1543C821.136 67.1543 821.325 67.3434 821.325 67.5767Z" fill="white"/>
<path d="M837.198 67.3672C837.41 67.3672 837.41 67.5784 837.41 67.5784C837.41 67.7896 837.198 67.7896 837.198 67.7896C836.986 67.7896 836.986 67.5784 836.986 67.5784C836.986 67.3672 836.986 67.3672 837.198 67.3672Z" fill="white"/>
<path d="M853.493 67.3672C853.704 67.3672 853.704 67.3672 853.493 67.3672C853.704 67.5784 853.493 67.7896 853.493 67.7896C853.493 67.7896 853.281 67.5784 853.493 67.3672C853.281 67.3672 853.493 67.3672 853.493 67.3672Z" fill="white"/>
<path d="M5.50231 51.3157C5.50231 52.8319 4.27058 54.061 2.75115 54.061C1.23173 54.061 -1.86278e-07 52.8319 -1.20003e-07 51.3157C-5.37272e-08 49.7994 1.23173 48.5703 2.75115 48.5703C4.27058 48.5703 5.50231 49.7994 5.50231 51.3157Z" fill="white"/>
<path d="M19.2576 48.9941C20.5274 48.9941 21.5855 50.05 21.5855 51.3171C21.5855 52.5842 20.5274 53.6401 19.2576 53.6401C17.9878 53.6401 16.9297 52.5842 16.9297 51.3171C16.9297 50.05 17.9878 48.9941 19.2576 48.9941Z" fill="white"/>
<path d="M35.5545 48.9941C36.8242 48.9941 37.8824 50.05 37.8824 51.3171C37.8824 52.5842 36.8242 53.6401 35.5545 53.6401C34.2847 53.6401 33.2266 52.5842 33.2266 51.3171C33.2266 50.05 34.2847 48.9941 35.5545 48.9941Z" fill="white"/>
<path d="M51.8494 48.9941C53.1192 48.9941 54.1773 50.05 54.1773 51.3171C54.1773 52.5842 53.1192 53.6401 51.8494 53.6401C50.5796 53.6401 49.5215 52.5842 49.5215 51.3171C49.5215 50.05 50.5796 48.9941 51.8494 48.9941Z" fill="white"/>
<path d="M68.3552 48.9941C69.625 48.9941 70.6831 50.05 70.6831 51.3171C70.6831 52.5842 69.625 53.6401 68.3552 53.6401C67.0855 53.6401 66.0273 52.5842 66.0273 51.3171C66.0273 50.05 67.0855 48.9941 68.3552 48.9941Z" fill="white"/>
<path d="M84.6521 48.9941C85.9219 48.9941 86.98 50.05 86.98 51.3171C86.98 52.5842 85.9219 53.4289 84.6521 53.4289C83.3824 53.4289 82.3242 52.373 82.3242 51.3171C82.3242 50.2612 83.3824 48.9941 84.6521 48.9941Z" fill="white"/>
<path d="M100.946 48.9941C102.216 48.9941 103.274 50.05 103.274 51.3171C103.274 52.5842 102.216 53.6401 100.946 53.6401C99.6766 53.6401 98.8301 52.373 98.8301 51.3171C98.8301 50.2612 99.6766 48.9941 100.946 48.9941Z" fill="white"/>
<path d="M117.241 48.9941C118.511 48.9941 119.569 50.05 119.569 51.3171C119.569 52.5842 118.511 53.4289 117.241 53.4289C115.972 53.4289 115.125 52.373 115.125 51.3171C115.125 50.2612 116.183 48.9941 117.241 48.9941Z" fill="white"/>
<path d="M133.748 48.9941C135.018 48.9941 136.076 50.05 136.076 51.3171C136.076 52.5842 135.018 53.6401 133.748 53.6401C132.478 53.6401 131.42 52.5842 131.42 51.3171C131.42 50.05 132.478 48.9941 133.748 48.9941Z" fill="white"/>
<path d="M150.044 48.9941C151.314 48.9941 152.372 50.05 152.372 51.3171C152.372 52.5842 151.314 53.6401 150.044 53.6401C148.774 53.6401 147.928 52.373 147.928 51.3171C147.928 50.2612 148.774 48.9941 150.044 48.9941Z" fill="white"/>
<path d="M168.668 51.3171C168.668 52.6001 167.625 53.6401 166.34 53.6401C165.054 53.6401 164.012 52.6001 164.012 51.3171C164.012 50.0342 165.054 48.9941 166.34 48.9941C167.625 48.9941 168.668 50.0342 168.668 51.3171Z" fill="white"/>
<path d="M185.173 51.3171C185.173 52.6001 184.131 53.6401 182.845 53.6401C181.56 53.6401 180.518 52.6001 180.518 51.3171C180.518 50.0342 181.56 48.9941 182.845 48.9941C184.131 48.9941 185.173 50.0342 185.173 51.3171Z" fill="white"/>
<path d="M199.14 48.9941C200.41 48.9941 201.468 50.05 201.468 51.3171C201.468 52.5842 200.41 53.6401 199.14 53.6401C197.871 53.6401 196.812 52.5842 196.812 51.3171C196.812 50.05 197.871 48.9941 199.14 48.9941Z" fill="white"/>
<path d="M217.765 51.3171C217.765 52.6001 216.723 53.6401 215.437 53.6401C214.152 53.6401 213.109 52.6001 213.109 51.3171C213.109 50.0342 214.152 48.9941 215.437 48.9941C216.723 48.9941 217.765 50.0342 217.765 51.3171Z" fill="white"/>
<path d="M234.271 51.3171C234.271 52.6001 233.229 53.6401 231.943 53.6401C230.657 53.6401 229.615 52.6001 229.615 51.3171C229.615 50.0342 230.657 48.9941 231.943 48.9941C233.229 48.9941 234.271 50.0342 234.271 51.3171Z" fill="white"/>
<path d="M250.566 51.3171C250.566 52.6001 249.524 53.6401 248.238 53.6401C246.952 53.6401 245.91 52.6001 245.91 51.3171C245.91 50.0342 246.952 48.9941 248.238 48.9941C249.524 48.9941 250.566 50.0342 250.566 51.3171Z" fill="white"/>
<path d="M264.534 48.9941C265.804 48.9941 266.862 50.05 266.862 51.3171C266.862 52.5842 265.804 53.6401 264.534 53.6401C263.264 53.6401 262.418 52.5842 262.418 51.3171C262.418 50.05 263.264 48.9941 264.534 48.9941Z" fill="white"/>
<path d="M281.041 48.9941C282.311 48.9941 283.369 50.05 283.369 51.3171C283.369 52.5842 282.311 53.6401 281.041 53.6401C279.771 53.6401 278.713 52.5842 278.713 51.3171C278.713 50.05 279.771 48.9941 281.041 48.9941Z" fill="white"/>
<path d="M299.664 51.3171C299.664 52.6001 298.621 53.6401 297.336 53.6401C296.05 53.6401 295.008 52.6001 295.008 51.3171C295.008 50.0342 296.05 48.9941 297.336 48.9941C298.621 48.9941 299.664 50.0342 299.664 51.3171Z" fill="white"/>
<path d="M315.959 51.3171C315.959 52.6001 314.916 53.6401 313.631 53.6401C312.345 53.6401 311.303 52.6001 311.303 51.3171C311.303 50.0342 312.345 48.9941 313.631 48.9941C314.916 48.9941 315.959 50.0342 315.959 51.3171Z" fill="white"/>
<path d="M332.255 51.3171C332.255 52.6001 331.213 53.6401 329.928 53.6401C328.642 53.6401 327.6 52.6001 327.6 51.3171C327.6 50.0342 328.642 48.9941 329.928 48.9941C331.213 48.9941 332.255 50.0342 332.255 51.3171Z" fill="white"/>
<path d="M346.433 48.9941C347.703 48.9941 348.761 50.05 348.761 51.3171C348.761 52.5842 347.703 53.6401 346.433 53.6401C345.164 53.6401 344.105 52.5842 344.105 51.3171C344.105 50.05 345.164 48.9941 346.433 48.9941Z" fill="white"/>
<path d="M365.056 51.3171C365.056 52.6001 364.014 53.6401 362.728 53.6401C361.443 53.6401 360.4 52.6001 360.4 51.3171C360.4 50.0342 361.443 48.9941 362.728 48.9941C364.014 48.9941 365.056 50.0342 365.056 51.3171Z" fill="white"/>
<path d="M381.353 51.3171C381.353 52.6001 380.311 53.6401 379.025 53.6401C377.74 53.6401 376.697 52.6001 376.697 51.3171C376.697 50.0342 377.74 48.9941 379.025 48.9941C380.311 48.9941 381.353 50.0342 381.353 51.3171Z" fill="white"/>
<path d="M397.859 51.3171C397.859 52.6001 396.817 53.6401 395.531 53.6401C394.245 53.6401 393.203 52.6001 393.203 51.3171C393.203 50.0342 394.245 48.9941 395.531 48.9941C396.817 48.9941 397.859 50.0342 397.859 51.3171Z" fill="white"/>
<path d="M411.828 48.9941C413.098 48.9941 414.156 50.05 414.156 51.3171C414.156 52.5842 413.098 53.6401 411.828 53.6401C410.558 53.6401 409.5 52.5842 409.5 51.3171C409.5 50.05 410.558 48.9941 411.828 48.9941Z" fill="white"/>
<path d="M430.451 51.3171C430.451 52.6001 429.408 53.6401 428.123 53.6401C426.837 53.6401 425.795 52.6001 425.795 51.3171C425.795 50.0342 426.837 48.9941 428.123 48.9941C429.408 48.9941 430.451 50.0342 430.451 51.3171Z" fill="white"/>
<path d="M444.629 48.9941C445.898 48.9941 446.957 50.05 446.957 51.3171C446.957 52.5842 445.898 53.6401 444.629 53.6401C443.359 53.6401 442.301 52.5842 442.301 51.3171C442.301 50.05 443.359 48.9941 444.629 48.9941Z" fill="white"/>
<path d="M460.926 48.9941C462.195 48.9941 463.253 50.05 463.253 51.3171C463.253 52.5842 462.195 53.6401 460.926 53.6401C459.656 53.6401 458.598 52.5842 458.598 51.3171C458.598 50.05 459.656 48.9941 460.926 48.9941Z" fill="white"/>
<path d="M477.22 48.9941C478.49 48.9941 479.548 50.05 479.548 51.3171C479.548 52.5842 478.49 53.6401 477.22 53.6401C475.951 53.6401 474.893 52.5842 474.893 51.3171C474.893 50.05 475.951 48.9941 477.22 48.9941Z" fill="white"/>
<path d="M493.726 48.9941C494.996 48.9941 496.054 50.05 496.054 51.3171C496.054 52.5842 494.996 53.6401 493.726 53.6401C492.457 53.6401 491.398 52.5842 491.398 51.3171C491.398 50.05 492.245 48.9941 493.726 48.9941Z" fill="white"/>
<path d="M510.021 48.9941C511.291 48.9941 512.349 50.05 512.349 51.3171C512.349 52.5842 511.291 53.6401 510.021 53.6401C508.752 53.6401 507.693 52.5842 507.693 51.3171C507.693 50.05 508.752 48.9941 510.021 48.9941Z" fill="white"/>
<path d="M526.318 48.9941C527.588 48.9941 528.646 50.05 528.646 51.3171C528.646 52.5842 527.588 53.6401 526.318 53.6401C525.048 53.6401 523.99 52.5842 523.99 51.3171C523.99 50.05 525.048 48.9941 526.318 48.9941Z" fill="white"/>
<path d="M542.613 48.9941C543.883 48.9941 544.941 50.05 544.941 51.3171C544.941 52.5842 543.883 53.6401 542.613 53.6401C541.343 53.6401 540.285 52.5842 540.285 51.3171C540.285 50.05 541.343 48.9941 542.613 48.9941Z" fill="white"/>
<path d="M559.119 48.9941C560.389 48.9941 561.447 50.05 561.447 51.3171C561.447 52.5842 560.389 53.6401 559.119 53.6401C557.849 53.6401 556.791 52.5842 556.791 51.3171C556.791 50.05 557.849 48.9941 559.119 48.9941Z" fill="white"/>
<path d="M575.414 48.9941C576.684 48.9941 577.742 50.05 577.742 51.3171C577.742 52.5842 576.684 53.6401 575.414 53.6401C574.144 53.6401 573.086 52.5842 573.086 51.3171C573.086 50.05 574.144 48.9941 575.414 48.9941Z" fill="white"/>
<path d="M591.71 48.9941C592.98 48.9941 594.038 50.05 594.038 51.3171C594.038 52.5842 592.98 53.6401 591.71 53.6401C590.44 53.6401 589.594 52.5842 589.594 51.3171C589.594 50.05 590.652 48.9941 591.71 48.9941Z" fill="white"/>
<path d="M610.334 51.3169C610.334 52.4832 609.387 53.4287 608.218 53.4287C607.049 53.4287 606.102 52.4832 606.102 51.3169C606.102 50.1506 607.049 49.2051 608.218 49.2051C609.387 49.2051 610.334 50.1506 610.334 51.3169Z" fill="white"/>
<path d="M624.512 49.2051C625.57 49.2051 626.417 50.0498 626.417 51.1057C626.417 52.1616 625.57 53.0063 624.512 53.0063C623.454 53.0063 622.607 52.1616 622.607 51.1057C622.607 50.0498 623.454 49.2051 624.512 49.2051Z" fill="white"/>
<path d="M642.712 51.3166C642.712 52.3663 641.859 53.2173 640.807 53.2173C639.755 53.2173 638.902 52.3663 638.902 51.3166C638.902 50.267 639.755 49.416 640.807 49.416C641.859 49.416 642.712 50.267 642.712 51.3166Z" fill="white"/>
<path d="M657.314 49.416C658.372 49.416 659.007 50.2607 659.007 51.1055C659.007 51.9502 658.161 52.7949 657.314 52.7949C656.468 52.7949 655.621 51.9502 655.621 51.1055C655.621 50.2607 656.256 49.416 657.314 49.416Z" fill="white"/>
<path d="M675.092 51.3162C675.092 52.1326 674.428 52.7944 673.61 52.7944C672.792 52.7944 672.129 52.1326 672.129 51.3162C672.129 50.4997 672.792 49.8379 673.61 49.8379C674.428 49.8379 675.092 50.4997 675.092 51.3162Z" fill="white"/>
<path d="M691.387 51.3162C691.387 52.1326 690.723 52.7944 689.905 52.7944C689.087 52.7944 688.424 52.1326 688.424 51.3162C688.424 50.4997 689.087 49.8379 689.905 49.8379C690.723 49.8379 691.387 50.4997 691.387 51.3162Z" fill="white"/>
<path d="M706.412 49.8379C707.047 49.8379 707.682 50.4714 707.682 51.105C707.682 51.7385 707.047 52.3721 706.412 52.3721C705.777 52.3721 705.143 51.7385 705.143 51.105C704.931 50.4714 705.566 49.8379 706.412 49.8379Z" fill="white"/>
<path d="M722.707 50.0488C723.342 50.0488 723.977 50.4712 723.977 51.3159C723.977 52.1606 723.342 52.583 722.707 52.583C722.072 52.583 721.437 52.1606 721.437 51.3159C721.437 50.4712 722.072 50.0488 722.707 50.0488Z" fill="white"/>
<path d="M739.003 50.2617C739.638 50.2617 740.062 50.6841 740.062 51.3176C740.062 51.9512 739.638 52.3735 739.003 52.3735C738.369 52.3735 737.945 51.9512 737.945 51.3176C737.945 50.6841 738.369 50.2617 739.003 50.2617Z" fill="white"/>
<path d="M756.144 51.3174C756.144 51.7839 755.765 52.1621 755.298 52.1621C754.83 52.1621 754.451 51.7839 754.451 51.3174C754.451 50.8509 754.83 50.4727 755.298 50.4727C755.765 50.4727 756.144 50.8509 756.144 51.3174Z" fill="white"/>
<path d="M771.806 50.4727C772.229 50.4727 772.652 50.895 772.652 51.3174C772.652 51.7397 772.229 52.1621 771.806 52.1621C771.382 52.1621 770.959 51.7397 770.959 51.3174C770.959 50.895 771.382 50.4727 771.806 50.4727Z" fill="white"/>
<path d="M788.1 50.4727C788.523 50.4727 788.735 50.6838 788.735 51.1062C788.735 51.5286 788.523 51.7397 788.1 51.7397C787.677 51.7397 787.465 51.5286 787.465 51.1062C787.465 50.895 787.677 50.4727 788.1 50.4727Z" fill="white"/>
<path d="M804.397 50.6836C804.608 50.6836 805.031 50.8948 805.031 51.3171C805.031 51.7395 804.82 51.9507 804.397 51.9507C804.185 51.9507 803.762 51.7395 803.762 51.3171C803.762 50.8948 804.185 50.6836 804.397 50.6836Z" fill="white"/>
<path d="M820.902 50.8945C821.113 50.8945 821.325 51.1057 821.325 51.3169C821.325 51.5281 821.113 51.7393 820.902 51.7393C820.69 51.7393 820.479 51.5281 820.479 51.3169C820.479 51.1057 820.69 50.8945 820.902 50.8945Z" fill="white"/>
<path d="M837.198 50.8945C837.41 50.8945 837.41 51.1057 837.41 51.1057L837.198 51.3169C836.986 51.3169 836.986 51.1057 836.986 51.1057C836.986 51.1057 836.986 50.8945 837.198 50.8945Z" fill="white"/>
<path d="M853.493 51.1055C853.704 51.1055 853.704 51.1055 853.493 51.1055C853.704 51.3166 853.493 51.5278 853.493 51.5278C853.493 51.3166 853.281 51.3166 853.493 51.1055C853.281 51.1055 853.493 51.1055 853.493 51.1055Z" fill="white"/>
<path d="M870.001 51.1055L870.001 51.3166L869.789 51.3166L870.001 51.1055Z" fill="white"/>
<path d="M5.50231 34.845C5.50231 36.3612 4.27058 37.5903 2.75115 37.5903C1.23173 37.5903 -1.86278e-07 36.3612 -1.20003e-07 34.845C-5.3727e-08 33.3287 1.23173 32.0996 2.75115 32.0996C4.27058 32.0996 5.50231 33.3287 5.50231 34.845Z" fill="white"/>
<path d="M19.2576 32.7324C20.5274 32.7324 21.5855 33.7883 21.5855 35.0554C21.5855 36.3225 20.5274 37.3784 19.2576 37.3784C17.9878 37.3784 16.9297 36.3225 16.9297 35.0554C16.9297 33.7883 17.9878 32.7324 19.2576 32.7324Z" fill="white"/>
<path d="M35.5545 32.7324C36.8242 32.7324 37.8824 33.7883 37.8824 35.0554C37.8824 36.3225 36.8242 37.3784 35.5545 37.3784C34.2847 37.3784 33.2266 36.3225 33.2266 35.0554C33.2266 33.7883 34.2847 32.7324 35.5545 32.7324Z" fill="white"/>
<path d="M51.8494 32.7324C53.1192 32.7324 54.1773 33.7883 54.1773 35.0554C54.1773 36.3225 53.1192 37.3784 51.8494 37.3784C50.5796 37.3784 49.5215 36.3225 49.5215 35.0554C49.7331 33.7883 50.5796 32.7324 51.8494 32.7324Z" fill="white"/>
<path d="M68.3552 32.7324C69.625 32.7324 70.6831 33.7883 70.6831 35.0554C70.6831 36.3225 69.625 37.3784 68.3552 37.3784C67.0855 37.3784 66.0273 36.3225 66.0273 35.0554C66.0273 33.7883 67.0855 32.7324 68.3552 32.7324Z" fill="white"/>
<path d="M84.6521 32.7324C85.9219 32.7324 86.98 33.7883 86.98 35.0554C86.7684 36.1113 85.9219 37.1672 84.6521 37.1672C83.3824 37.1672 82.3242 36.1113 82.3242 34.8442C82.3242 33.7883 83.3824 32.7324 84.6521 32.7324Z" fill="white"/>
<path d="M100.946 32.7324C102.216 32.7324 103.274 33.7883 103.274 35.0554C103.274 36.3225 102.216 37.3784 100.946 37.3784C99.6766 37.3784 98.8301 36.1113 98.8301 34.8442C98.8301 33.7883 99.6766 32.7324 100.946 32.7324Z" fill="white"/>
<path d="M117.241 32.7324C118.511 32.7324 119.569 33.7883 119.569 35.0554C119.569 36.3225 118.511 37.3784 117.241 37.3784C115.972 37.3784 115.125 36.1113 115.125 34.8442C115.125 33.7883 116.183 32.7324 117.241 32.7324Z" fill="white"/>
<path d="M133.748 32.7324C135.018 32.7324 136.076 33.7883 136.076 35.0554C136.076 36.3225 135.018 37.3784 133.748 37.3784C132.478 37.3784 131.42 36.3225 131.42 35.0554C131.42 33.7883 132.478 32.7324 133.748 32.7324Z" fill="white"/>
<path d="M150.044 32.7324C151.314 32.7324 152.372 33.7883 152.372 35.0554C152.372 36.3225 151.314 37.3784 150.044 37.3784C148.774 37.3784 147.928 36.1113 147.928 34.8442C147.928 33.7883 148.774 32.7324 150.044 32.7324Z" fill="white"/>
<path d="M166.34 32.7324C167.609 32.7324 168.668 33.7883 168.668 35.0554C168.668 36.3225 167.609 37.3784 166.34 37.3784C165.07 37.3784 164.012 36.3225 164.012 35.0554C164.223 33.5771 165.07 32.7324 166.34 32.7324Z" fill="white"/>
<path d="M182.845 32.7324C184.115 32.7324 185.173 33.7883 185.173 35.0554C185.173 36.3225 184.115 37.3784 182.845 37.3784C181.576 37.3784 180.518 36.1113 180.518 34.8442C180.518 33.5771 181.576 32.7324 182.845 32.7324Z" fill="white"/>
<path d="M199.14 32.7324C200.41 32.7324 201.468 33.7883 201.468 35.0554C201.468 36.3225 200.41 37.3784 199.14 37.3784C197.871 37.3784 196.812 36.3225 196.812 35.0554C196.812 33.5771 197.871 32.7324 199.14 32.7324Z" fill="white"/>
<path d="M215.437 32.7324C216.707 32.7324 217.765 33.7883 217.765 35.0554C217.765 36.3225 216.707 37.3784 215.437 37.3784C214.168 37.3784 213.109 36.3225 213.109 35.0554C213.321 33.5771 214.168 32.7324 215.437 32.7324Z" fill="white"/>
<path d="M231.943 32.7324C233.213 32.7324 234.271 33.7883 234.271 35.0554C234.271 36.3225 233.213 37.3784 231.943 37.3784C230.673 37.3784 229.615 36.3225 229.615 35.0554C229.615 33.5771 230.673 32.7324 231.943 32.7324Z" fill="white"/>
<path d="M248.238 32.7324C249.508 32.7324 250.566 33.7883 250.566 35.0554C250.566 36.3225 249.508 37.3784 248.238 37.3784C246.968 37.3784 245.91 36.3225 245.91 35.0554C245.91 33.5771 246.968 32.7324 248.238 32.7324Z" fill="white"/>
<path d="M264.534 32.7324C265.804 32.7324 266.862 33.7883 266.862 35.0554C266.862 36.3225 265.804 37.3784 264.534 37.3784C263.264 37.3784 262.418 36.1113 262.418 34.8442C262.418 33.5771 263.264 32.7324 264.534 32.7324Z" fill="white"/>
<path d="M281.041 32.7324C282.311 32.7324 283.369 33.7883 283.369 35.0554C283.369 36.3225 282.311 37.3784 281.041 37.3784C279.771 37.3784 278.713 36.3225 278.713 35.0554C278.713 33.5771 279.771 32.7324 281.041 32.7324Z" fill="white"/>
<path d="M297.336 32.7324C298.605 32.7324 299.664 33.7883 299.664 35.0554C299.664 36.3225 298.605 37.3784 297.336 37.3784C296.066 37.3784 295.008 36.3225 295.008 35.0554C295.008 33.5771 296.066 32.7324 297.336 32.7324Z" fill="white"/>
<path d="M313.631 32.7324C314.9 32.7324 315.959 33.7883 315.959 35.0554C315.959 36.3225 314.9 37.3784 313.631 37.3784C312.361 37.3784 311.303 36.3225 311.303 35.0554C311.303 33.5771 312.361 32.7324 313.631 32.7324Z" fill="white"/>
<path d="M329.928 32.7324C331.197 32.7324 332.255 33.7883 332.255 35.0554C332.255 36.3225 331.197 37.3784 329.928 37.3784C328.658 37.3784 327.6 36.3225 327.6 35.0554C327.811 33.5771 328.869 32.7324 329.928 32.7324Z" fill="white"/>
<path d="M346.433 32.7324C347.703 32.7324 348.761 33.7883 348.761 35.0554C348.761 36.3225 347.703 37.3784 346.433 37.3784C345.164 37.3784 344.105 36.3225 344.105 35.0554C344.105 33.5771 345.164 32.7324 346.433 32.7324Z" fill="white"/>
<path d="M362.728 32.7324C363.998 32.7324 365.056 33.7883 365.056 35.0554C365.056 36.3225 363.998 37.3784 362.728 37.3784C361.459 37.3784 360.4 36.3225 360.4 35.0554C360.4 33.5771 361.459 32.7324 362.728 32.7324Z" fill="white"/>
<path d="M379.025 32.7324C380.295 32.7324 381.353 33.7883 381.353 35.0554C381.353 36.3225 380.295 37.3784 379.025 37.3784C377.755 37.3784 376.697 36.3225 376.697 35.0554C376.909 33.5771 377.755 32.7324 379.025 32.7324Z" fill="white"/>
<path d="M395.531 32.7324C396.801 32.7324 397.859 33.7883 397.859 35.0554C397.859 36.3225 396.801 37.3784 395.531 37.3784C394.261 37.3784 393.203 36.3225 393.203 35.0554C393.203 33.5771 394.261 32.7324 395.531 32.7324Z" fill="white"/>
<path d="M411.828 32.7324C413.098 32.7324 414.156 33.7883 414.156 35.0554C414.156 36.3225 413.098 37.3784 411.828 37.3784C410.558 37.3784 409.5 36.3225 409.5 35.0554C409.5 33.5771 410.558 32.7324 411.828 32.7324Z" fill="white"/>
<path d="M428.123 32.7324C429.393 32.7324 430.451 33.7883 430.451 35.0554C430.451 36.3225 429.393 37.3784 428.123 37.3784C426.853 37.3784 425.795 36.3225 425.795 35.0554C426.007 33.5771 426.853 32.7324 428.123 32.7324Z" fill="white"/>
<path d="M444.629 32.5215C445.898 32.5215 446.957 33.5774 446.957 34.8445C446.957 36.1116 445.898 37.1675 444.629 37.1675C443.359 37.1675 442.301 36.1116 442.301 34.8445C442.301 33.5774 443.359 32.5215 444.629 32.5215Z" fill="white"/>
<path d="M460.926 32.5215C462.195 32.5215 463.253 33.5774 463.253 34.8445C463.253 36.1116 462.195 37.1675 460.926 37.1675C459.656 37.1675 458.598 36.1116 458.598 34.8445C458.598 33.5774 459.656 32.5215 460.926 32.5215Z" fill="white"/>
<path d="M477.22 32.5215C478.49 32.5215 479.548 33.5774 479.548 34.8445C479.548 36.1116 478.49 37.1675 477.22 37.1675C475.951 37.1675 474.893 36.1116 474.893 34.8445C474.893 33.5774 475.951 32.5215 477.22 32.5215Z" fill="white"/>
<path d="M493.726 32.5215C494.996 32.5215 496.054 33.5774 496.054 34.8445C496.054 36.1116 494.996 37.1675 493.726 37.1675C492.457 37.1675 491.398 36.1116 491.398 34.8445C491.398 33.5774 492.245 32.5215 493.726 32.5215Z" fill="white"/>
<path d="M510.021 32.5215C511.291 32.5215 512.349 33.5774 512.349 34.8445C512.349 36.1116 511.291 37.1675 510.021 37.1675C508.752 37.1675 507.693 36.1116 507.693 34.8445C507.693 33.5774 508.752 32.5215 510.021 32.5215Z" fill="white"/>
<path d="M526.318 32.5215C527.588 32.5215 528.646 33.5774 528.646 34.8445C528.646 36.1116 527.588 37.1675 526.318 37.1675C525.048 37.1675 523.99 36.1116 523.99 34.8445C523.99 33.5774 525.048 32.5215 526.318 32.5215Z" fill="white"/>
<path d="M542.613 32.5215C543.883 32.5215 544.941 33.5774 544.941 34.8445C544.941 36.1116 543.883 37.1675 542.613 37.1675C541.343 37.1675 540.285 36.1116 540.285 34.8445C540.497 33.5774 541.343 32.5215 542.613 32.5215Z" fill="white"/>
<path d="M559.119 32.5215C560.389 32.5215 561.447 33.5774 561.447 34.8445C561.447 36.1116 560.389 37.1675 559.119 37.1675C557.849 37.1675 556.791 36.1116 556.791 34.8445C556.791 33.5774 557.849 32.5215 559.119 32.5215Z" fill="white"/>
<path d="M575.414 32.5215C576.684 32.5215 577.742 33.5774 577.742 34.8445C577.742 36.1116 576.684 37.1675 575.414 37.1675C574.144 37.1675 573.086 36.1116 573.086 34.8445C573.086 33.5774 574.144 32.5215 575.414 32.5215Z" fill="white"/>
<path d="M591.71 32.7324C592.98 32.7324 594.038 33.7883 594.038 35.0554C594.038 36.3225 592.98 37.3784 591.71 37.3784C590.44 37.3784 589.594 36.3225 589.594 35.0554C589.594 33.7883 590.652 32.7324 591.71 32.7324Z" fill="white"/>
<path d="M610.334 34.8442C610.334 36.0105 609.387 36.956 608.218 36.956C607.049 36.956 606.102 36.0105 606.102 34.8442C606.102 33.6779 607.049 32.7324 608.218 32.7324C609.387 32.7324 610.334 33.6779 610.334 34.8442Z" fill="white"/>
<path d="M624.512 32.9434C625.57 32.9434 626.417 33.7881 626.417 34.844C626.417 35.8999 625.57 36.7446 624.512 36.7446C623.454 36.7446 622.607 35.8999 622.607 34.844C622.607 33.7881 623.454 32.9434 624.512 32.9434Z" fill="white"/>
<path d="M642.712 34.844C642.712 35.8937 641.859 36.7446 640.807 36.7446C639.755 36.7446 638.902 35.8937 638.902 34.844C638.902 33.7943 639.755 32.9434 640.807 32.9434C641.859 32.9434 642.712 33.7943 642.712 34.844Z" fill="white"/>
<path d="M657.314 33.1563C658.372 33.1563 659.007 34.001 659.007 34.8457C659.007 35.9016 658.16 36.5351 657.314 36.5351C656.467 36.5351 655.621 35.6904 655.621 34.8457C655.409 34.001 656.255 33.1563 657.314 33.1563Z" fill="white"/>
<path d="M673.61 33.3672C674.457 33.3672 675.303 34.0007 675.303 34.8454C675.303 35.6902 674.668 36.5349 673.61 36.5349C672.763 36.5349 672.129 35.9014 672.129 34.8454C671.917 34.0007 672.763 33.3672 673.61 33.3672Z" fill="white"/>
<path d="M691.387 34.8454C691.387 35.6619 690.723 36.3237 689.905 36.3237C689.087 36.3237 688.424 35.6619 688.424 34.8454C688.424 34.029 689.087 33.3672 689.905 33.3672C690.723 33.3672 691.387 34.029 691.387 34.8454Z" fill="white"/>
<path d="M706.412 33.5781C707.047 33.5781 707.682 34.2117 707.682 34.8452C707.682 35.4787 707.047 36.1123 706.412 36.1123C705.777 36.1123 705.143 35.4787 705.143 34.8452C704.931 34.2117 705.566 33.5781 706.412 33.5781Z" fill="white"/>
<path d="M722.707 33.7891C723.342 33.7891 723.977 34.2114 723.977 35.0561C723.977 35.6897 723.342 36.3232 722.707 36.3232C722.072 36.3232 721.437 35.9009 721.437 35.0561C721.437 34.2114 722.072 33.7891 722.707 33.7891Z" fill="white"/>
<path d="M740.062 34.845C740.062 35.4281 739.588 35.9009 739.003 35.9009C738.419 35.9009 737.945 35.4281 737.945 34.845C737.945 34.2618 738.419 33.7891 739.003 33.7891C739.588 33.7891 740.062 34.2618 740.062 34.845Z" fill="white"/>
<path d="M755.298 34C755.721 34 756.144 34.4224 756.144 34.8447C756.144 35.2671 755.721 35.6894 755.298 35.6894C754.874 35.6894 754.451 35.2671 754.451 34.8447C754.451 34.4224 754.874 34 755.298 34Z" fill="white"/>
<path d="M771.806 34C772.229 34 772.652 34.4224 772.652 34.8447C772.652 35.2671 772.229 35.6894 771.806 35.6894C771.382 35.6894 770.959 35.2671 770.959 34.8447C770.959 34.4224 771.382 34 771.806 34Z" fill="white"/>
<path d="M788.1 34.2109C788.523 34.2109 788.735 34.4221 788.735 34.8445C788.735 35.2668 788.523 35.478 788.1 35.478C787.677 35.478 787.465 35.2668 787.465 34.8445C787.465 34.6333 787.677 34.2109 788.1 34.2109Z" fill="white"/>
<path d="M804.397 34.4219C804.608 34.4219 805.031 34.6331 805.031 35.0554C805.031 35.2666 804.82 35.6889 804.397 35.6889C804.185 35.6889 803.762 35.4778 803.762 35.0554C803.973 34.6331 804.185 34.4219 804.397 34.4219Z" fill="white"/>
<path d="M821.325 34.8442C821.325 35.0775 821.136 35.2666 820.902 35.2666C820.668 35.2666 820.479 35.0775 820.479 34.8442C820.479 34.611 820.668 34.4219 820.902 34.4219C821.136 34.4219 821.325 34.611 821.325 34.8442Z" fill="white"/>
<path d="M837.198 34.6348C837.41 34.6348 837.41 34.8459 837.41 34.8459L837.198 35.0571C836.986 35.0571 836.986 34.8459 836.986 34.8459C836.986 34.8459 836.986 34.6348 837.198 34.6348Z" fill="white"/>
<path d="M853.493 34.6348C853.704 34.6348 853.704 34.8459 853.493 34.6348C853.704 34.8459 853.493 35.0571 853.493 35.0571C853.493 35.0571 853.281 35.0571 853.493 34.6348C853.281 34.8459 853.493 34.6348 853.493 34.6348Z" fill="white"/>
<path d="M870.001 34.8457L870.001 35.0569L869.789 34.8457L870.001 34.8457Z" fill="white"/>
<path d="M2.75115 15.8379C4.23255 15.8379 5.50231 17.105 5.50231 18.5832C5.50231 20.0615 4.23255 21.3286 2.75115 21.3286C1.26976 21.3286 -1.8462e-07 20.0615 -1.20003e-07 18.5832C-5.53859e-08 17.105 1.26976 15.8379 2.75115 15.8379Z" fill="white"/>
<path d="M19.2576 16.4727C20.5274 16.4727 21.5855 17.5286 21.5855 18.7956C21.5855 20.0627 20.5274 21.1186 19.2576 21.1186C17.9878 21.1186 16.9297 20.0627 16.9297 18.7956C16.9297 17.3174 17.9878 16.4727 19.2576 16.4727Z" fill="white"/>
<path d="M35.5545 16.4727C36.8242 16.4727 37.8824 17.5286 37.8824 18.7956C37.8824 20.0627 36.8242 21.1186 35.5545 21.1186C34.2847 21.1186 33.2266 20.0627 33.2266 18.7956C33.2266 17.3174 34.2847 16.4727 35.5545 16.4727Z" fill="white"/>
<path d="M51.8494 16.4727C53.1192 16.4727 54.1773 17.5286 54.1773 18.7956C54.1773 20.0627 53.1192 21.1186 51.8494 21.1186C50.5796 21.1186 49.5215 20.0627 49.5215 18.7956C49.7331 17.3174 50.5796 16.4727 51.8494 16.4727Z" fill="white"/>
<path d="M68.3552 16.4727C69.625 16.4727 70.6831 17.5286 70.6831 18.7956C70.6831 20.0627 69.625 21.1186 68.3552 21.1186C67.0855 21.1186 66.0273 20.0627 66.0273 18.7956C66.0273 17.3174 67.0855 16.4727 68.3552 16.4727Z" fill="white"/>
<path d="M84.6521 16.4727C85.9219 16.4727 86.98 17.5286 86.98 18.7956C86.7684 19.8515 85.9219 20.9074 84.6521 20.9074C83.3824 20.9074 82.3242 19.8515 82.3242 18.5845C82.3242 17.3174 83.3824 16.4727 84.6521 16.4727Z" fill="white"/>
<path d="M100.946 16.4727C102.216 16.4727 103.274 17.5286 103.274 18.7956C103.274 20.0627 102.216 21.1186 100.946 21.1186C99.6766 21.1186 98.8301 19.8515 98.8301 18.5845C98.8301 17.3174 99.6766 16.4727 100.946 16.4727Z" fill="white"/>
<path d="M117.241 16.4727C118.511 16.4727 119.569 17.5286 119.569 18.7956C119.569 20.0627 118.511 21.1186 117.241 21.1186C115.972 21.1186 115.125 19.8515 115.125 18.5845C115.125 17.3174 116.183 16.4727 117.241 16.4727Z" fill="white"/>
<path d="M133.748 16.4727C135.018 16.4727 136.076 17.5286 136.076 18.7956C136.076 20.0627 135.018 21.1186 133.748 21.1186C132.478 21.1186 131.42 20.0627 131.42 18.7956C131.42 17.3174 132.478 16.4727 133.748 16.4727Z" fill="white"/>
<path d="M150.044 16.4727C151.314 16.4727 152.372 17.5286 152.372 18.7956C152.372 20.0627 151.314 21.1186 150.044 21.1186C148.774 21.1186 147.928 19.8515 147.928 18.5845C147.928 17.3174 148.774 16.4727 150.044 16.4727Z" fill="white"/>
<path d="M166.34 16.2617C167.609 16.2617 168.668 17.3176 168.668 18.5847C168.668 19.8518 167.609 20.9077 166.34 20.9077C165.07 20.9077 164.012 19.8518 164.012 18.5847C164.223 17.3176 165.07 16.2617 166.34 16.2617Z" fill="white"/>
<path d="M182.845 16.2617C184.115 16.2617 185.173 17.3176 185.173 18.5847C185.173 19.8518 184.115 20.9077 182.845 20.9077C181.576 20.9077 180.518 19.8518 180.518 18.5847C180.518 17.3176 181.576 16.2617 182.845 16.2617Z" fill="white"/>
<path d="M199.14 16.2617C200.41 16.2617 201.468 17.3176 201.468 18.5847C201.468 19.8518 200.41 20.9077 199.14 20.9077C197.871 20.9077 196.812 19.8518 196.812 18.5847C196.812 17.3176 197.871 16.2617 199.14 16.2617Z" fill="white"/>
<path d="M215.437 16.2617C216.707 16.2617 217.765 17.3176 217.765 18.5847C217.765 19.8518 216.707 20.9077 215.437 20.9077C214.168 20.9077 213.109 19.8518 213.109 18.5847C213.321 17.3176 214.168 16.2617 215.437 16.2617Z" fill="white"/>
<path d="M231.943 16.2617C233.213 16.2617 234.271 17.3176 234.271 18.5847C234.271 19.8518 233.213 20.9077 231.943 20.9077C230.673 20.9077 229.615 19.8518 229.615 18.5847C229.615 17.3176 230.673 16.2617 231.943 16.2617Z" fill="white"/>
<path d="M248.238 16.2617C249.508 16.2617 250.566 17.3176 250.566 18.5847C250.566 19.8518 249.508 20.9077 248.238 20.9077C246.968 20.9077 245.91 19.8518 245.91 18.5847C245.91 17.3176 246.968 16.2617 248.238 16.2617Z" fill="white"/>
<path d="M264.534 16.2617C265.804 16.2617 266.862 17.3176 266.862 18.5847C266.862 19.8518 265.804 20.9077 264.534 20.9077C263.264 20.9077 262.418 19.8518 262.418 18.5847C262.418 17.3176 263.264 16.2617 264.534 16.2617Z" fill="white"/>
<path d="M281.041 16.2617C282.311 16.2617 283.369 17.3176 283.369 18.5847C283.369 19.8518 282.311 20.9077 281.041 20.9077C279.771 20.9077 278.713 19.8518 278.713 18.5847C278.713 17.3176 279.771 16.2617 281.041 16.2617Z" fill="white"/>
<path d="M297.336 16.2617C298.605 16.2617 299.664 17.3176 299.664 18.5847C299.664 19.8518 298.605 20.9077 297.336 20.9077C296.066 20.9077 295.008 19.8518 295.008 18.5847C295.008 17.3176 296.066 16.2617 297.336 16.2617Z" fill="white"/>
<path d="M313.631 16.2617C314.9 16.2617 315.959 17.3176 315.959 18.5847C315.959 19.8518 314.9 20.9077 313.631 20.9077C312.361 20.9077 311.303 19.8518 311.303 18.5847C311.303 17.3176 312.361 16.2617 313.631 16.2617Z" fill="white"/>
<path d="M329.928 16.2617C331.197 16.2617 332.255 17.3176 332.255 18.5847C332.255 19.8518 331.197 20.9077 329.928 20.9077C328.658 20.9077 327.6 19.8518 327.6 18.5847C327.811 17.3176 328.869 16.2617 329.928 16.2617Z" fill="white"/>
<path d="M346.433 16.2617C347.703 16.2617 348.761 17.3176 348.761 18.5847C348.761 19.8518 347.703 20.9077 346.433 20.9077C345.164 20.9077 344.105 19.8518 344.105 18.5847C344.105 17.3176 345.164 16.2617 346.433 16.2617Z" fill="white"/>
<path d="M362.728 16.2617C363.998 16.2617 365.056 17.3176 365.056 18.5847C365.056 19.8518 363.998 20.9077 362.728 20.9077C361.459 20.9077 360.4 19.8518 360.4 18.5847C360.4 17.3176 361.459 16.2617 362.728 16.2617Z" fill="white"/>
<path d="M379.025 16.2617C380.295 16.2617 381.353 17.3176 381.353 18.5847C381.353 19.8518 380.295 20.9077 379.025 20.9077C377.755 20.9077 376.697 19.8518 376.697 18.5847C376.909 17.3176 377.755 16.2617 379.025 16.2617Z" fill="white"/>
<path d="M395.531 16.2617C396.801 16.2617 397.859 17.3176 397.859 18.5847C397.859 19.8518 396.801 20.9077 395.531 20.9077C394.261 20.9077 393.203 19.8518 393.203 18.5847C393.203 17.3176 394.261 16.2617 395.531 16.2617Z" fill="white"/>
<path d="M411.828 16.2617C413.098 16.2617 414.156 17.3176 414.156 18.5847C414.156 19.8518 413.098 20.9077 411.828 20.9077C410.558 20.9077 409.5 19.8518 409.5 18.5847C409.5 17.3176 410.558 16.2617 411.828 16.2617Z" fill="white"/>
<path d="M428.123 16.2617C429.393 16.2617 430.451 17.3176 430.451 18.5847C430.451 19.8518 429.393 20.9077 428.123 20.9077C426.853 20.9077 425.795 19.8518 425.795 18.5847C426.007 17.3176 426.853 16.2617 428.123 16.2617Z" fill="white"/>
<path d="M444.629 16.2617C445.898 16.2617 446.957 17.3176 446.957 18.5847C446.957 19.8518 445.898 20.9077 444.629 20.9077C443.359 20.9077 442.301 19.8518 442.301 18.5847C442.301 17.3176 443.359 16.2617 444.629 16.2617Z" fill="white"/>
<path d="M460.926 16.2617C462.195 16.2617 463.253 17.3176 463.253 18.5847C463.253 19.8518 462.195 20.9077 460.926 20.9077C459.656 20.9077 458.598 19.8518 458.598 18.5847C458.598 17.3176 459.656 16.2617 460.926 16.2617Z" fill="white"/>
<path d="M477.22 16.2617C478.49 16.2617 479.548 17.3176 479.548 18.5847C479.548 19.8518 478.49 20.9077 477.22 20.9077C475.951 20.9077 474.893 19.8518 474.893 18.5847C474.893 17.3176 475.951 16.2617 477.22 16.2617Z" fill="white"/>
<path d="M493.726 16.2617C494.996 16.2617 496.054 17.3176 496.054 18.5847C496.054 19.8518 494.996 20.9077 493.726 20.9077C492.457 20.9077 491.398 19.8518 491.398 18.5847C491.398 17.3176 492.245 16.2617 493.726 16.2617Z" fill="white"/>
<path d="M510.021 16.2617C511.291 16.2617 512.349 17.3176 512.349 18.5847C512.349 19.8518 511.291 20.9077 510.021 20.9077C508.752 20.9077 507.693 19.8518 507.693 18.5847C507.693 17.3176 508.752 16.2617 510.021 16.2617Z" fill="white"/>
<path d="M526.318 16.2617C527.588 16.2617 528.646 17.3176 528.646 18.5847C528.646 19.8518 527.588 20.9077 526.318 20.9077C525.048 20.9077 523.99 19.8518 523.99 18.5847C523.99 17.3176 525.048 16.2617 526.318 16.2617Z" fill="white"/>
<path d="M542.613 16.2617C543.883 16.2617 544.941 17.3176 544.941 18.5847C544.941 19.8518 543.883 20.9077 542.613 20.9077C541.343 20.9077 540.285 19.8518 540.285 18.5847C540.497 17.3176 541.343 16.2617 542.613 16.2617Z" fill="white"/>
<path d="M559.119 16.2617C560.389 16.2617 561.447 17.3176 561.447 18.5847C561.447 19.8518 560.389 20.9077 559.119 20.9077C557.849 20.9077 556.791 19.8518 556.791 18.5847C556.791 17.3176 557.849 16.2617 559.119 16.2617Z" fill="white"/>
<path d="M575.414 16.2617C576.684 16.2617 577.742 17.3176 577.742 18.5847C577.742 19.8518 576.684 20.9077 575.414 20.9077C574.144 20.9077 573.086 19.8518 573.086 18.5847C573.086 17.3176 574.144 16.2617 575.414 16.2617Z" fill="white"/>
<path d="M591.71 16.4727C592.98 16.4727 594.038 17.5286 594.038 18.7956C594.038 20.0627 592.98 21.1186 591.71 21.1186C590.44 21.1186 589.594 20.0627 589.594 18.7956C589.594 17.3174 590.652 16.4727 591.71 16.4727Z" fill="white"/>
<path d="M608.218 16.4727C609.276 16.4727 610.334 17.3174 610.334 18.5845C610.334 19.6404 609.488 20.6963 608.218 20.6963C607.16 20.6963 606.102 19.8515 606.102 18.5845C606.102 17.5286 606.948 16.4727 608.218 16.4727Z" fill="white"/>
<path d="M624.512 16.6836C625.57 16.6836 626.417 17.5283 626.417 18.5842C626.417 19.6401 625.57 20.4848 624.512 20.4848C623.454 20.4848 622.607 19.6401 622.607 18.5842C622.607 17.5283 623.454 16.6836 624.512 16.6836Z" fill="white"/>
<path d="M640.807 16.6836C641.865 16.6836 642.712 17.5283 642.712 18.5842C642.712 19.6401 641.865 20.4848 640.807 20.4848C639.749 20.4848 638.902 19.6401 638.902 18.5842C638.902 17.5283 639.749 16.6836 640.807 16.6836Z" fill="white"/>
<path d="M657.314 16.8945C658.372 16.8945 659.007 17.7393 659.007 18.584C659.007 19.4287 658.16 20.2734 657.314 20.2734C656.467 20.2734 655.621 19.4287 655.621 18.584C655.409 17.7393 656.255 16.8945 657.314 16.8945Z" fill="white"/>
<path d="M673.61 17.1055C674.457 17.1055 675.303 17.739 675.303 18.7949C675.303 19.6396 674.668 20.2732 673.61 20.2732C672.763 20.2732 672.129 19.6396 672.129 18.7949C671.917 17.739 672.763 17.1055 673.61 17.1055Z" fill="white"/>
<path d="M691.387 18.5837C691.387 19.4001 690.723 20.062 689.905 20.062C689.087 20.062 688.424 19.4001 688.424 18.5837C688.424 17.7673 689.087 17.1055 689.905 17.1055C690.723 17.1055 691.387 17.7673 691.387 18.5837Z" fill="white"/>
<path d="M706.412 17.3164C707.047 17.3164 707.682 17.9499 707.682 18.5835C707.682 19.217 707.047 19.8506 706.412 19.8506C705.777 19.8506 705.143 19.217 705.143 18.5835C704.931 17.9499 705.566 17.3164 706.412 17.3164Z" fill="white"/>
<path d="M722.707 17.3164C723.342 17.3164 723.977 17.9499 723.977 18.5835C723.977 19.217 723.342 19.8506 722.707 19.8506C722.072 19.8506 721.437 19.217 721.437 18.5835C721.437 17.9499 722.072 17.3164 722.707 17.3164Z" fill="white"/>
<path d="M740.062 18.5852C740.062 19.1684 739.588 19.6411 739.003 19.6411C738.419 19.6411 737.945 19.1684 737.945 18.5852C737.945 18.002 738.419 17.5293 739.003 17.5293C739.588 17.5293 740.062 18.002 740.062 18.5852Z" fill="white"/>
<path d="M755.298 17.7402C755.721 17.7402 756.144 18.1626 756.144 18.585C756.144 19.0073 755.721 19.4297 755.298 19.4297C754.874 19.4297 754.451 19.0073 754.451 18.585C754.451 18.1626 754.874 17.7402 755.298 17.7402Z" fill="white"/>
<path d="M771.806 17.7402C772.229 17.7402 772.652 18.1626 772.652 18.585C772.652 19.0073 772.229 19.4297 771.806 19.4297C771.382 19.4297 770.959 19.0073 770.959 18.585C770.959 18.1626 771.382 17.7402 771.806 17.7402Z" fill="white"/>
<path d="M788.1 17.9492C788.523 17.9492 788.735 18.1604 788.735 18.5828C788.735 19.0051 788.523 19.2163 788.1 19.2163C787.677 19.2163 787.465 19.0051 787.465 18.5828C787.465 18.1604 787.677 17.9492 788.1 17.9492Z" fill="white"/>
<path d="M804.397 17.9492C804.608 17.9492 805.031 18.1604 805.031 18.5828C805.031 18.7939 804.82 19.2163 804.397 19.2163C804.185 19.2163 803.762 19.0051 803.762 18.5828C803.973 18.3716 804.185 17.9492 804.397 17.9492Z" fill="white"/>
<path d="M820.902 18.1621C821.113 18.1621 821.325 18.3733 821.325 18.5845C821.325 18.7956 821.113 19.0068 820.902 19.0068C820.69 19.0068 820.479 18.7956 820.479 18.5845C820.479 18.3733 820.69 18.1621 820.902 18.1621Z" fill="white"/>
<path d="M837.198 18.373C837.41 18.373 837.41 18.5842 837.41 18.5842L837.198 18.7954C836.986 18.7954 836.986 18.5842 836.986 18.5842C836.986 18.5842 836.986 18.373 837.198 18.373Z" fill="white"/>
<path d="M853.493 18.373C853.704 18.373 853.704 18.5842 853.493 18.373C853.704 18.5842 853.493 18.7954 853.493 18.7954C853.493 18.7954 853.281 18.5842 853.493 18.373C853.281 18.5842 853.493 18.373 853.493 18.373Z" fill="white"/>
<path d="M5.07963 2.32298C5.07963 3.60593 4.03739 4.64596 2.75173 4.64596C1.46606 4.64596 0.423828 3.60593 0.423828 2.32298C0.423828 1.04003 1.46606 4.55576e-08 2.75173 1.01756e-07C4.03739 1.57954e-07 5.07963 1.04003 5.07963 2.32298Z" fill="white"/>
<path d="M19.2582 0.421875C20.3163 0.421875 21.1628 1.2666 21.1628 2.3225C21.1628 3.3784 20.3163 4.22312 19.2582 4.22312C18.2 4.22312 17.3535 3.3784 17.3535 2.3225C17.3535 1.2666 18.2 0.421875 19.2582 0.421875Z" fill="white"/>
<path d="M35.5531 0.421875C36.6112 0.421875 37.4577 1.2666 37.4577 2.3225C37.4577 3.3784 36.6112 4.22312 35.5531 4.22312C34.4949 4.22312 33.6484 3.3784 33.6484 2.3225C33.6484 1.2666 34.4949 0.421875 35.5531 0.421875Z" fill="white"/>
<path d="M51.848 0.421875C52.9061 0.421875 53.7527 1.2666 53.7527 2.3225C53.7527 3.3784 52.9061 4.22312 51.848 4.22312C50.7899 4.22312 49.9434 3.3784 49.9434 2.3225C49.9434 1.2666 50.7899 0.421875 51.848 0.421875Z" fill="white"/>
<path d="M68.3558 0.421875C69.4139 0.421875 70.2605 1.2666 70.2605 2.3225C70.2605 3.3784 69.4139 4.22312 68.3558 4.22312C67.2977 4.22312 66.4512 3.3784 66.4512 2.3225C66.4512 1.2666 67.2977 0.421875 68.3558 0.421875Z" fill="white"/>
<path d="M84.6507 0.421875C85.7089 0.421875 86.5554 1.2666 86.5554 2.3225C86.5554 3.3784 85.7089 4.22312 84.6507 4.22312C83.5926 4.22312 82.7461 3.3784 82.7461 2.3225C82.7461 1.2666 83.5926 0.421875 84.6507 0.421875Z" fill="white"/>
<path d="M100.946 0.421875C102.004 0.421875 102.85 1.2666 102.85 2.3225C102.85 3.3784 102.004 4.22312 100.946 4.22312C99.8875 4.22312 99.041 3.3784 99.041 2.3225C99.041 1.2666 99.8875 0.421875 100.946 0.421875Z" fill="white"/>
<path d="M117.243 0.421875C118.301 0.421875 119.147 1.2666 119.147 2.3225C119.147 3.3784 118.301 4.22312 117.243 4.22312C116.184 4.22312 115.338 3.3784 115.338 2.3225C115.55 1.2666 116.396 0.421875 117.243 0.421875Z" fill="white"/>
<path d="M133.748 0.421875C134.807 0.421875 135.653 1.2666 135.653 2.3225C135.653 3.3784 134.807 4.22312 133.748 4.22312C132.69 4.22312 131.844 3.3784 131.844 2.3225C131.844 1.2666 132.69 0.421875 133.748 0.421875Z" fill="white"/>
<path d="M150.043 0.421875C151.101 0.421875 151.948 1.2666 151.948 2.3225C151.948 3.3784 151.101 4.22312 150.043 4.22312C148.985 4.01194 148.139 3.16722 148.139 2.3225C148.139 1.2666 148.985 0.421875 150.043 0.421875Z" fill="white"/>
<path d="M166.34 0.421875C167.398 0.421875 168.244 1.2666 168.244 2.3225C168.244 3.3784 167.398 4.22312 166.34 4.22312C165.281 4.22312 164.646 3.3784 164.646 2.3225C164.646 1.2666 165.493 0.421875 166.34 0.421875Z" fill="white"/>
<path d="M182.846 0.421875C183.904 0.421875 184.751 1.2666 184.751 2.3225C184.751 3.3784 183.904 4.22312 182.846 4.22312C181.788 4.22312 180.941 3.3784 180.941 2.3225C180.941 1.2666 181.788 0.421875 182.846 0.421875Z" fill="white"/>
<path d="M199.141 0.421875C200.199 0.421875 201.046 1.2666 201.046 2.3225C201.046 3.3784 200.199 4.22312 199.141 4.22312C198.083 4.22312 197.236 3.3784 197.236 2.3225C197.236 1.2666 198.083 0.421875 199.141 0.421875Z" fill="white"/>
<path d="M215.436 0.421875C216.494 0.421875 217.341 1.2666 217.341 2.3225C217.341 3.3784 216.494 4.22312 215.436 4.22312C214.378 4.22312 213.531 3.3784 213.531 2.3225C213.743 1.2666 214.589 0.421875 215.436 0.421875Z" fill="white"/>
<path d="M231.944 0.421875C233.002 0.421875 233.848 1.2666 233.848 2.3225C233.848 3.3784 233.002 4.22312 231.944 4.22312C230.886 4.22312 230.039 3.3784 230.039 2.3225C230.039 1.2666 230.886 0.421875 231.944 0.421875Z" fill="white"/>
<path d="M249.931 2.32421C249.931 3.25726 249.173 4.01365 248.238 4.01365C247.303 4.01365 246.545 3.25726 246.545 2.32421C246.545 1.39115 247.303 0.634766 248.238 0.634766C249.173 0.634766 249.931 1.39115 249.931 2.32421Z" fill="white"/>
<path d="M266.228 2.32421C266.228 3.25726 265.47 4.01365 264.535 4.01365C263.6 4.01365 262.842 3.25726 262.842 2.32421C262.842 1.39115 263.6 0.634766 264.535 0.634766C265.47 0.634766 266.228 1.39115 266.228 2.32421Z" fill="white"/>
<path d="M282.734 2.32421C282.734 3.25726 281.976 4.01365 281.041 4.01365C280.106 4.01365 279.348 3.25726 279.348 2.32421C279.348 1.39115 280.106 0.634766 281.041 0.634766C281.976 0.634766 282.734 1.39115 282.734 2.32421Z" fill="white"/>
<path d="M299.029 2.32421C299.029 3.25726 298.271 4.01365 297.336 4.01365C296.401 4.01365 295.643 3.25726 295.643 2.32421C295.643 1.39115 296.401 0.634766 297.336 0.634766C298.271 0.634766 299.029 1.39115 299.029 2.32421Z" fill="white"/>
<path d="M313.631 0.634766C314.689 0.634766 315.324 1.47949 315.324 2.32421C315.324 3.16893 314.477 4.01365 313.631 4.01365C312.784 4.01365 311.937 3.16893 311.937 2.32421C311.937 1.47949 312.784 0.634766 313.631 0.634766Z" fill="white"/>
<path d="M329.927 0.634766C330.985 0.634766 331.62 1.47949 331.62 2.32421C331.62 3.16893 330.774 4.01365 329.927 4.01365C329.081 4.01365 328.234 3.16893 328.234 2.32421C328.234 1.47949 329.081 0.634766 329.927 0.634766Z" fill="white"/>
<path d="M346.433 0.634766C347.491 0.634766 348.126 1.47949 348.126 2.32421C348.126 3.16893 347.28 4.01365 346.433 4.01365C345.587 4.01365 344.74 3.16893 344.74 2.32421C344.74 1.47949 345.375 0.634766 346.433 0.634766Z" fill="white"/>
<path d="M362.73 0.634766C363.788 0.634766 364.423 1.47949 364.423 2.32421C364.423 3.16893 363.577 4.01365 362.73 4.01365C361.884 4.01365 361.037 3.16893 361.037 2.32421C361.037 1.47949 361.884 0.634766 362.73 0.634766Z" fill="white"/>
<path d="M380.718 2.32421C380.718 3.25726 379.96 4.01365 379.025 4.01365C378.09 4.01365 377.332 3.25726 377.332 2.32421C377.332 1.39115 378.09 0.634766 379.025 0.634766C379.96 0.634766 380.718 1.39115 380.718 2.32421Z" fill="white"/>
<path d="M397.224 2.32421C397.224 3.25726 396.466 4.01365 395.531 4.01365C394.596 4.01365 393.838 3.25726 393.838 2.32421C393.838 1.39115 394.596 0.634766 395.531 0.634766C396.466 0.634766 397.224 1.39115 397.224 2.32421Z" fill="white"/>
<path d="M411.828 0.634766C412.674 0.634766 413.521 1.47949 413.521 2.32421C413.521 3.16893 412.674 4.01365 411.828 4.01365C410.981 4.01365 410.135 3.16893 410.135 2.32421C410.135 1.47949 410.981 0.634766 411.828 0.634766Z" fill="white"/>
<path d="M428.123 0.634766C428.969 0.634766 429.816 1.47949 429.816 2.32421C429.816 3.16893 428.969 4.01365 428.123 4.01365C427.276 4.01365 426.43 3.16893 426.43 2.32421C426.43 1.47949 427.276 0.634766 428.123 0.634766Z" fill="white"/>
<path d="M446.322 2.32421C446.322 3.25726 445.564 4.01365 444.629 4.01365C443.694 4.01365 442.936 3.25726 442.936 2.32421C442.936 1.39115 443.694 0.634766 444.629 0.634766C445.564 0.634766 446.322 1.39115 446.322 2.32421Z" fill="white"/>
<path d="M462.618 2.32421C462.618 3.25726 461.86 4.01365 460.925 4.01365C459.99 4.01365 459.232 3.25726 459.232 2.32421C459.232 1.39115 459.99 0.634766 460.925 0.634766C461.86 0.634766 462.618 1.39115 462.618 2.32421Z" fill="white"/>
<path d="M477.22 0.634766C478.067 0.634766 478.913 1.26831 478.913 2.32421C478.913 3.38011 478.279 4.01365 477.22 4.01365C476.374 4.01365 475.527 3.38011 475.527 2.32421C475.527 1.26831 476.374 0.634766 477.22 0.634766Z" fill="white"/>
<path d="M493.726 0.634766C494.573 0.634766 495.419 1.26831 495.419 2.32421C495.419 3.38011 494.784 4.01365 493.726 4.01365C492.88 4.01365 492.033 3.38011 492.033 2.32421C492.033 1.26831 492.668 0.634766 493.726 0.634766Z" fill="white"/>
<path d="M511.714 2.32421C511.714 3.25726 510.956 4.01365 510.021 4.01365C509.086 4.01365 508.328 3.25726 508.328 2.32421C508.328 1.39115 509.086 0.634766 510.021 0.634766C510.956 0.634766 511.714 1.39115 511.714 2.32421Z" fill="white"/>
<path d="M528.011 2.32421C528.011 3.25726 527.253 4.01365 526.318 4.01365C525.383 4.01365 524.625 3.25726 524.625 2.32421C524.625 1.39115 525.383 0.634766 526.318 0.634766C527.253 0.634766 528.011 1.39115 528.011 2.32421Z" fill="white"/>
<path d="M542.613 0.634766C543.459 0.634766 544.094 1.26831 544.094 2.32421C544.094 3.16893 543.459 4.01365 542.613 4.01365C541.766 4.01365 540.92 3.38011 540.92 2.32421C541.132 1.47949 541.766 0.634766 542.613 0.634766Z" fill="white"/>
<path d="M559.119 0.634766C559.965 0.634766 560.6 1.26831 560.6 2.32421C560.6 3.16893 559.965 4.01365 559.119 4.01365C558.272 4.01365 557.426 3.38011 557.426 2.32421C557.426 1.47949 558.272 0.634766 559.119 0.634766Z" fill="white"/>
<path d="M575.415 0.634766C576.261 0.634766 577.108 1.26831 577.108 2.32421C577.108 3.16893 576.473 4.01365 575.415 4.01365C574.568 4.01365 573.934 3.38011 573.934 2.32421C573.934 1.47949 574.568 0.634766 575.415 0.634766Z" fill="white"/>
<path d="M591.71 0.634766C592.556 0.634766 593.191 1.26831 593.191 2.11303C593.191 2.95775 592.556 3.59129 591.71 3.59129C590.863 3.59129 590.229 2.95775 590.229 2.11303C590.229 1.47949 590.863 0.634766 591.71 0.634766Z" fill="white"/>
<path d="M609.699 2.32201C609.699 3.13843 609.036 3.80027 608.218 3.80027C607.4 3.80027 606.736 3.13843 606.736 2.32201C606.736 1.50559 607.4 0.84375 608.218 0.84375C609.036 0.84375 609.699 1.50559 609.699 2.32201Z" fill="white"/>
<path d="M625.782 2.32372C625.782 3.02351 625.213 3.5908 624.512 3.5908C623.811 3.5908 623.242 3.02351 623.242 2.32372C623.242 1.62393 623.811 1.05664 624.512 1.05664C625.213 1.05664 625.782 1.62393 625.782 2.32372Z" fill="white"/>
<path d="M640.807 1.05664C641.442 1.05664 642.077 1.69018 642.077 2.32372C642.077 2.95726 641.442 3.5908 640.807 3.5908C640.172 3.5908 639.537 2.95726 639.537 2.32372C639.537 1.479 640.172 1.05664 640.807 1.05664Z" fill="white"/>
<path d="M657.315 1.05664C657.95 1.05664 658.584 1.479 658.584 2.32372C658.584 3.16844 658.161 3.5908 657.315 3.5908C656.468 3.5908 656.045 2.95726 656.045 2.32372C656.045 1.69018 656.68 1.05664 657.315 1.05664Z" fill="white"/>
<path d="M673.609 1.26758C674.244 1.26758 674.667 1.68994 674.667 2.32348C674.667 2.95702 674.244 3.37938 673.609 3.37938C672.974 3.37938 672.551 2.95702 672.551 2.32348C672.551 1.68994 672.974 1.26758 673.609 1.26758Z" fill="white"/>
<path d="M689.906 1.26758C690.541 1.26758 690.964 1.68994 690.964 2.32348C690.964 2.95702 690.541 3.37938 689.906 3.37938C689.271 3.37938 688.848 2.95702 688.848 2.32348C689.059 1.68994 689.483 1.26758 689.906 1.26758Z" fill="white"/>
<path d="M706.413 1.26758C706.836 1.26758 707.259 1.68994 707.259 2.1123C707.259 2.53466 706.836 2.95702 706.413 2.95702C705.99 2.95702 705.566 2.53466 705.566 2.1123C705.566 1.68994 705.778 1.26758 706.413 1.26758Z" fill="white"/>
<path d="M723.554 2.32324C723.554 2.78976 723.175 3.16796 722.708 3.16796C722.24 3.16796 721.861 2.78976 721.861 2.32324C721.861 1.85671 722.24 1.47852 722.708 1.47852C723.175 1.47852 723.554 1.85671 723.554 2.32324Z" fill="white"/>
<path d="M739.637 2.32299C739.637 2.67289 739.353 2.95653 739.002 2.95653C738.651 2.95653 738.367 2.67289 738.367 2.32299C738.367 1.9731 738.651 1.68945 739.002 1.68945C739.353 1.68945 739.637 1.9731 739.637 2.32299Z" fill="white"/>
<path d="M755.934 2.32299C755.934 2.67289 755.649 2.95653 755.299 2.95653C754.948 2.95653 754.664 2.67289 754.664 2.32299C754.664 1.9731 754.948 1.68945 755.299 1.68945C755.649 1.68945 755.934 1.9731 755.934 2.32299Z" fill="white"/>
<path d="M771.805 1.68945C772.017 1.68945 772.44 1.90063 772.44 2.32299C772.44 2.74535 772.228 2.95653 771.805 2.95653C771.593 2.95653 771.17 2.74535 771.17 2.32299C771.17 1.90063 771.382 1.68945 771.805 1.68945Z" fill="white"/>
<path d="M788.101 1.90039C788.313 1.90039 788.524 2.11157 788.524 2.32275C788.524 2.53393 788.313 2.74511 788.101 2.74511C787.889 2.74511 787.678 2.53393 787.678 2.32275C787.678 2.11157 787.889 1.90039 788.101 1.90039Z" fill="white"/>
<path d="M804.395 1.90039C804.607 1.90039 804.818 2.11157 804.818 2.32275C804.818 2.53393 804.607 2.74511 804.395 2.74511C804.184 2.53393 804.184 2.53393 804.184 2.32275C804.184 2.11157 804.184 1.90039 804.395 1.90039Z" fill="white"/>
<path d="M820.903 1.90039C821.114 1.90039 821.114 2.11157 821.114 2.11157C821.114 2.32275 820.903 2.32275 820.903 2.32275L820.691 2.11157C820.48 2.11157 820.691 1.90039 820.903 1.90039Z" fill="white"/>
<path d="M837.198 2.11133C837.198 2.11133 837.409 2.11133 837.198 2.11133C837.409 2.32251 837.198 2.53369 837.198 2.53369C837.198 2.53369 836.986 2.32251 837.198 2.11133C836.986 2.11133 837.198 2.11133 837.198 2.11133Z" fill="white"/>
<path d="M853.494 2.11133L853.706 2.32251L853.494 2.32251L853.494 2.11133Z" fill="white"/>
</g>
<defs>
<clipPath id="clip0">
<rect width="102" height="870" fill="white" transform="matrix(-4.37114e-08 1 1 4.37114e-08 0 0)"/>
</clipPath>
</defs>
</svg>
