<svg width="102" height="870" viewBox="0 0 102 870" fill="none" xmlns="http://www.w3.org/2000/svg">
<g opacity="0.1" clip-path="url(#clip0)">
<path d="M98.4102 867.25C98.4102 866.192 99.2549 865.345 100.311 865.345C101.367 865.345 102.211 866.192 102.211 867.25C102.211 868.308 101.367 869.154 100.311 869.154C99.2549 868.943 98.4102 868.096 98.4102 867.25Z" fill="white"/>
<path d="M100.31 849.26C101.127 849.26 101.789 849.923 101.789 850.741C101.789 851.559 101.127 852.223 100.31 852.223C99.4939 852.223 98.832 851.559 98.832 850.741C98.832 849.923 99.4939 849.26 100.31 849.26Z" fill="white"/>
<path d="M100.31 832.965C101.127 832.965 101.789 833.628 101.789 834.446C101.789 835.264 101.127 835.928 100.31 835.928C99.4939 835.928 98.832 835.264 98.832 834.446C98.832 833.628 99.4939 832.965 100.31 832.965Z" fill="white"/>
<path d="M100.31 816.67C101.127 816.67 101.789 817.333 101.789 818.151C101.789 818.97 101.127 819.633 100.31 819.633C99.4939 819.633 98.832 818.97 98.832 818.151C98.832 817.333 99.4939 816.67 100.31 816.67Z" fill="white"/>
<path d="M100.31 800.162C101.127 800.162 101.789 800.825 101.789 801.644C101.789 802.462 101.127 803.125 100.31 803.125C99.4939 803.125 98.832 802.462 98.832 801.644C98.832 800.825 99.4939 800.162 100.31 800.162Z" fill="white"/>
<path d="M100.31 783.867C101.127 783.867 101.789 784.531 101.789 785.349C101.789 786.167 101.127 786.83 100.31 786.83C99.4939 786.83 98.832 786.167 98.832 785.349C98.832 784.531 99.4939 783.867 100.31 783.867Z" fill="white"/>
<path d="M100.31 767.572C101.127 767.572 101.789 768.236 101.789 769.054C101.789 769.872 101.127 770.535 100.31 770.535C99.4939 770.535 98.832 769.872 98.832 769.054C98.832 768.236 99.4939 767.572 100.31 767.572Z" fill="white"/>
<path d="M100.31 751.277C101.127 751.277 101.789 751.941 101.789 752.759C101.789 753.577 101.127 754.24 100.31 754.24C99.4939 754.24 98.832 753.577 98.832 752.759C98.832 751.941 99.4939 751.277 100.31 751.277Z" fill="white"/>
<path d="M100.31 734.77C101.127 734.77 101.789 735.433 101.789 736.251C101.789 737.069 101.127 737.732 100.31 737.732C99.4939 737.732 98.832 737.069 98.832 736.251C98.832 735.433 99.4939 734.77 100.31 734.77Z" fill="white"/>
<path d="M100.31 718.475C101.127 718.475 101.789 719.138 101.789 719.956C101.789 720.774 101.127 721.438 100.31 721.438C99.4939 721.438 98.832 720.774 98.832 719.956C98.832 719.138 99.4939 718.475 100.31 718.475Z" fill="white"/>
<path d="M98.6211 703.661C98.6211 702.815 99.2546 702.18 100.099 702.18C100.944 702.18 101.578 702.815 101.578 703.661C101.578 704.508 100.944 705.143 100.099 705.143C99.4658 705.143 98.6211 704.508 98.6211 703.661Z" fill="white"/>
<path d="M98.6211 687.153C98.6211 686.307 99.2546 685.672 100.099 685.672C100.944 685.672 101.578 686.307 101.578 687.153C101.578 688 100.944 688.635 100.099 688.635C99.4658 688.635 98.6211 688 98.6211 687.153Z" fill="white"/>
<path d="M98.6211 670.858C98.6211 670.012 99.2546 669.377 100.099 669.377C100.944 669.377 101.578 670.012 101.578 670.858C101.578 671.705 100.944 672.34 100.099 672.34C99.4658 672.34 98.6211 671.705 98.6211 670.858Z" fill="white"/>
<path d="M98.6211 654.564C98.6211 653.717 99.2546 653.082 100.099 653.082C100.944 653.082 101.578 653.717 101.578 654.564C101.578 655.41 100.944 656.045 100.099 656.045C99.4658 656.045 98.6211 655.41 98.6211 654.564Z" fill="white"/>
<path d="M98.6211 638.056C98.6211 637.209 99.2546 636.574 100.099 636.574C100.944 636.574 101.578 637.209 101.578 638.056C101.578 638.902 100.944 639.537 100.099 639.537C99.4658 639.537 98.6211 638.902 98.6211 638.056Z" fill="white"/>
<path d="M98.6211 621.761C98.6211 620.914 99.2546 620.279 100.099 620.279C100.944 620.279 101.578 620.914 101.578 621.761C101.578 622.607 100.944 623.242 100.099 623.242C99.4658 623.242 98.6211 622.607 98.6211 621.761Z" fill="white"/>
<path d="M98.6211 605.466C98.6211 604.619 99.2546 603.984 100.099 603.984C100.944 603.984 101.578 604.619 101.578 605.466C101.578 606.312 100.944 606.947 100.099 606.947C99.4658 606.947 98.6211 606.312 98.6211 605.466Z" fill="white"/>
<path d="M98.6211 588.958C98.6211 588.112 99.2546 587.477 100.099 587.477C100.944 587.477 101.578 588.112 101.578 588.958C101.578 589.805 100.944 590.44 100.099 590.44C99.4658 590.651 98.6211 589.805 98.6211 588.958Z" fill="white"/>
<path d="M98.6211 572.663C98.6211 571.817 99.2546 571.182 100.099 571.182C100.944 571.182 101.578 571.817 101.578 572.663C101.578 573.51 100.944 574.145 100.099 574.145C99.4658 574.145 98.6211 573.51 98.6211 572.663Z" fill="white"/>
<path d="M98.6211 556.368C98.6211 555.522 99.2546 554.887 100.099 554.887C100.944 554.887 101.578 555.522 101.578 556.368C101.578 557.215 100.944 557.85 100.099 557.85C99.4658 557.85 98.6211 557.215 98.6211 556.368Z" fill="white"/>
<path d="M98.6211 540.073C98.6211 539.227 99.2546 538.592 100.099 538.592C100.944 538.592 101.578 539.227 101.578 540.073C101.578 540.92 100.944 541.555 100.099 541.555C99.4658 541.555 98.6211 540.708 98.6211 540.073Z" fill="white"/>
<path d="M98.6211 523.565C98.6211 522.719 99.2546 522.084 100.099 522.084C100.944 522.084 101.578 522.719 101.578 523.565C101.578 524.412 100.944 525.047 100.099 525.047C99.4658 525.047 98.6211 524.412 98.6211 523.565Z" fill="white"/>
<path d="M98.6211 507.271C98.6211 506.424 99.2546 505.789 100.099 505.789C100.944 505.789 101.578 506.424 101.578 507.271C101.578 508.117 100.944 508.752 100.099 508.752C99.4658 508.752 98.6211 508.117 98.6211 507.271Z" fill="white"/>
<path d="M98.6211 490.976C98.6211 490.129 99.2546 489.494 100.099 489.494C100.944 489.494 101.578 490.129 101.578 490.976C101.578 491.822 100.944 492.457 100.099 492.457C99.4658 492.457 98.6211 491.822 98.6211 490.976Z" fill="white"/>
<path d="M98.6211 474.468C98.6211 473.621 99.2546 472.986 100.099 472.986C100.944 472.986 101.578 473.621 101.578 474.468C101.578 475.314 100.944 475.949 100.099 475.949C99.4658 475.949 98.6211 475.314 98.6211 474.468Z" fill="white"/>
<path d="M98.6211 458.173C98.6211 457.326 99.2546 456.692 100.099 456.692C100.944 456.692 101.578 457.326 101.578 458.173C101.578 459.019 100.944 459.654 100.099 459.654C99.4658 459.654 98.6211 459.019 98.6211 458.173Z" fill="white"/>
<path d="M98.6211 441.878C98.6211 441.031 99.2546 440.397 100.099 440.397C100.944 440.397 101.578 441.031 101.578 441.878C101.578 442.724 100.944 443.359 100.099 443.359C99.4658 443.359 98.6211 442.724 98.6211 441.878Z" fill="white"/>
<path d="M98.6211 425.37C98.6211 424.524 99.2546 423.889 100.099 423.889C100.944 423.889 101.578 424.524 101.578 425.37C101.578 426.217 100.944 426.852 100.099 426.852C99.4658 426.852 98.6211 426.217 98.6211 425.37Z" fill="white"/>
<path d="M98.6211 409.075C98.6211 408.229 99.2546 407.594 100.099 407.594C100.944 407.594 101.578 408.229 101.578 409.075C101.578 409.922 100.944 410.557 100.099 410.557C99.4658 410.557 98.6211 409.922 98.6211 409.075Z" fill="white"/>
<path d="M98.6211 392.78C98.6211 391.934 99.2546 391.299 100.099 391.299C100.944 391.299 101.578 391.934 101.578 392.78C101.578 393.627 100.944 394.262 100.099 394.262C99.4658 394.262 98.6211 393.627 98.6211 392.78Z" fill="white"/>
<path d="M98.6211 376.273C98.6211 375.426 99.2546 374.791 100.099 374.791C100.944 374.791 101.578 375.426 101.578 376.273C101.578 377.119 100.944 377.754 100.099 377.754C99.4658 377.966 98.6211 377.119 98.6211 376.273Z" fill="white"/>
<path d="M98.6211 359.978C98.6211 359.131 99.2546 358.496 100.099 358.496C100.944 358.496 101.578 359.131 101.578 359.978C101.578 360.824 100.944 361.459 100.099 361.459C99.4658 361.459 98.6211 360.824 98.6211 359.978Z" fill="white"/>
<path d="M98.6211 343.683C98.6211 342.836 99.2546 342.201 100.099 342.201C100.944 342.201 101.578 342.836 101.578 343.683C101.578 344.529 100.944 345.164 100.099 345.164C99.4658 345.164 98.6211 344.529 98.6211 343.683Z" fill="white"/>
<path d="M98.6211 327.388C98.6211 326.541 99.2546 325.906 100.099 325.906C100.944 325.906 101.578 326.541 101.578 327.388C101.578 328.234 100.944 328.869 100.099 328.869C99.4658 328.869 98.6211 328.023 98.6211 327.388Z" fill="white"/>
<path d="M98.6211 310.88C98.6211 310.033 99.2546 309.399 100.099 309.399C100.944 309.399 101.578 310.033 101.578 310.88C101.578 311.726 100.944 312.361 100.099 312.361C99.4658 312.361 98.6211 311.726 98.6211 310.88Z" fill="white"/>
<path d="M98.6211 294.585C98.6211 293.739 99.2546 293.104 100.099 293.104C100.944 293.104 101.578 293.739 101.578 294.585C101.578 295.432 100.944 296.066 100.099 296.066C99.4658 296.066 98.6211 295.432 98.6211 294.585Z" fill="white"/>
<path d="M100.31 276.809C101.127 276.809 101.789 277.472 101.789 278.29C101.789 279.108 101.127 279.771 100.31 279.771C99.4939 279.771 98.832 279.108 98.832 278.29C98.832 277.472 99.4939 276.809 100.31 276.809Z" fill="white"/>
<path d="M98.832 261.783C98.832 260.936 99.4656 260.513 100.099 260.513C100.944 260.513 101.366 261.148 101.366 261.783C101.366 262.629 100.733 263.053 100.099 263.053C99.4656 263.264 98.832 262.629 98.832 261.783Z" fill="white"/>
<path d="M98.832 245.488C98.832 244.853 99.4656 244.218 100.099 244.218C100.733 244.218 101.366 244.853 101.366 245.488C101.366 246.123 100.733 246.758 100.099 246.758C99.4656 246.758 98.832 246.123 98.832 245.488Z" fill="white"/>
<path d="M99.043 229.193C99.043 228.558 99.6765 227.923 100.31 227.923C100.944 227.923 101.577 228.347 101.577 229.193C101.577 229.828 101.155 230.463 100.31 230.463C99.4653 230.251 99.043 229.828 99.043 229.193Z" fill="white"/>
<path d="M100.312 211.628C100.895 211.628 101.368 212.102 101.368 212.686C101.368 213.27 100.895 213.744 100.312 213.744C99.7286 213.744 99.2559 213.27 99.2559 212.686C99.2559 212.102 99.7286 211.628 100.312 211.628Z" fill="white"/>
<path d="M100.312 195.333C100.895 195.333 101.368 195.807 101.368 196.391C101.368 196.975 100.895 197.449 100.312 197.449C99.7286 197.449 99.2559 196.975 99.2559 196.391C99.2559 195.807 99.7286 195.333 100.312 195.333Z" fill="white"/>
<path d="M99.2559 180.095C99.2559 179.672 99.6782 179.037 100.312 179.037C100.734 179.037 101.368 179.46 101.368 180.095C101.368 180.518 100.945 180.941 100.312 180.941C99.6782 180.941 99.2559 180.518 99.2559 180.095Z" fill="white"/>
<path d="M99.2559 163.589C99.2559 163.165 99.6782 162.742 100.101 162.742C100.523 162.742 100.945 163.165 100.945 163.589C100.945 164.012 100.523 164.435 100.101 164.435C99.6782 164.647 99.2559 164.224 99.2559 163.589Z" fill="white"/>
<path d="M99.4668 147.292C99.4668 146.869 99.8892 146.446 100.312 146.446C100.734 146.446 101.156 146.869 101.156 147.292C101.156 147.715 100.734 148.139 100.312 148.139C99.8892 148.139 99.4668 147.715 99.4668 147.292Z" fill="white"/>
<path d="M99.4668 130.998C99.4668 130.575 99.678 130.363 100.1 130.363C100.523 130.363 100.734 130.575 100.734 130.998C100.734 131.421 100.523 131.633 100.1 131.633C99.8892 131.633 99.4668 131.421 99.4668 130.998Z" fill="white"/>
<path d="M99.6758 114.701C99.6758 114.278 99.887 114.066 100.309 114.066C100.732 114.066 100.943 114.278 100.943 114.701C100.943 115.124 100.732 115.336 100.309 115.336C99.887 115.124 99.6758 114.913 99.6758 114.701Z" fill="white"/>
<path d="M99.6758 98.1948C99.6758 97.9832 99.887 97.7715 100.098 97.7715C100.309 97.7715 100.521 97.9832 100.521 98.1948C100.521 98.4065 100.309 98.6181 100.098 98.6181C99.887 98.8298 99.6758 98.6181 99.6758 98.1948Z" fill="white"/>
<path d="M100.311 81.4758C100.544 81.4758 100.733 81.6652 100.733 81.899C100.733 82.1327 100.544 82.3223 100.311 82.3223C100.078 82.3223 99.8887 82.1327 99.8887 81.899C99.8887 81.6652 100.078 81.4758 100.311 81.4758Z" fill="white"/>
<path d="M99.8887 65.6048C99.8887 65.3932 100.1 65.1815 100.311 65.1815C100.522 65.1815 100.733 65.3932 100.733 65.6048C100.522 65.8164 100.522 65.8164 100.311 65.8164C100.1 65.8164 99.8887 65.8164 99.8887 65.6048Z" fill="white"/>
<path d="M99.8887 49.0972C99.8887 48.8856 100.1 48.8856 100.1 48.8856C100.311 48.8856 100.311 49.0972 100.311 49.0972L100.1 49.3088C100.1 49.5205 99.8887 49.3088 99.8887 49.0972Z" fill="white"/>
<path d="M100.1 32.8024C100.1 32.8024 100.1 32.5908 100.1 32.8024C100.311 32.5908 100.522 32.8024 100.522 32.8024C100.311 32.8024 100.311 33.0141 100.1 32.8024C100.1 33.0141 100.1 32.8024 100.1 32.8024Z" fill="white"/>
<path d="M100.1 16.5059L100.311 16.2943V16.5059H100.1Z" fill="white"/>
<path d="M83.8391 864.498C85.3553 864.498 86.5844 865.729 86.5844 867.249C86.5844 868.768 85.3553 870 83.8391 870C82.3229 870 81.0938 868.768 81.0938 867.249C81.0938 865.729 82.3229 864.498 83.8391 864.498Z" fill="white"/>
<path d="M81.7266 850.742C81.7266 849.473 82.7825 848.415 84.0495 848.415C85.3166 848.415 86.3725 849.473 86.3725 850.742C86.3725 852.012 85.3166 853.07 84.0495 853.07C82.7825 853.07 81.7266 852.012 81.7266 850.742Z" fill="white"/>
<path d="M81.7266 834.446C81.7266 833.176 82.7825 832.118 84.0495 832.118C85.3166 832.118 86.3725 833.176 86.3725 834.446C86.3725 835.715 85.3166 836.773 84.0495 836.773C82.7825 836.773 81.7266 835.715 81.7266 834.446Z" fill="white"/>
<path d="M81.7266 818.151C81.7266 816.881 82.7825 815.823 84.0495 815.823C85.3166 815.823 86.3725 816.881 86.3725 818.151C86.3725 819.42 85.3166 820.479 84.0495 820.479C82.7825 820.479 81.7266 819.42 81.7266 818.151Z" fill="white"/>
<path d="M81.7266 801.645C81.7266 800.375 82.7825 799.317 84.0495 799.317C85.3166 799.317 86.3725 800.375 86.3725 801.645C86.3725 802.915 85.3166 803.973 84.0495 803.973C82.7825 803.973 81.7266 802.915 81.7266 801.645Z" fill="white"/>
<path d="M81.7266 785.348C81.7266 784.078 82.7825 783.02 84.0495 783.02C85.3166 783.02 86.1613 784.078 86.1613 785.348C86.1613 786.618 85.1054 787.676 83.8384 787.676C82.5713 787.676 81.7266 786.618 81.7266 785.348Z" fill="white"/>
<path d="M81.7266 769.054C81.7266 767.784 82.7825 766.726 84.0495 766.726C85.3166 766.726 86.3725 767.784 86.3725 769.054C86.3725 770.323 85.1054 771.17 83.8384 771.17C82.5713 771.17 81.7266 770.323 81.7266 769.054Z" fill="white"/>
<path d="M81.7266 752.759C81.7266 751.489 82.7825 750.431 84.0495 750.431C85.3166 750.431 86.1613 751.489 86.1613 752.759C86.1613 754.028 85.1054 754.875 83.8384 754.875C82.5713 754.875 81.7266 753.817 81.7266 752.759Z" fill="white"/>
<path d="M81.7266 736.252C81.7266 734.982 82.7825 733.924 84.0495 733.924C85.3166 733.924 86.3725 734.982 86.3725 736.252C86.3725 737.522 85.3166 738.58 84.0495 738.58C82.7825 738.58 81.7266 737.522 81.7266 736.252Z" fill="white"/>
<path d="M81.7266 719.956C81.7266 718.686 82.7825 717.628 84.0495 717.628C85.3166 717.628 86.3725 718.686 86.3725 719.956C86.3725 721.226 85.1054 722.072 83.8384 722.072C82.5713 722.072 81.7266 721.226 81.7266 719.956Z" fill="white"/>
<path d="M83.8386 701.332C85.1216 701.332 86.1616 702.375 86.1616 703.66C86.1616 704.946 85.1216 705.988 83.8386 705.988C82.5557 705.988 81.5156 704.946 81.5156 703.66C81.5156 702.375 82.5557 701.332 83.8386 701.332Z" fill="white"/>
<path d="M83.8386 684.827C85.1216 684.827 86.1616 685.869 86.1616 687.155C86.1616 688.44 85.1216 689.482 83.8386 689.482C82.5557 689.482 81.5156 688.44 81.5156 687.155C81.5156 685.869 82.5557 684.827 83.8386 684.827Z" fill="white"/>
<path d="M81.7266 670.86C81.7266 669.59 82.7825 668.532 84.0495 668.532C85.3166 668.532 86.3725 669.59 86.3725 670.86C86.3725 672.129 85.3166 673.188 84.0495 673.188C82.5713 673.188 81.7266 672.129 81.7266 670.86Z" fill="white"/>
<path d="M83.8386 652.235C85.1216 652.235 86.1616 653.277 86.1616 654.563C86.1616 655.848 85.1216 656.891 83.8386 656.891C82.5557 656.891 81.5156 655.848 81.5156 654.563C81.5156 653.277 82.5557 652.235 83.8386 652.235Z" fill="white"/>
<path d="M83.8386 635.729C85.1216 635.729 86.1616 636.771 86.1616 638.057C86.1616 639.343 85.1216 640.385 83.8386 640.385C82.5557 640.385 81.5156 639.343 81.5156 638.057C81.5156 636.771 82.5557 635.729 83.8386 635.729Z" fill="white"/>
<path d="M83.8386 619.434C85.1216 619.434 86.1616 620.476 86.1616 621.762C86.1616 623.048 85.1216 624.09 83.8386 624.09C82.5557 624.09 81.5156 623.048 81.5156 621.762C81.5156 620.476 82.5557 619.434 83.8386 619.434Z" fill="white"/>
<path d="M81.7266 605.466C81.7266 604.196 82.7825 603.138 84.0495 603.138C85.3166 603.138 86.3725 604.196 86.3725 605.466C86.3725 606.736 85.1054 607.582 83.8384 607.582C82.5713 607.582 81.7266 606.736 81.7266 605.466Z" fill="white"/>
<path d="M81.7266 588.959C81.7266 587.689 82.7825 586.631 84.0495 586.631C85.3166 586.631 86.3725 587.689 86.3725 588.959C86.3725 590.229 85.3166 591.287 84.0495 591.287C82.5713 591.287 81.7266 590.229 81.7266 588.959Z" fill="white"/>
<path d="M83.8386 570.336C85.1216 570.336 86.1616 571.379 86.1616 572.664C86.1616 573.95 85.1216 574.992 83.8386 574.992C82.5557 574.992 81.5156 573.95 81.5156 572.664C81.5156 571.379 82.5557 570.336 83.8386 570.336Z" fill="white"/>
<path d="M83.8386 554.041C85.1216 554.041 86.1616 555.084 86.1616 556.369C86.1616 557.655 85.1216 558.697 83.8386 558.697C82.5557 558.697 81.5156 557.655 81.5156 556.369C81.5156 555.084 82.5557 554.041 83.8386 554.041Z" fill="white"/>
<path d="M83.8386 537.745C85.1216 537.745 86.1616 538.787 86.1616 540.072C86.1616 541.358 85.1216 542.4 83.8386 542.4C82.5557 542.4 81.5156 541.358 81.5156 540.072C81.5156 538.787 82.5557 537.745 83.8386 537.745Z" fill="white"/>
<path d="M81.7266 523.567C81.7266 522.297 82.7825 521.239 84.0495 521.239C85.3166 521.239 86.3725 522.297 86.3725 523.567C86.3725 524.836 85.3166 525.895 84.0495 525.895C82.5713 525.895 81.7266 524.836 81.7266 523.567Z" fill="white"/>
<path d="M83.8386 504.944C85.1216 504.944 86.1616 505.986 86.1616 507.272C86.1616 508.557 85.1216 509.6 83.8386 509.6C82.5557 509.6 81.5156 508.557 81.5156 507.272C81.5156 505.986 82.5557 504.944 83.8386 504.944Z" fill="white"/>
<path d="M83.8386 488.647C85.1216 488.647 86.1616 489.689 86.1616 490.975C86.1616 492.26 85.1216 493.303 83.8386 493.303C82.5557 493.303 81.5156 492.26 81.5156 490.975C81.5156 489.689 82.5557 488.647 83.8386 488.647Z" fill="white"/>
<path d="M83.8386 472.141C85.1216 472.141 86.1616 473.183 86.1616 474.469C86.1616 475.755 85.1216 476.797 83.8386 476.797C82.5557 476.797 81.5156 475.755 81.5156 474.469C81.5156 473.183 82.5557 472.141 83.8386 472.141Z" fill="white"/>
<path d="M81.7266 458.172C81.7266 456.902 82.7825 455.844 84.0495 455.844C85.3166 455.844 86.3725 456.902 86.3725 458.172C86.3725 459.442 85.3166 460.5 84.0495 460.5C82.5713 460.5 81.7266 459.442 81.7266 458.172Z" fill="white"/>
<path d="M83.8386 439.549C85.1216 439.549 86.1616 440.592 86.1616 441.877C86.1616 443.163 85.1216 444.205 83.8386 444.205C82.5557 444.205 81.5156 443.163 81.5156 441.877C81.5156 440.592 82.5557 439.549 83.8386 439.549Z" fill="white"/>
<path d="M81.5156 425.371C81.5156 424.102 82.5715 423.043 83.8386 423.043C85.1057 423.043 86.1616 424.102 86.1616 425.371C86.1616 426.641 85.1057 427.699 83.8386 427.699C82.5715 427.699 81.5156 426.641 81.5156 425.371Z" fill="white"/>
<path d="M81.5156 409.074C81.5156 407.805 82.5715 406.747 83.8386 406.747C85.1057 406.747 86.1616 407.805 86.1616 409.074C86.1616 410.344 85.1057 411.402 83.8386 411.402C82.5715 411.402 81.5156 410.344 81.5156 409.074Z" fill="white"/>
<path d="M81.5156 392.78C81.5156 391.51 82.5715 390.452 83.8386 390.452C85.1057 390.452 86.1616 391.51 86.1616 392.78C86.1616 394.049 85.1057 395.107 83.8386 395.107C82.5715 395.107 81.5156 394.049 81.5156 392.78Z" fill="white"/>
<path d="M81.5156 376.274C81.5156 375.004 82.5715 373.946 83.8386 373.946C85.1057 373.946 86.1616 375.004 86.1616 376.274C86.1616 377.543 85.1057 378.602 83.8386 378.602C82.5715 378.602 81.5156 377.755 81.5156 376.274Z" fill="white"/>
<path d="M81.5156 359.979C81.5156 358.709 82.5715 357.651 83.8386 357.651C85.1057 357.651 86.1616 358.709 86.1616 359.979C86.1616 361.248 85.1057 362.307 83.8386 362.307C82.5715 362.307 81.5156 361.248 81.5156 359.979Z" fill="white"/>
<path d="M81.5156 343.682C81.5156 342.412 82.5715 341.354 83.8386 341.354C85.1057 341.354 86.1616 342.412 86.1616 343.682C86.1616 344.952 85.1057 346.01 83.8386 346.01C82.5715 346.01 81.5156 344.952 81.5156 343.682Z" fill="white"/>
<path d="M81.5156 327.387C81.5156 326.117 82.5715 325.059 83.8386 325.059C85.1057 325.059 86.1616 326.117 86.1616 327.387C86.1616 328.657 85.1057 329.715 83.8386 329.715C82.5715 329.503 81.5156 328.657 81.5156 327.387Z" fill="white"/>
<path d="M81.5156 310.881C81.5156 309.611 82.5715 308.553 83.8386 308.553C85.1057 308.553 86.1616 309.611 86.1616 310.881C86.1616 312.151 85.1057 313.209 83.8386 313.209C82.5715 313.209 81.5156 312.151 81.5156 310.881Z" fill="white"/>
<path d="M81.5156 294.586C81.5156 293.316 82.5715 292.258 83.8386 292.258C85.1057 292.258 86.1616 293.316 86.1616 294.586C86.1616 295.856 85.1057 296.914 83.8386 296.914C82.5715 296.914 81.5156 295.856 81.5156 294.586Z" fill="white"/>
<path d="M81.7266 278.29C81.7266 277.02 82.7825 275.962 84.0495 275.962C85.3166 275.962 86.3725 277.02 86.3725 278.29C86.3725 279.56 85.3166 280.406 84.0495 280.406C82.7825 280.406 81.7266 279.348 81.7266 278.29Z" fill="white"/>
<path d="M83.8384 259.666C85.0047 259.666 85.9502 260.613 85.9502 261.782C85.9502 262.951 85.0047 263.898 83.8384 263.898C82.672 263.898 81.7266 262.951 81.7266 261.782C81.7266 260.613 82.672 259.666 83.8384 259.666Z" fill="white"/>
<path d="M81.9375 245.488C81.9375 244.43 82.7822 243.583 83.8381 243.583C84.894 243.583 85.7387 244.43 85.7387 245.488C85.7387 246.546 84.894 247.393 83.8381 247.393C82.7822 247.393 81.9375 246.546 81.9375 245.488Z" fill="white"/>
<path d="M83.8381 227.288C84.8878 227.288 85.7387 228.141 85.7387 229.193C85.7387 230.245 84.8878 231.098 83.8381 231.098C82.7884 231.098 81.9375 230.245 81.9375 229.193C81.9375 228.141 82.7884 227.288 83.8381 227.288Z" fill="white"/>
<path d="M82.1484 212.686C82.1484 211.628 82.9932 210.993 83.8379 210.993C84.6826 210.993 85.5273 211.839 85.5273 212.686C85.5273 213.532 84.6826 214.379 83.8379 214.379C82.9932 214.379 82.1484 213.744 82.1484 212.686Z" fill="white"/>
<path d="M82.3613 196.39C82.3613 195.543 82.9949 194.697 84.0508 194.697C84.8955 194.697 85.529 195.332 85.529 196.39C85.529 197.237 84.8955 197.871 84.0508 197.871C82.9949 198.083 82.3613 197.237 82.3613 196.39Z" fill="white"/>
<path d="M83.8396 178.613C84.656 178.613 85.3178 179.277 85.3178 180.095C85.3178 180.913 84.656 181.576 83.8396 181.576C83.0232 181.576 82.3613 180.913 82.3613 180.095C82.3613 179.277 83.0232 178.613 83.8396 178.613Z" fill="white"/>
<path d="M82.5703 163.588C82.5703 162.953 83.2038 162.318 83.8374 162.318C84.4709 162.318 85.1045 162.953 85.1045 163.588C85.1045 164.223 84.4709 164.857 83.8374 164.857C83.2038 165.069 82.5703 164.434 82.5703 163.588Z" fill="white"/>
<path d="M82.7832 147.293C82.7832 146.658 83.4167 146.023 84.0503 146.023C84.6838 146.023 85.3174 146.658 85.3174 147.293C85.3174 147.928 84.4726 148.562 83.8391 148.562C83.2056 148.562 82.7832 147.928 82.7832 147.293Z" fill="white"/>
<path d="M83.8391 129.938C84.4223 129.938 84.895 130.412 84.895 130.997C84.895 131.581 84.4223 132.055 83.8391 132.055C83.2559 132.055 82.7832 131.581 82.7832 130.997C82.7832 130.412 83.2559 129.938 83.8391 129.938Z" fill="white"/>
<path d="M82.9941 114.702C82.9941 114.279 83.4165 113.856 83.8389 113.856C84.2612 113.856 84.6836 114.279 84.6836 114.702C84.6836 115.126 84.4724 115.549 83.8389 115.549C83.4165 115.549 82.9941 115.126 82.9941 114.702Z" fill="white"/>
<path d="M82.9941 98.1945C82.9941 97.7712 83.4165 97.348 83.8389 97.348C84.2612 97.348 84.6836 97.7712 84.6836 98.1945C84.6836 98.6177 84.2612 99.041 83.8389 99.041C83.4165 99.041 82.9941 98.6177 82.9941 98.1945Z" fill="white"/>
<path d="M83.2051 81.9002C83.2051 81.477 83.4163 81.2654 83.8386 81.2654C84.261 81.2654 84.4722 81.477 84.4722 81.9002C84.4722 82.3235 84.261 82.5352 83.8386 82.5352C83.4163 82.5352 83.2051 82.3235 83.2051 81.9002Z" fill="white"/>
<path d="M83.416 65.6034C83.416 65.3918 83.6272 64.9685 84.0496 64.9685C84.4719 64.9685 84.4719 65.1802 84.4719 65.6034C84.4719 65.8151 84.2607 66.2383 83.8384 66.2383C83.416 66.2383 83.416 65.8151 83.416 65.6034Z" fill="white"/>
<path d="M83.8384 48.6749C84.0716 48.6749 84.2607 48.8644 84.2607 49.0982C84.2607 49.332 84.0716 49.5215 83.8384 49.5215C83.6051 49.5215 83.416 49.332 83.416 49.0982C83.416 48.8644 83.6051 48.6749 83.8384 48.6749Z" fill="white"/>
<path d="M83.627 32.802C83.627 32.5903 83.8381 32.5903 83.8381 32.5903C84.0493 32.5903 84.0493 32.802 84.0493 32.802C84.0493 33.0136 83.8381 33.0137 83.8381 33.0137C83.8381 33.0137 83.627 33.0136 83.627 32.802Z" fill="white"/>
<path d="M83.627 16.5075C83.627 16.2958 83.8381 16.2958 83.627 16.5075C83.8381 16.2958 84.0493 16.5075 84.0493 16.5075C84.0493 16.5075 84.0493 16.7191 83.627 16.5075C83.8381 16.7191 83.627 16.5075 83.627 16.5075Z" fill="white"/>
<path d="M67.5774 864.498C69.0936 864.498 70.3227 865.729 70.3227 867.249C70.3227 868.768 69.0936 870 67.5774 870C66.0612 870 64.832 868.768 64.832 867.249C64.832 865.729 66.0612 864.498 67.5774 864.498Z" fill="white"/>
<path d="M65.2559 850.742C65.2559 849.473 66.3118 848.415 67.5788 848.415C68.8459 848.415 69.9018 849.473 69.9018 850.742C69.6906 852.012 68.8459 853.07 67.5788 853.07C66.3118 853.07 65.2559 852.012 65.2559 850.742Z" fill="white"/>
<path d="M65.2559 834.446C65.2559 833.176 66.3118 832.118 67.5788 832.118C68.8459 832.118 69.9018 833.176 69.9018 834.446C69.9018 835.715 68.8459 836.773 67.5788 836.773C66.3118 836.773 65.2559 835.715 65.2559 834.446Z" fill="white"/>
<path d="M65.2559 818.151C65.2559 816.881 66.3118 815.823 67.5788 815.823C68.8459 815.823 69.9018 816.881 69.9018 818.151C69.9018 819.42 68.8459 820.479 67.5788 820.479C66.3118 820.267 65.2559 819.42 65.2559 818.151Z" fill="white"/>
<path d="M65.2559 801.645C65.2559 800.375 66.3118 799.317 67.5788 799.317C68.8459 799.317 69.9018 800.375 69.9018 801.645C69.9018 802.915 68.8459 803.973 67.5788 803.973C66.3118 803.973 65.2559 802.915 65.2559 801.645Z" fill="white"/>
<path d="M65.2559 785.348C65.2559 784.078 66.3118 783.02 67.5788 783.02C68.8459 783.232 69.6906 784.078 69.6906 785.348C69.6906 786.618 68.8459 787.676 67.5788 787.676C66.3118 787.676 65.2559 786.618 65.2559 785.348Z" fill="white"/>
<path d="M65.2559 769.054C65.2559 767.784 66.3118 766.726 67.5788 766.726C68.8459 766.726 69.9018 767.784 69.9018 769.054C69.9018 770.323 68.8459 771.17 67.5788 771.17C66.3118 771.17 65.2559 770.323 65.2559 769.054Z" fill="white"/>
<path d="M65.2559 752.759C65.2559 751.489 66.3118 750.431 67.5788 750.431C68.8459 750.431 69.9018 751.489 69.9018 752.759C69.9018 754.028 68.8459 754.875 67.5788 754.875C66.3118 754.875 65.2559 753.817 65.2559 752.759Z" fill="white"/>
<path d="M65.2559 736.252C65.2559 734.982 66.3118 733.924 67.5788 733.924C68.8459 733.924 69.9018 734.982 69.9018 736.252C69.9018 737.522 68.8459 738.58 67.5788 738.58C66.3118 738.58 65.2559 737.522 65.2559 736.252Z" fill="white"/>
<path d="M65.2559 719.956C65.2559 718.686 66.3118 717.628 67.5788 717.628C68.8459 717.628 69.9018 718.686 69.9018 719.956C69.9018 721.226 68.8459 722.072 67.5788 722.072C66.3118 722.072 65.2559 721.226 65.2559 719.956Z" fill="white"/>
<path d="M67.5788 701.332C68.8618 701.332 69.9018 702.375 69.9018 703.66C69.9018 704.946 68.8618 705.988 67.5788 705.988C66.2959 705.988 65.2559 704.946 65.2559 703.66C65.2559 702.375 66.2959 701.332 67.5788 701.332Z" fill="white"/>
<path d="M67.5788 684.827C68.8618 684.827 69.9018 685.869 69.9018 687.155C69.9018 688.44 68.8618 689.482 67.5788 689.482C66.2959 689.482 65.2559 688.44 65.2559 687.155C65.2559 685.869 66.2959 684.827 67.5788 684.827Z" fill="white"/>
<path d="M65.2559 670.86C65.2559 669.59 66.3118 668.532 67.5788 668.532C68.8459 668.532 69.9018 669.59 69.9018 670.86C69.9018 672.129 68.8459 673.188 67.5788 673.188C66.3118 673.188 65.2559 672.129 65.2559 670.86Z" fill="white"/>
<path d="M67.5788 652.235C68.8618 652.235 69.9018 653.277 69.9018 654.563C69.9018 655.848 68.8618 656.891 67.5788 656.891C66.2959 656.891 65.2559 655.848 65.2559 654.563C65.2559 653.277 66.2959 652.235 67.5788 652.235Z" fill="white"/>
<path d="M67.5788 635.729C68.8618 635.729 69.9018 636.771 69.9018 638.057C69.9018 639.343 68.8618 640.385 67.5788 640.385C66.2959 640.385 65.2559 639.343 65.2559 638.057C65.2559 636.771 66.2959 635.729 67.5788 635.729Z" fill="white"/>
<path d="M67.5788 619.434C68.8618 619.434 69.9018 620.476 69.9018 621.762C69.9018 623.048 68.8618 624.09 67.5788 624.09C66.2959 624.09 65.2559 623.048 65.2559 621.762C65.2559 620.476 66.2959 619.434 67.5788 619.434Z" fill="white"/>
<path d="M65.2559 605.466C65.2559 604.196 66.3118 603.138 67.5788 603.138C68.8459 603.138 69.9018 604.196 69.9018 605.466C69.9018 606.736 68.8459 607.582 67.5788 607.582C66.3118 607.582 65.2559 606.736 65.2559 605.466Z" fill="white"/>
<path d="M65.2559 588.959C65.2559 587.689 66.3118 586.631 67.5788 586.631C68.8459 586.631 69.9018 587.689 69.9018 588.959C69.9018 590.229 68.8459 591.287 67.5788 591.287C66.3118 591.287 65.2559 590.229 65.2559 588.959Z" fill="white"/>
<path d="M67.5788 570.336C68.8618 570.336 69.9018 571.379 69.9018 572.664C69.9018 573.95 68.8618 574.992 67.5788 574.992C66.2959 574.992 65.2559 573.95 65.2559 572.664C65.2559 571.379 66.2959 570.336 67.5788 570.336Z" fill="white"/>
<path d="M67.5788 554.041C68.8618 554.041 69.9018 555.084 69.9018 556.369C69.9018 557.655 68.8618 558.697 67.5788 558.697C66.2959 558.697 65.2559 557.655 65.2559 556.369C65.2559 555.084 66.2959 554.041 67.5788 554.041Z" fill="white"/>
<path d="M67.5788 537.745C68.8618 537.745 69.9018 538.787 69.9018 540.072C69.9018 541.358 68.8618 542.4 67.5788 542.4C66.2959 542.4 65.2559 541.358 65.2559 540.072C65.2559 538.787 66.2959 537.745 67.5788 537.745Z" fill="white"/>
<path d="M65.2559 523.567C65.2559 522.297 66.3118 521.239 67.5788 521.239C68.8459 521.239 69.9018 522.297 69.9018 523.567C69.9018 524.836 68.8459 525.895 67.5788 525.895C66.3118 525.895 65.2559 524.836 65.2559 523.567Z" fill="white"/>
<path d="M67.5788 504.944C68.8618 504.944 69.9018 505.986 69.9018 507.272C69.9018 508.557 68.8618 509.6 67.5788 509.6C66.2959 509.6 65.2559 508.557 65.2559 507.272C65.2559 505.986 66.2959 504.944 67.5788 504.944Z" fill="white"/>
<path d="M67.5788 488.647C68.8618 488.647 69.9018 489.689 69.9018 490.975C69.9018 492.26 68.8618 493.303 67.5788 493.303C66.2959 493.303 65.2559 492.26 65.2559 490.975C65.2559 489.689 66.2959 488.647 67.5788 488.647Z" fill="white"/>
<path d="M67.5788 472.141C68.8618 472.141 69.9018 473.183 69.9018 474.469C69.9018 475.755 68.8618 476.797 67.5788 476.797C66.2959 476.797 65.2559 475.755 65.2559 474.469C65.2559 473.183 66.2959 472.141 67.5788 472.141Z" fill="white"/>
<path d="M65.2559 458.172C65.2559 456.902 66.3118 455.844 67.5788 455.844C68.8459 455.844 69.9018 456.902 69.9018 458.172C69.9018 459.442 68.8459 460.5 67.5788 460.5C66.3118 460.5 65.2559 459.442 65.2559 458.172Z" fill="white"/>
<path d="M67.5788 439.549C68.8618 439.549 69.9018 440.592 69.9018 441.877C69.9018 443.163 68.8618 444.205 67.5788 444.205C66.2959 444.205 65.2559 443.163 65.2559 441.877C65.2559 440.592 66.2959 439.549 67.5788 439.549Z" fill="white"/>
<path d="M67.5788 423.043C68.8618 423.043 69.9018 424.086 69.9018 425.371C69.9018 426.657 68.8618 427.699 67.5788 427.699C66.2959 427.699 65.2559 426.657 65.2559 425.371C65.2559 424.086 66.2959 423.043 67.5788 423.043Z" fill="white"/>
<path d="M67.5788 406.747C68.8618 406.747 69.9018 407.789 69.9018 409.074C69.9018 410.36 68.8618 411.402 67.5788 411.402C66.2959 411.402 65.2559 410.36 65.2559 409.074C65.2559 407.789 66.2959 406.747 67.5788 406.747Z" fill="white"/>
<path d="M65.2559 392.78C65.2559 391.51 66.3118 390.452 67.5788 390.452C68.8459 390.452 69.9018 391.51 69.9018 392.78C69.9018 394.049 68.8459 395.107 67.5788 395.107C66.3118 395.107 65.2559 394.049 65.2559 392.78Z" fill="white"/>
<path d="M65.2559 376.274C65.2559 375.004 66.3118 373.946 67.5788 373.946C68.8459 373.946 69.9018 375.004 69.9018 376.274C69.9018 377.543 68.8459 378.602 67.5788 378.602C66.3118 378.602 65.2559 377.755 65.2559 376.274Z" fill="white"/>
<path d="M65.2559 359.979C65.2559 358.709 66.3118 357.651 67.5788 357.651C68.8459 357.651 69.9018 358.709 69.9018 359.979C69.9018 361.248 68.8459 362.307 67.5788 362.307C66.3118 362.307 65.2559 361.248 65.2559 359.979Z" fill="white"/>
<path d="M67.5788 341.354C68.8618 341.354 69.9018 342.396 69.9018 343.682C69.9018 344.968 68.8618 346.01 67.5788 346.01C66.2959 346.01 65.2559 344.968 65.2559 343.682C65.2559 342.396 66.2959 341.354 67.5788 341.354Z" fill="white"/>
<path d="M65.2559 327.387C65.2559 326.117 66.3118 325.059 67.5788 325.059C68.8459 325.059 69.9018 326.117 69.9018 327.387C69.9018 328.657 68.8459 329.715 67.5788 329.715C66.3118 329.503 65.2559 328.657 65.2559 327.387Z" fill="white"/>
<path d="M65.2559 310.881C65.2559 309.611 66.3118 308.553 67.5788 308.553C68.8459 308.553 69.9018 309.611 69.9018 310.881C69.9018 312.151 68.8459 313.209 67.5788 313.209C66.3118 313.209 65.2559 312.151 65.2559 310.881Z" fill="white"/>
<path d="M65.2559 294.586C65.2559 293.316 66.3118 292.258 67.5788 292.258C68.8459 292.258 69.9018 293.316 69.9018 294.586C69.9018 295.856 68.8459 296.914 67.5788 296.914C66.3118 296.914 65.2559 295.856 65.2559 294.586Z" fill="white"/>
<path d="M65.2559 278.29C65.2559 277.02 66.3118 275.962 67.5788 275.962C68.8459 275.962 69.9018 277.02 69.9018 278.29C69.9018 279.56 68.8459 280.406 67.5788 280.406C66.3118 280.406 65.2559 279.348 65.2559 278.29Z" fill="white"/>
<path d="M65.4648 261.782C65.4648 260.724 66.3096 259.666 67.5767 259.666C68.6326 259.666 69.6885 260.512 69.6885 261.782C69.6885 262.84 68.8437 263.898 67.5767 263.898C66.3096 263.898 65.4648 263.052 65.4648 261.782Z" fill="white"/>
<path d="M65.6758 245.488C65.6758 244.43 66.5205 243.583 67.5764 243.583C68.6323 243.583 69.477 244.43 69.477 245.488C69.477 246.546 68.6323 247.393 67.5764 247.393C66.5205 247.393 65.6758 246.546 65.6758 245.488Z" fill="white"/>
<path d="M67.5764 227.288C68.6261 227.288 69.477 228.141 69.477 229.193C69.477 230.245 68.6261 231.098 67.5764 231.098C66.5267 231.098 65.6758 230.245 65.6758 229.193C65.6758 228.141 66.5267 227.288 67.5764 227.288Z" fill="white"/>
<path d="M65.8887 212.686C65.8887 211.628 66.7334 210.993 67.5781 210.993C68.634 210.993 69.2676 211.84 69.2676 212.686C69.2676 213.533 68.4228 214.379 67.5781 214.379C66.5222 214.591 65.8887 213.745 65.8887 212.686Z" fill="white"/>
<path d="M67.5779 194.908C68.3943 194.908 69.0561 195.572 69.0561 196.39C69.0561 197.208 68.3943 197.871 67.5779 197.871C66.7614 197.871 66.0996 197.208 66.0996 196.39C66.0996 195.572 66.7614 194.908 67.5779 194.908Z" fill="white"/>
<path d="M66.0996 180.095C66.0996 179.248 66.7331 178.613 67.5779 178.613C68.4226 178.613 69.0561 179.248 69.0561 180.095C69.0561 180.941 68.4226 181.576 67.5779 181.576C66.7331 181.576 66.0996 180.941 66.0996 180.095Z" fill="white"/>
<path d="M66.3105 163.588C66.3105 162.953 66.9441 162.318 67.5776 162.318C68.2112 162.318 68.8447 162.953 68.8447 163.588C68.8447 164.223 68.2112 164.857 67.5776 164.857C66.9441 165.069 66.3105 164.434 66.3105 163.588Z" fill="white"/>
<path d="M66.3105 147.293C66.3105 146.658 66.7329 146.023 67.5776 146.023C68.2112 146.023 68.8447 146.658 68.8447 147.293C68.8447 147.928 68.4223 148.562 67.5776 148.562C66.9441 148.562 66.3105 147.928 66.3105 147.293Z" fill="white"/>
<path d="M67.5774 129.938C68.1605 129.938 68.6333 130.412 68.6333 130.997C68.6333 131.581 68.1605 132.055 67.5774 132.055C66.9942 132.055 66.5215 131.581 66.5215 130.997C66.5215 130.412 66.9942 129.938 67.5774 129.938Z" fill="white"/>
<path d="M67.5771 113.856C68.0437 113.856 68.4219 114.235 68.4219 114.702C68.4219 115.17 68.0437 115.549 67.5771 115.549C67.1106 115.549 66.7324 115.17 66.7324 114.702C66.7324 114.235 67.1106 113.856 67.5771 113.856Z" fill="white"/>
<path d="M66.7324 98.1945C66.7324 97.7712 67.1548 97.348 67.5771 97.348C67.9995 97.348 68.4219 97.7712 68.4219 98.1945C68.4219 98.6177 67.9995 99.041 67.5771 99.041C67.1548 99.041 66.7324 98.6177 66.7324 98.1945Z" fill="white"/>
<path d="M66.9434 81.9002C66.9434 81.477 67.1545 81.2654 67.5769 81.2654C67.9993 81.2654 68.2104 81.477 68.2104 81.9002C68.2104 82.3235 67.9993 82.5352 67.5769 82.5352C67.1545 82.5352 66.9434 82.3235 66.9434 81.9002Z" fill="white"/>
<path d="M67.5769 64.9685C67.9268 64.9685 68.2104 65.2528 68.2104 65.6034C68.2104 65.9541 67.9268 66.2383 67.5769 66.2383C67.227 66.2383 66.9434 65.9541 66.9434 65.6034C66.9434 65.2528 67.227 64.9685 67.5769 64.9685Z" fill="white"/>
<path d="M67.5767 48.6749C67.8099 48.6749 67.999 48.8644 67.999 49.0982C67.999 49.332 67.8099 49.5215 67.5767 49.5215C67.3434 49.5215 67.1543 49.332 67.1543 49.0982C67.1543 48.8644 67.3434 48.6749 67.5767 48.6749Z" fill="white"/>
<path d="M67.3672 32.802C67.3672 32.5903 67.5784 32.5903 67.5784 32.5903C67.7896 32.5903 67.7896 32.802 67.7896 32.802C67.7896 33.0136 67.5784 33.0137 67.5784 33.0137C67.3672 33.0137 67.3672 33.0136 67.3672 32.802Z" fill="white"/>
<path d="M67.3672 16.5075C67.3672 16.2958 67.3672 16.2958 67.3672 16.5075C67.5784 16.2958 67.7896 16.5075 67.7896 16.5075C67.7896 16.5075 67.5784 16.7191 67.3672 16.5075C67.3672 16.7191 67.3672 16.5075 67.3672 16.5075Z" fill="white"/>
<path d="M51.3157 864.498C52.8319 864.498 54.061 865.729 54.061 867.249C54.061 868.768 52.8319 870 51.3157 870C49.7994 870 48.5703 868.768 48.5703 867.249C48.5703 865.729 49.7994 864.498 51.3157 864.498Z" fill="white"/>
<path d="M48.9941 850.742C48.9941 849.473 50.05 848.415 51.3171 848.415C52.5842 848.415 53.6401 849.473 53.6401 850.742C53.6401 852.012 52.5842 853.07 51.3171 853.07C50.05 853.07 48.9941 852.012 48.9941 850.742Z" fill="white"/>
<path d="M48.9941 834.446C48.9941 833.176 50.05 832.118 51.3171 832.118C52.5842 832.118 53.6401 833.176 53.6401 834.446C53.6401 835.715 52.5842 836.773 51.3171 836.773C50.05 836.773 48.9941 835.715 48.9941 834.446Z" fill="white"/>
<path d="M48.9941 818.151C48.9941 816.881 50.05 815.823 51.3171 815.823C52.5842 815.823 53.6401 816.881 53.6401 818.151C53.6401 819.42 52.5842 820.479 51.3171 820.479C50.05 820.479 48.9941 819.42 48.9941 818.151Z" fill="white"/>
<path d="M48.9941 801.645C48.9941 800.375 50.05 799.317 51.3171 799.317C52.5842 799.317 53.6401 800.375 53.6401 801.645C53.6401 802.915 52.5842 803.973 51.3171 803.973C50.05 803.973 48.9941 802.915 48.9941 801.645Z" fill="white"/>
<path d="M48.9941 785.348C48.9941 784.078 50.05 783.02 51.3171 783.02C52.5842 783.02 53.4289 784.078 53.4289 785.348C53.4289 786.618 52.373 787.676 51.3171 787.676C50.2612 787.676 48.9941 786.618 48.9941 785.348Z" fill="white"/>
<path d="M48.9941 769.054C48.9941 767.784 50.05 766.726 51.3171 766.726C52.5842 766.726 53.6401 767.784 53.6401 769.054C53.6401 770.323 52.373 771.17 51.3171 771.17C50.2612 771.17 48.9941 770.323 48.9941 769.054Z" fill="white"/>
<path d="M48.9941 752.759C48.9941 751.489 50.05 750.431 51.3171 750.431C52.5842 750.431 53.4289 751.489 53.4289 752.759C53.4289 754.028 52.373 754.875 51.3171 754.875C50.2612 754.875 48.9941 753.817 48.9941 752.759Z" fill="white"/>
<path d="M48.9941 736.252C48.9941 734.982 50.05 733.924 51.3171 733.924C52.5842 733.924 53.6401 734.982 53.6401 736.252C53.6401 737.522 52.5842 738.58 51.3171 738.58C50.05 738.58 48.9941 737.522 48.9941 736.252Z" fill="white"/>
<path d="M48.9941 719.956C48.9941 718.686 50.05 717.628 51.3171 717.628C52.5842 717.628 53.6401 718.686 53.6401 719.956C53.6401 721.226 52.373 722.072 51.3171 722.072C50.2612 722.072 48.9941 721.226 48.9941 719.956Z" fill="white"/>
<path d="M51.3171 701.332C52.6001 701.332 53.6401 702.375 53.6401 703.66C53.6401 704.946 52.6001 705.988 51.3171 705.988C50.0342 705.988 48.9941 704.946 48.9941 703.66C48.9941 702.375 50.0342 701.332 51.3171 701.332Z" fill="white"/>
<path d="M51.3171 684.827C52.6001 684.827 53.6401 685.869 53.6401 687.155C53.6401 688.44 52.6001 689.482 51.3171 689.482C50.0342 689.482 48.9941 688.44 48.9941 687.155C48.9941 685.869 50.0342 684.827 51.3171 684.827Z" fill="white"/>
<path d="M48.9941 670.86C48.9941 669.59 50.05 668.532 51.3171 668.532C52.5842 668.532 53.6401 669.59 53.6401 670.86C53.6401 672.129 52.5842 673.188 51.3171 673.188C50.05 673.188 48.9941 672.129 48.9941 670.86Z" fill="white"/>
<path d="M51.3171 652.235C52.6001 652.235 53.6401 653.277 53.6401 654.563C53.6401 655.848 52.6001 656.891 51.3171 656.891C50.0342 656.891 48.9941 655.848 48.9941 654.563C48.9941 653.277 50.0342 652.235 51.3171 652.235Z" fill="white"/>
<path d="M51.3171 635.729C52.6001 635.729 53.6401 636.771 53.6401 638.057C53.6401 639.343 52.6001 640.385 51.3171 640.385C50.0342 640.385 48.9941 639.343 48.9941 638.057C48.9941 636.771 50.0342 635.729 51.3171 635.729Z" fill="white"/>
<path d="M51.3171 619.434C52.6001 619.434 53.6401 620.476 53.6401 621.762C53.6401 623.048 52.6001 624.09 51.3171 624.09C50.0342 624.09 48.9941 623.048 48.9941 621.762C48.9941 620.476 50.0342 619.434 51.3171 619.434Z" fill="white"/>
<path d="M48.9941 605.466C48.9941 604.196 50.05 603.138 51.3171 603.138C52.5842 603.138 53.6401 604.196 53.6401 605.466C53.6401 606.736 52.5842 607.582 51.3171 607.582C50.05 607.582 48.9941 606.736 48.9941 605.466Z" fill="white"/>
<path d="M48.9941 588.959C48.9941 587.689 50.05 586.631 51.3171 586.631C52.5842 586.631 53.6401 587.689 53.6401 588.959C53.6401 590.229 52.5842 591.287 51.3171 591.287C50.05 591.287 48.9941 590.229 48.9941 588.959Z" fill="white"/>
<path d="M51.3171 570.336C52.6001 570.336 53.6401 571.379 53.6401 572.664C53.6401 573.95 52.6001 574.992 51.3171 574.992C50.0342 574.992 48.9941 573.95 48.9941 572.664C48.9941 571.379 50.0342 570.336 51.3171 570.336Z" fill="white"/>
<path d="M51.3171 554.041C52.6001 554.041 53.6401 555.084 53.6401 556.369C53.6401 557.655 52.6001 558.697 51.3171 558.697C50.0342 558.697 48.9941 557.655 48.9941 556.369C48.9941 555.084 50.0342 554.041 51.3171 554.041Z" fill="white"/>
<path d="M51.3171 537.745C52.6001 537.745 53.6401 538.787 53.6401 540.072C53.6401 541.358 52.6001 542.4 51.3171 542.4C50.0342 542.4 48.9941 541.358 48.9941 540.072C48.9941 538.787 50.0342 537.745 51.3171 537.745Z" fill="white"/>
<path d="M48.9941 523.567C48.9941 522.297 50.05 521.239 51.3171 521.239C52.5842 521.239 53.6401 522.297 53.6401 523.567C53.6401 524.836 52.5842 525.895 51.3171 525.895C50.05 525.895 48.9941 524.836 48.9941 523.567Z" fill="white"/>
<path d="M51.3171 504.944C52.6001 504.944 53.6401 505.986 53.6401 507.272C53.6401 508.557 52.6001 509.6 51.3171 509.6C50.0342 509.6 48.9941 508.557 48.9941 507.272C48.9941 505.986 50.0342 504.944 51.3171 504.944Z" fill="white"/>
<path d="M51.3171 488.647C52.6001 488.647 53.6401 489.689 53.6401 490.975C53.6401 492.26 52.6001 493.303 51.3171 493.303C50.0342 493.303 48.9941 492.26 48.9941 490.975C48.9941 489.689 50.0342 488.647 51.3171 488.647Z" fill="white"/>
<path d="M51.3171 472.141C52.6001 472.141 53.6401 473.183 53.6401 474.469C53.6401 475.755 52.6001 476.797 51.3171 476.797C50.0342 476.797 48.9941 475.755 48.9941 474.469C48.9941 473.183 50.0342 472.141 51.3171 472.141Z" fill="white"/>
<path d="M48.9941 458.172C48.9941 456.902 50.05 455.844 51.3171 455.844C52.5842 455.844 53.6401 456.902 53.6401 458.172C53.6401 459.442 52.5842 460.5 51.3171 460.5C50.05 460.5 48.9941 459.442 48.9941 458.172Z" fill="white"/>
<path d="M51.3171 439.549C52.6001 439.549 53.6401 440.592 53.6401 441.877C53.6401 443.163 52.6001 444.205 51.3171 444.205C50.0342 444.205 48.9941 443.163 48.9941 441.877C48.9941 440.592 50.0342 439.549 51.3171 439.549Z" fill="white"/>
<path d="M48.9941 425.371C48.9941 424.102 50.05 423.043 51.3171 423.043C52.5842 423.043 53.6401 424.102 53.6401 425.371C53.6401 426.641 52.5842 427.699 51.3171 427.699C50.05 427.699 48.9941 426.641 48.9941 425.371Z" fill="white"/>
<path d="M48.9941 409.074C48.9941 407.805 50.05 406.747 51.3171 406.747C52.5842 406.747 53.6401 407.805 53.6401 409.074C53.6401 410.344 52.5842 411.402 51.3171 411.402C50.05 411.402 48.9941 410.344 48.9941 409.074Z" fill="white"/>
<path d="M48.9941 392.78C48.9941 391.51 50.05 390.452 51.3171 390.452C52.5842 390.452 53.6401 391.51 53.6401 392.78C53.6401 394.049 52.5842 395.107 51.3171 395.107C50.05 395.107 48.9941 394.049 48.9941 392.78Z" fill="white"/>
<path d="M48.9941 376.274C48.9941 375.004 50.05 373.946 51.3171 373.946C52.5842 373.946 53.6401 375.004 53.6401 376.274C53.6401 377.543 52.5842 378.602 51.3171 378.602C50.05 378.602 48.9941 377.755 48.9941 376.274Z" fill="white"/>
<path d="M48.9941 359.979C48.9941 358.709 50.05 357.651 51.3171 357.651C52.5842 357.651 53.6401 358.709 53.6401 359.979C53.6401 361.248 52.5842 362.307 51.3171 362.307C50.05 362.307 48.9941 361.248 48.9941 359.979Z" fill="white"/>
<path d="M48.9941 343.682C48.9941 342.412 50.05 341.354 51.3171 341.354C52.5842 341.354 53.6401 342.412 53.6401 343.682C53.6401 344.952 52.5842 346.01 51.3171 346.01C50.05 346.01 48.9941 344.952 48.9941 343.682Z" fill="white"/>
<path d="M48.9941 327.387C48.9941 326.117 50.05 325.059 51.3171 325.059C52.5842 325.059 53.6401 326.117 53.6401 327.387C53.6401 328.657 52.5842 329.715 51.3171 329.715C50.05 329.715 48.9941 328.657 48.9941 327.387Z" fill="white"/>
<path d="M48.9941 310.881C48.9941 309.611 50.05 308.553 51.3171 308.553C52.5842 308.553 53.6401 309.611 53.6401 310.881C53.6401 312.151 52.5842 313.209 51.3171 313.209C50.05 313.209 48.9941 312.151 48.9941 310.881Z" fill="white"/>
<path d="M48.9941 294.586C48.9941 293.316 50.05 292.258 51.3171 292.258C52.5842 292.258 53.6401 293.316 53.6401 294.586C53.6401 295.856 52.5842 296.914 51.3171 296.914C50.05 296.914 48.9941 295.856 48.9941 294.586Z" fill="white"/>
<path d="M48.9941 278.29C48.9941 277.02 50.05 275.962 51.3171 275.962C52.5842 275.962 53.6401 277.02 53.6401 278.29C53.6401 279.56 52.5842 280.406 51.3171 280.406C50.05 280.406 48.9941 279.348 48.9941 278.29Z" fill="white"/>
<path d="M51.3169 259.666C52.4832 259.666 53.4287 260.613 53.4287 261.782C53.4287 262.951 52.4832 263.898 51.3169 263.898C50.1506 263.898 49.2051 262.951 49.2051 261.782C49.2051 260.613 50.1506 259.666 51.3169 259.666Z" fill="white"/>
<path d="M49.2051 245.488C49.2051 244.43 50.0498 243.583 51.1057 243.583C52.1616 243.583 53.0063 244.43 53.0063 245.488C53.0063 246.546 52.1616 247.393 51.1057 247.393C50.0498 247.393 49.2051 246.546 49.2051 245.488Z" fill="white"/>
<path d="M51.3166 227.288C52.3663 227.288 53.2173 228.141 53.2173 229.193C53.2173 230.245 52.3663 231.098 51.3166 231.098C50.267 231.098 49.416 230.245 49.416 229.193C49.416 228.141 50.267 227.288 51.3166 227.288Z" fill="white"/>
<path d="M49.416 212.686C49.416 211.628 50.2607 210.993 51.1055 210.993C51.9502 210.993 52.7949 211.839 52.7949 212.686C52.7949 213.532 51.9502 214.379 51.1055 214.379C50.2607 214.379 49.416 213.744 49.416 212.686Z" fill="white"/>
<path d="M51.3162 194.908C52.1326 194.908 52.7944 195.572 52.7944 196.39C52.7944 197.208 52.1326 197.871 51.3162 197.871C50.4997 197.871 49.8379 197.208 49.8379 196.39C49.8379 195.572 50.4997 194.908 51.3162 194.908Z" fill="white"/>
<path d="M51.3162 178.613C52.1326 178.613 52.7944 179.277 52.7944 180.095C52.7944 180.913 52.1326 181.576 51.3162 181.576C50.4997 181.576 49.8379 180.913 49.8379 180.095C49.8379 179.277 50.4997 178.613 51.3162 178.613Z" fill="white"/>
<path d="M49.8379 163.588C49.8379 162.953 50.4714 162.318 51.105 162.318C51.7385 162.318 52.3721 162.953 52.3721 163.588C52.3721 164.223 51.7385 164.857 51.105 164.857C50.4714 165.069 49.8379 164.434 49.8379 163.588Z" fill="white"/>
<path d="M50.0488 147.293C50.0488 146.658 50.4712 146.023 51.3159 146.023C52.1606 146.023 52.583 146.658 52.583 147.293C52.583 147.928 52.1606 148.562 51.3159 148.562C50.4712 148.562 50.0488 147.928 50.0488 147.293Z" fill="white"/>
<path d="M50.2617 130.997C50.2617 130.362 50.6841 129.938 51.3176 129.938C51.9512 129.938 52.3735 130.362 52.3735 130.997C52.3735 131.631 51.9512 132.055 51.3176 132.055C50.6841 132.055 50.2617 131.631 50.2617 130.997Z" fill="white"/>
<path d="M51.3174 113.856C51.7839 113.856 52.1621 114.235 52.1621 114.702C52.1621 115.17 51.7839 115.549 51.3174 115.549C50.8509 115.549 50.4727 115.17 50.4727 114.702C50.4727 114.235 50.8509 113.856 51.3174 113.856Z" fill="white"/>
<path d="M50.4727 98.1945C50.4727 97.7712 50.895 97.348 51.3174 97.348C51.7397 97.348 52.1621 97.7712 52.1621 98.1945C52.1621 98.6177 51.7397 99.041 51.3174 99.041C50.895 99.041 50.4727 98.6177 50.4727 98.1945Z" fill="white"/>
<path d="M50.4727 81.9002C50.4727 81.477 50.6838 81.2654 51.1062 81.2654C51.5286 81.2654 51.7397 81.477 51.7397 81.9002C51.7397 82.3235 51.5286 82.5352 51.1062 82.5352C50.895 82.5352 50.4727 82.3235 50.4727 81.9002Z" fill="white"/>
<path d="M50.6836 65.6034C50.6836 65.3918 50.8948 64.9685 51.3171 64.9685C51.7395 64.9685 51.9507 65.1802 51.9507 65.6034C51.9507 65.8151 51.7395 66.2383 51.3171 66.2383C50.8948 66.2383 50.6836 65.8151 50.6836 65.6034Z" fill="white"/>
<path d="M50.8945 49.0982C50.8945 48.8865 51.1057 48.6749 51.3169 48.6749C51.5281 48.6749 51.7393 48.8865 51.7393 49.0982C51.7393 49.3098 51.5281 49.5215 51.3169 49.5215C51.1057 49.5215 50.8945 49.3098 50.8945 49.0982Z" fill="white"/>
<path d="M50.8945 32.802C50.8945 32.5903 51.1057 32.5903 51.1057 32.5903L51.3169 32.802C51.3169 33.0136 51.1057 33.0137 51.1057 33.0137C51.1057 33.0137 50.8945 33.0136 50.8945 32.802Z" fill="white"/>
<path d="M51.1055 16.5075C51.1055 16.2958 51.1055 16.2958 51.1055 16.5075C51.3166 16.2958 51.5278 16.5075 51.5278 16.5075C51.3166 16.5075 51.3166 16.7191 51.1055 16.5075C51.1055 16.7191 51.1055 16.5075 51.1055 16.5075Z" fill="white"/>
<path d="M51.1055 -0.000793457H51.3166V0.210938L51.1055 -0.000793457Z" fill="white"/>
<path d="M34.845 864.498C36.3612 864.498 37.5903 865.729 37.5903 867.249C37.5903 868.768 36.3612 870 34.845 870C33.3287 870 32.0996 868.768 32.0996 867.249C32.0996 865.729 33.3287 864.498 34.845 864.498Z" fill="white"/>
<path d="M32.7324 850.742C32.7324 849.473 33.7883 848.415 35.0554 848.415C36.3225 848.415 37.3784 849.473 37.3784 850.742C37.3784 852.012 36.3225 853.07 35.0554 853.07C33.7883 853.07 32.7324 852.012 32.7324 850.742Z" fill="white"/>
<path d="M32.7324 834.446C32.7324 833.176 33.7883 832.118 35.0554 832.118C36.3225 832.118 37.3784 833.176 37.3784 834.446C37.3784 835.715 36.3225 836.773 35.0554 836.773C33.7883 836.773 32.7324 835.715 32.7324 834.446Z" fill="white"/>
<path d="M32.7324 818.151C32.7324 816.881 33.7883 815.823 35.0554 815.823C36.3225 815.823 37.3784 816.881 37.3784 818.151C37.3784 819.42 36.3225 820.479 35.0554 820.479C33.7883 820.267 32.7324 819.42 32.7324 818.151Z" fill="white"/>
<path d="M32.7324 801.645C32.7324 800.375 33.7883 799.317 35.0554 799.317C36.3225 799.317 37.3784 800.375 37.3784 801.645C37.3784 802.915 36.3225 803.973 35.0554 803.973C33.7883 803.973 32.7324 802.915 32.7324 801.645Z" fill="white"/>
<path d="M32.7324 785.348C32.7324 784.078 33.7883 783.02 35.0554 783.02C36.1113 783.232 37.1672 784.078 37.1672 785.348C37.1672 786.618 36.1113 787.676 34.8442 787.676C33.7883 787.676 32.7324 786.618 32.7324 785.348Z" fill="white"/>
<path d="M32.7324 769.054C32.7324 767.784 33.7883 766.726 35.0554 766.726C36.3225 766.726 37.3784 767.784 37.3784 769.054C37.3784 770.323 36.1113 771.17 34.8442 771.17C33.7883 771.17 32.7324 770.323 32.7324 769.054Z" fill="white"/>
<path d="M32.7324 752.759C32.7324 751.489 33.7883 750.431 35.0554 750.431C36.3225 750.431 37.3784 751.489 37.3784 752.759C37.3784 754.028 36.1113 754.875 34.8442 754.875C33.7883 754.875 32.7324 753.817 32.7324 752.759Z" fill="white"/>
<path d="M32.7324 736.252C32.7324 734.982 33.7883 733.924 35.0554 733.924C36.3225 733.924 37.3784 734.982 37.3784 736.252C37.3784 737.522 36.3225 738.58 35.0554 738.58C33.7883 738.58 32.7324 737.522 32.7324 736.252Z" fill="white"/>
<path d="M32.7324 719.956C32.7324 718.686 33.7883 717.628 35.0554 717.628C36.3225 717.628 37.3784 718.686 37.3784 719.956C37.3784 721.226 36.1113 722.072 34.8442 722.072C33.7883 722.072 32.7324 721.226 32.7324 719.956Z" fill="white"/>
<path d="M32.7324 703.66C32.7324 702.391 33.7883 701.332 35.0554 701.332C36.3225 701.332 37.3784 702.391 37.3784 703.66C37.3784 704.93 36.3225 705.988 35.0554 705.988C33.5771 705.777 32.7324 704.93 32.7324 703.66Z" fill="white"/>
<path d="M32.7324 687.155C32.7324 685.885 33.7883 684.827 35.0554 684.827C36.3225 684.827 37.3784 685.885 37.3784 687.155C37.3784 688.424 36.1113 689.482 34.8442 689.482C33.5771 689.482 32.7324 688.424 32.7324 687.155Z" fill="white"/>
<path d="M32.7324 670.86C32.7324 669.59 33.7883 668.532 35.0554 668.532C36.3225 668.532 37.3784 669.59 37.3784 670.86C37.3784 672.129 36.3225 673.188 35.0554 673.188C33.5771 673.188 32.7324 672.129 32.7324 670.86Z" fill="white"/>
<path d="M32.7324 654.563C32.7324 653.293 33.7883 652.235 35.0554 652.235C36.3225 652.235 37.3784 653.293 37.3784 654.563C37.3784 655.832 36.3225 656.891 35.0554 656.891C33.5771 656.679 32.7324 655.832 32.7324 654.563Z" fill="white"/>
<path d="M32.7324 638.057C32.7324 636.787 33.7883 635.729 35.0554 635.729C36.3225 635.729 37.3784 636.787 37.3784 638.057C37.3784 639.327 36.3225 640.385 35.0554 640.385C33.5771 640.385 32.7324 639.327 32.7324 638.057Z" fill="white"/>
<path d="M32.7324 621.762C32.7324 620.492 33.7883 619.434 35.0554 619.434C36.3225 619.434 37.3784 620.492 37.3784 621.762C37.3784 623.032 36.3225 624.09 35.0554 624.09C33.5771 624.09 32.7324 623.032 32.7324 621.762Z" fill="white"/>
<path d="M32.7324 605.466C32.7324 604.196 33.7883 603.138 35.0554 603.138C36.3225 603.138 37.3784 604.196 37.3784 605.466C37.3784 606.736 36.1113 607.582 34.8442 607.582C33.5771 607.582 32.7324 606.736 32.7324 605.466Z" fill="white"/>
<path d="M32.7324 588.959C32.7324 587.689 33.7883 586.631 35.0554 586.631C36.3225 586.631 37.3784 587.689 37.3784 588.959C37.3784 590.229 36.3225 591.287 35.0554 591.287C33.5771 591.287 32.7324 590.229 32.7324 588.959Z" fill="white"/>
<path d="M32.7324 572.664C32.7324 571.395 33.7883 570.336 35.0554 570.336C36.3225 570.336 37.3784 571.395 37.3784 572.664C37.3784 573.934 36.3225 574.992 35.0554 574.992C33.5771 574.992 32.7324 573.934 32.7324 572.664Z" fill="white"/>
<path d="M32.7324 556.369C32.7324 555.1 33.7883 554.041 35.0554 554.041C36.3225 554.041 37.3784 555.1 37.3784 556.369C37.3784 557.639 36.3225 558.697 35.0554 558.697C33.5771 558.697 32.7324 557.639 32.7324 556.369Z" fill="white"/>
<path d="M32.7324 540.072C32.7324 538.803 33.7883 537.745 35.0554 537.745C36.3225 537.745 37.3784 538.803 37.3784 540.072C37.3784 541.342 36.3225 542.4 35.0554 542.4C33.5771 542.189 32.7324 541.131 32.7324 540.072Z" fill="white"/>
<path d="M32.7324 523.567C32.7324 522.297 33.7883 521.239 35.0554 521.239C36.3225 521.239 37.3784 522.297 37.3784 523.567C37.3784 524.836 36.3225 525.895 35.0554 525.895C33.5771 525.895 32.7324 524.836 32.7324 523.567Z" fill="white"/>
<path d="M32.7324 507.272C32.7324 506.002 33.7883 504.944 35.0554 504.944C36.3225 504.944 37.3784 506.002 37.3784 507.272C37.3784 508.541 36.3225 509.6 35.0554 509.6C33.5771 509.6 32.7324 508.541 32.7324 507.272Z" fill="white"/>
<path d="M32.7324 490.975C32.7324 489.705 33.7883 488.647 35.0554 488.647C36.3225 488.647 37.3784 489.705 37.3784 490.975C37.3784 492.245 36.3225 493.303 35.0554 493.303C33.5771 493.091 32.7324 492.245 32.7324 490.975Z" fill="white"/>
<path d="M32.7324 474.469C32.7324 473.199 33.7883 472.141 35.0554 472.141C36.3225 472.141 37.3784 473.199 37.3784 474.469C37.3784 475.739 36.3225 476.797 35.0554 476.797C33.5771 476.797 32.7324 475.739 32.7324 474.469Z" fill="white"/>
<path d="M32.7324 458.172C32.7324 456.902 33.7883 455.844 35.0554 455.844C36.3225 455.844 37.3784 456.902 37.3784 458.172C37.3784 459.442 36.3225 460.5 35.0554 460.5C33.5771 460.5 32.7324 459.442 32.7324 458.172Z" fill="white"/>
<path d="M32.7324 441.877C32.7324 440.607 33.7883 439.549 35.0554 439.549C36.3225 439.549 37.3784 440.607 37.3784 441.877C37.3784 443.147 36.3225 444.205 35.0554 444.205C33.5771 443.993 32.7324 443.147 32.7324 441.877Z" fill="white"/>
<path d="M32.5215 425.371C32.5215 424.102 33.5774 423.043 34.8445 423.043C36.1116 423.043 37.1675 424.102 37.1675 425.371C37.1675 426.641 36.1116 427.699 34.8445 427.699C33.5774 427.699 32.5215 426.641 32.5215 425.371Z" fill="white"/>
<path d="M32.5215 409.074C32.5215 407.805 33.5774 406.747 34.8445 406.747C36.1116 406.747 37.1675 407.805 37.1675 409.074C37.1675 410.344 36.1116 411.402 34.8445 411.402C33.5774 411.402 32.5215 410.344 32.5215 409.074Z" fill="white"/>
<path d="M32.5215 392.78C32.5215 391.51 33.5774 390.452 34.8445 390.452C36.1116 390.452 37.1675 391.51 37.1675 392.78C37.1675 394.049 36.1116 395.107 34.8445 395.107C33.5774 395.107 32.5215 394.049 32.5215 392.78Z" fill="white"/>
<path d="M32.5215 376.274C32.5215 375.004 33.5774 373.946 34.8445 373.946C36.1116 373.946 37.1675 375.004 37.1675 376.274C37.1675 377.543 36.1116 378.602 34.8445 378.602C33.5774 378.602 32.5215 377.755 32.5215 376.274Z" fill="white"/>
<path d="M32.5215 359.979C32.5215 358.709 33.5774 357.651 34.8445 357.651C36.1116 357.651 37.1675 358.709 37.1675 359.979C37.1675 361.248 36.1116 362.307 34.8445 362.307C33.5774 362.307 32.5215 361.248 32.5215 359.979Z" fill="white"/>
<path d="M32.5215 343.682C32.5215 342.412 33.5774 341.354 34.8445 341.354C36.1116 341.354 37.1675 342.412 37.1675 343.682C37.1675 344.952 36.1116 346.01 34.8445 346.01C33.5774 346.01 32.5215 344.952 32.5215 343.682Z" fill="white"/>
<path d="M32.5215 327.387C32.5215 326.117 33.5774 325.059 34.8445 325.059C36.1116 325.059 37.1675 326.117 37.1675 327.387C37.1675 328.657 36.1116 329.715 34.8445 329.715C33.5774 329.503 32.5215 328.657 32.5215 327.387Z" fill="white"/>
<path d="M32.5215 310.881C32.5215 309.611 33.5774 308.553 34.8445 308.553C36.1116 308.553 37.1675 309.611 37.1675 310.881C37.1675 312.151 36.1116 313.209 34.8445 313.209C33.5774 313.209 32.5215 312.151 32.5215 310.881Z" fill="white"/>
<path d="M32.5215 294.586C32.5215 293.316 33.5774 292.258 34.8445 292.258C36.1116 292.258 37.1675 293.316 37.1675 294.586C37.1675 295.856 36.1116 296.914 34.8445 296.914C33.5774 296.914 32.5215 295.856 32.5215 294.586Z" fill="white"/>
<path d="M32.7324 278.29C32.7324 277.02 33.7883 275.962 35.0554 275.962C36.3225 275.962 37.3784 277.02 37.3784 278.29C37.3784 279.56 36.3225 280.406 35.0554 280.406C33.7883 280.406 32.7324 279.348 32.7324 278.29Z" fill="white"/>
<path d="M34.8442 259.666C36.0105 259.666 36.956 260.613 36.956 261.782C36.956 262.951 36.0105 263.898 34.8442 263.898C33.6779 263.898 32.7324 262.951 32.7324 261.782C32.7324 260.613 33.6779 259.666 34.8442 259.666Z" fill="white"/>
<path d="M32.9434 245.488C32.9434 244.43 33.7881 243.583 34.844 243.583C35.8999 243.583 36.7446 244.43 36.7446 245.488C36.7446 246.546 35.8999 247.393 34.844 247.393C33.7881 247.393 32.9434 246.546 32.9434 245.488Z" fill="white"/>
<path d="M34.844 227.288C35.8937 227.288 36.7446 228.141 36.7446 229.193C36.7446 230.245 35.8937 231.098 34.844 231.098C33.7943 231.098 32.9434 230.245 32.9434 229.193C32.9434 228.141 33.7943 227.288 34.844 227.288Z" fill="white"/>
<path d="M33.1562 212.686C33.1562 211.628 34.001 210.993 34.8457 210.993C35.9016 210.993 36.5351 211.84 36.5351 212.686C36.5351 213.533 35.6904 214.379 34.8457 214.379C34.001 214.591 33.1562 213.745 33.1562 212.686Z" fill="white"/>
<path d="M33.3672 196.39C33.3672 195.543 34.0007 194.697 34.8454 194.697C35.6902 194.697 36.5349 195.332 36.5349 196.39C36.5349 197.237 35.9014 197.871 34.8454 197.871C34.0007 198.083 33.3672 197.237 33.3672 196.39Z" fill="white"/>
<path d="M34.8454 178.613C35.6619 178.613 36.3237 179.277 36.3237 180.095C36.3237 180.913 35.6619 181.576 34.8454 181.576C34.029 181.576 33.3672 180.913 33.3672 180.095C33.3672 179.277 34.029 178.613 34.8454 178.613Z" fill="white"/>
<path d="M33.5781 163.588C33.5781 162.953 34.2117 162.318 34.8452 162.318C35.4787 162.318 36.1123 162.953 36.1123 163.588C36.1123 164.223 35.4787 164.857 34.8452 164.857C34.2117 165.069 33.5781 164.434 33.5781 163.588Z" fill="white"/>
<path d="M33.7891 147.293C33.7891 146.658 34.2114 146.023 35.0561 146.023C35.6897 146.023 36.3232 146.658 36.3232 147.293C36.3232 147.928 35.9009 148.562 35.0561 148.562C34.2114 148.562 33.7891 147.928 33.7891 147.293Z" fill="white"/>
<path d="M34.845 129.938C35.4281 129.938 35.9009 130.412 35.9009 130.997C35.9009 131.581 35.4281 132.055 34.845 132.055C34.2618 132.055 33.7891 131.581 33.7891 130.997C33.7891 130.412 34.2618 129.938 34.845 129.938Z" fill="white"/>
<path d="M34 114.702C34 114.279 34.4224 113.856 34.8447 113.856C35.2671 113.856 35.6894 114.279 35.6894 114.702C35.6894 115.126 35.2671 115.549 34.8447 115.549C34.4224 115.549 34 115.126 34 114.702Z" fill="white"/>
<path d="M34 98.1945C34 97.7712 34.4224 97.348 34.8447 97.348C35.2671 97.348 35.6894 97.7712 35.6894 98.1945C35.6894 98.6177 35.2671 99.041 34.8447 99.041C34.4224 99.041 34 98.6177 34 98.1945Z" fill="white"/>
<path d="M34.2109 81.9002C34.2109 81.477 34.4221 81.2654 34.8445 81.2654C35.2668 81.2654 35.478 81.477 35.478 81.9002C35.478 82.3235 35.2668 82.5352 34.8445 82.5352C34.6333 82.5352 34.2109 82.3235 34.2109 81.9002Z" fill="white"/>
<path d="M34.4219 65.6034C34.4219 65.3918 34.6331 64.9685 35.0554 64.9685C35.2666 64.9685 35.6889 65.1802 35.6889 65.6034C35.6889 65.8151 35.4778 66.2383 35.0554 66.2383C34.6331 66.0267 34.4219 65.8151 34.4219 65.6034Z" fill="white"/>
<path d="M34.8442 48.6749C35.0775 48.6749 35.2666 48.8644 35.2666 49.0982C35.2666 49.332 35.0775 49.5215 34.8442 49.5215C34.611 49.5215 34.4219 49.332 34.4219 49.0982C34.4219 48.8644 34.611 48.6749 34.8442 48.6749Z" fill="white"/>
<path d="M34.6348 32.802C34.6348 32.5903 34.8459 32.5903 34.8459 32.5903L35.0571 32.802C35.0571 33.0136 34.8459 33.0137 34.8459 33.0137C34.8459 33.0137 34.6348 33.0136 34.6348 32.802Z" fill="white"/>
<path d="M34.6348 16.5075C34.6348 16.2958 34.8459 16.2958 34.6348 16.5075C34.8459 16.2958 35.0571 16.5075 35.0571 16.5075C35.0571 16.5075 35.0571 16.7191 34.6348 16.5075C34.8459 16.7191 34.6348 16.5075 34.6348 16.5075Z" fill="white"/>
<path d="M34.8457 -0.000793457H35.0569L34.8457 0.210938V-0.000793457Z" fill="white"/>
<path d="M15.8379 867.249C15.8379 865.767 17.105 864.498 18.5832 864.498C20.0615 864.498 21.3286 865.767 21.3286 867.249C21.3286 868.73 20.0615 870 18.5832 870C17.105 870 15.8379 868.73 15.8379 867.249Z" fill="white"/>
<path d="M16.4727 850.742C16.4727 849.473 17.5286 848.415 18.7956 848.415C20.0627 848.415 21.1186 849.473 21.1186 850.742C21.1186 852.012 20.0627 853.07 18.7956 853.07C17.3174 853.07 16.4727 852.012 16.4727 850.742Z" fill="white"/>
<path d="M16.4727 834.446C16.4727 833.176 17.5286 832.118 18.7956 832.118C20.0627 832.118 21.1186 833.176 21.1186 834.446C21.1186 835.715 20.0627 836.773 18.7956 836.773C17.3174 836.773 16.4727 835.715 16.4727 834.446Z" fill="white"/>
<path d="M16.4727 818.151C16.4727 816.881 17.5286 815.823 18.7956 815.823C20.0627 815.823 21.1186 816.881 21.1186 818.151C21.1186 819.42 20.0627 820.479 18.7956 820.479C17.3174 820.267 16.4727 819.42 16.4727 818.151Z" fill="white"/>
<path d="M16.4727 801.645C16.4727 800.375 17.5286 799.317 18.7956 799.317C20.0627 799.317 21.1186 800.375 21.1186 801.645C21.1186 802.915 20.0627 803.973 18.7956 803.973C17.3174 803.973 16.4727 802.915 16.4727 801.645Z" fill="white"/>
<path d="M16.4727 785.348C16.4727 784.078 17.5286 783.02 18.7956 783.02C19.8515 783.232 20.9074 784.078 20.9074 785.348C20.9074 786.618 19.8515 787.676 18.5845 787.676C17.3174 787.676 16.4727 786.618 16.4727 785.348Z" fill="white"/>
<path d="M16.4727 769.054C16.4727 767.784 17.5286 766.726 18.7956 766.726C20.0627 766.726 21.1186 767.784 21.1186 769.054C21.1186 770.323 19.8515 771.17 18.5845 771.17C17.3174 771.17 16.4727 770.323 16.4727 769.054Z" fill="white"/>
<path d="M16.4727 752.759C16.4727 751.489 17.5286 750.431 18.7956 750.431C20.0627 750.431 21.1186 751.489 21.1186 752.759C21.1186 754.028 19.8515 754.875 18.5845 754.875C17.3174 754.875 16.4727 753.817 16.4727 752.759Z" fill="white"/>
<path d="M16.4727 736.252C16.4727 734.982 17.5286 733.924 18.7956 733.924C20.0627 733.924 21.1186 734.982 21.1186 736.252C21.1186 737.522 20.0627 738.58 18.7956 738.58C17.3174 738.58 16.4727 737.522 16.4727 736.252Z" fill="white"/>
<path d="M16.4727 719.956C16.4727 718.686 17.5286 717.628 18.7956 717.628C20.0627 717.628 21.1186 718.686 21.1186 719.956C21.1186 721.226 19.8515 722.072 18.5845 722.072C17.3174 722.072 16.4727 721.226 16.4727 719.956Z" fill="white"/>
<path d="M16.2617 703.66C16.2617 702.391 17.3176 701.332 18.5847 701.332C19.8518 701.332 20.9077 702.391 20.9077 703.66C20.9077 704.93 19.8518 705.988 18.5847 705.988C17.3176 705.777 16.2617 704.93 16.2617 703.66Z" fill="white"/>
<path d="M16.2617 687.155C16.2617 685.885 17.3176 684.827 18.5847 684.827C19.8518 684.827 20.9077 685.885 20.9077 687.155C20.9077 688.424 19.8518 689.482 18.5847 689.482C17.3176 689.482 16.2617 688.424 16.2617 687.155Z" fill="white"/>
<path d="M16.2617 670.86C16.2617 669.59 17.3176 668.532 18.5847 668.532C19.8518 668.532 20.9077 669.59 20.9077 670.86C20.9077 672.129 19.8518 673.188 18.5847 673.188C17.3176 673.188 16.2617 672.129 16.2617 670.86Z" fill="white"/>
<path d="M16.2617 654.563C16.2617 653.293 17.3176 652.235 18.5847 652.235C19.8518 652.235 20.9077 653.293 20.9077 654.563C20.9077 655.832 19.8518 656.891 18.5847 656.891C17.3176 656.679 16.2617 655.832 16.2617 654.563Z" fill="white"/>
<path d="M16.2617 638.057C16.2617 636.787 17.3176 635.729 18.5847 635.729C19.8518 635.729 20.9077 636.787 20.9077 638.057C20.9077 639.327 19.8518 640.385 18.5847 640.385C17.3176 640.385 16.2617 639.327 16.2617 638.057Z" fill="white"/>
<path d="M16.2617 621.762C16.2617 620.492 17.3176 619.434 18.5847 619.434C19.8518 619.434 20.9077 620.492 20.9077 621.762C20.9077 623.032 19.8518 624.09 18.5847 624.09C17.3176 624.09 16.2617 623.032 16.2617 621.762Z" fill="white"/>
<path d="M16.2617 605.466C16.2617 604.196 17.3176 603.138 18.5847 603.138C19.8518 603.138 20.9077 604.196 20.9077 605.466C20.9077 606.736 19.8518 607.582 18.5847 607.582C17.3176 607.582 16.2617 606.736 16.2617 605.466Z" fill="white"/>
<path d="M16.2617 588.959C16.2617 587.689 17.3176 586.631 18.5847 586.631C19.8518 586.631 20.9077 587.689 20.9077 588.959C20.9077 590.229 19.8518 591.287 18.5847 591.287C17.3176 591.287 16.2617 590.229 16.2617 588.959Z" fill="white"/>
<path d="M16.2617 572.664C16.2617 571.395 17.3176 570.336 18.5847 570.336C19.8518 570.336 20.9077 571.395 20.9077 572.664C20.9077 573.934 19.8518 574.992 18.5847 574.992C17.3176 574.992 16.2617 573.934 16.2617 572.664Z" fill="white"/>
<path d="M16.2617 556.369C16.2617 555.1 17.3176 554.041 18.5847 554.041C19.8518 554.041 20.9077 555.1 20.9077 556.369C20.9077 557.639 19.8518 558.697 18.5847 558.697C17.3176 558.697 16.2617 557.639 16.2617 556.369Z" fill="white"/>
<path d="M16.2617 540.072C16.2617 538.803 17.3176 537.745 18.5847 537.745C19.8518 537.745 20.9077 538.803 20.9077 540.072C20.9077 541.342 19.8518 542.4 18.5847 542.4C17.3176 542.189 16.2617 541.131 16.2617 540.072Z" fill="white"/>
<path d="M16.2617 523.567C16.2617 522.297 17.3176 521.239 18.5847 521.239C19.8518 521.239 20.9077 522.297 20.9077 523.567C20.9077 524.836 19.8518 525.895 18.5847 525.895C17.3176 525.895 16.2617 524.836 16.2617 523.567Z" fill="white"/>
<path d="M16.2617 507.272C16.2617 506.002 17.3176 504.944 18.5847 504.944C19.8518 504.944 20.9077 506.002 20.9077 507.272C20.9077 508.541 19.8518 509.6 18.5847 509.6C17.3176 509.6 16.2617 508.541 16.2617 507.272Z" fill="white"/>
<path d="M16.2617 490.975C16.2617 489.705 17.3176 488.647 18.5847 488.647C19.8518 488.647 20.9077 489.705 20.9077 490.975C20.9077 492.245 19.8518 493.303 18.5847 493.303C17.3176 493.091 16.2617 492.245 16.2617 490.975Z" fill="white"/>
<path d="M16.2617 474.469C16.2617 473.199 17.3176 472.141 18.5847 472.141C19.8518 472.141 20.9077 473.199 20.9077 474.469C20.9077 475.739 19.8518 476.797 18.5847 476.797C17.3176 476.797 16.2617 475.739 16.2617 474.469Z" fill="white"/>
<path d="M16.2617 458.172C16.2617 456.902 17.3176 455.844 18.5847 455.844C19.8518 455.844 20.9077 456.902 20.9077 458.172C20.9077 459.442 19.8518 460.5 18.5847 460.5C17.3176 460.5 16.2617 459.442 16.2617 458.172Z" fill="white"/>
<path d="M16.2617 441.877C16.2617 440.607 17.3176 439.549 18.5847 439.549C19.8518 439.549 20.9077 440.607 20.9077 441.877C20.9077 443.147 19.8518 444.205 18.5847 444.205C17.3176 443.993 16.2617 443.147 16.2617 441.877Z" fill="white"/>
<path d="M16.2617 425.371C16.2617 424.102 17.3176 423.043 18.5847 423.043C19.8518 423.043 20.9077 424.102 20.9077 425.371C20.9077 426.641 19.8518 427.699 18.5847 427.699C17.3176 427.699 16.2617 426.641 16.2617 425.371Z" fill="white"/>
<path d="M16.2617 409.074C16.2617 407.805 17.3176 406.747 18.5847 406.747C19.8518 406.747 20.9077 407.805 20.9077 409.074C20.9077 410.344 19.8518 411.402 18.5847 411.402C17.3176 411.402 16.2617 410.344 16.2617 409.074Z" fill="white"/>
<path d="M16.2617 392.78C16.2617 391.51 17.3176 390.452 18.5847 390.452C19.8518 390.452 20.9077 391.51 20.9077 392.78C20.9077 394.049 19.8518 395.107 18.5847 395.107C17.3176 395.107 16.2617 394.049 16.2617 392.78Z" fill="white"/>
<path d="M16.2617 376.274C16.2617 375.004 17.3176 373.946 18.5847 373.946C19.8518 373.946 20.9077 375.004 20.9077 376.274C20.9077 377.543 19.8518 378.602 18.5847 378.602C17.3176 378.602 16.2617 377.755 16.2617 376.274Z" fill="white"/>
<path d="M16.2617 359.979C16.2617 358.709 17.3176 357.651 18.5847 357.651C19.8518 357.651 20.9077 358.709 20.9077 359.979C20.9077 361.248 19.8518 362.307 18.5847 362.307C17.3176 362.307 16.2617 361.248 16.2617 359.979Z" fill="white"/>
<path d="M16.2617 343.682C16.2617 342.412 17.3176 341.354 18.5847 341.354C19.8518 341.354 20.9077 342.412 20.9077 343.682C20.9077 344.952 19.8518 346.01 18.5847 346.01C17.3176 346.01 16.2617 344.952 16.2617 343.682Z" fill="white"/>
<path d="M16.2617 327.387C16.2617 326.117 17.3176 325.059 18.5847 325.059C19.8518 325.059 20.9077 326.117 20.9077 327.387C20.9077 328.657 19.8518 329.715 18.5847 329.715C17.3176 329.503 16.2617 328.657 16.2617 327.387Z" fill="white"/>
<path d="M16.2617 310.881C16.2617 309.611 17.3176 308.553 18.5847 308.553C19.8518 308.553 20.9077 309.611 20.9077 310.881C20.9077 312.151 19.8518 313.209 18.5847 313.209C17.3176 313.209 16.2617 312.151 16.2617 310.881Z" fill="white"/>
<path d="M16.2617 294.586C16.2617 293.316 17.3176 292.258 18.5847 292.258C19.8518 292.258 20.9077 293.316 20.9077 294.586C20.9077 295.856 19.8518 296.914 18.5847 296.914C17.3176 296.914 16.2617 295.856 16.2617 294.586Z" fill="white"/>
<path d="M16.4727 278.29C16.4727 277.02 17.5286 275.962 18.7956 275.962C20.0627 275.962 21.1186 277.02 21.1186 278.29C21.1186 279.56 20.0627 280.406 18.7956 280.406C17.3174 280.406 16.4727 279.348 16.4727 278.29Z" fill="white"/>
<path d="M16.4727 261.782C16.4727 260.724 17.3174 259.666 18.5845 259.666C19.6404 259.666 20.6963 260.512 20.6963 261.782C20.6963 262.84 19.8515 263.898 18.5845 263.898C17.5286 263.898 16.4727 263.052 16.4727 261.782Z" fill="white"/>
<path d="M16.6836 245.488C16.6836 244.43 17.5283 243.583 18.5842 243.583C19.6401 243.583 20.4848 244.43 20.4848 245.488C20.4848 246.546 19.6401 247.393 18.5842 247.393C17.5283 247.393 16.6836 246.546 16.6836 245.488Z" fill="white"/>
<path d="M16.6836 229.193C16.6836 228.135 17.5283 227.288 18.5842 227.288C19.6401 227.288 20.4848 228.135 20.4848 229.193C20.4848 230.251 19.6401 231.098 18.5842 231.098C17.5283 231.098 16.6836 230.251 16.6836 229.193Z" fill="white"/>
<path d="M16.8945 212.686C16.8945 211.628 17.7393 210.993 18.584 210.993C19.4287 210.993 20.2734 211.84 20.2734 212.686C20.2734 213.533 19.4287 214.379 18.584 214.379C17.7393 214.591 16.8945 213.745 16.8945 212.686Z" fill="white"/>
<path d="M17.1055 196.39C17.1055 195.543 17.739 194.697 18.7949 194.697C19.6396 194.697 20.2732 195.332 20.2732 196.39C20.2732 197.237 19.6396 197.871 18.7949 197.871C17.739 198.083 17.1055 197.237 17.1055 196.39Z" fill="white"/>
<path d="M18.5837 178.613C19.4001 178.613 20.062 179.277 20.062 180.095C20.062 180.913 19.4001 181.576 18.5837 181.576C17.7673 181.576 17.1055 180.913 17.1055 180.095C17.1055 179.277 17.7673 178.613 18.5837 178.613Z" fill="white"/>
<path d="M17.3164 163.588C17.3164 162.953 17.9499 162.318 18.5835 162.318C19.217 162.318 19.8506 162.953 19.8506 163.588C19.8506 164.223 19.217 164.857 18.5835 164.857C17.9499 165.069 17.3164 164.434 17.3164 163.588Z" fill="white"/>
<path d="M17.3164 147.293C17.3164 146.658 17.9499 146.023 18.5835 146.023C19.217 146.023 19.8506 146.658 19.8506 147.293C19.8506 147.928 19.217 148.562 18.5835 148.562C17.9499 148.562 17.3164 147.928 17.3164 147.293Z" fill="white"/>
<path d="M18.5832 129.938C19.1664 129.938 19.6391 130.412 19.6391 130.997C19.6391 131.581 19.1664 132.055 18.5832 132.055C18.0001 132.055 17.5273 131.581 17.5273 130.997C17.5273 130.412 18.0001 129.938 18.5832 129.938Z" fill="white"/>
<path d="M17.7402 114.702C17.7402 114.279 18.1626 113.856 18.585 113.856C19.0073 113.856 19.4297 114.279 19.4297 114.702C19.4297 115.126 19.0073 115.549 18.585 115.549C18.1626 115.549 17.7402 115.126 17.7402 114.702Z" fill="white"/>
<path d="M17.7402 98.1945C17.7402 97.7712 18.1626 97.348 18.585 97.348C19.0073 97.348 19.4297 97.7712 19.4297 98.1945C19.4297 98.6177 19.0073 99.041 18.585 99.041C18.1626 99.041 17.7402 98.6177 17.7402 98.1945Z" fill="white"/>
<path d="M17.9492 81.9002C17.9492 81.477 18.1604 81.2654 18.5828 81.2654C19.0051 81.2654 19.2163 81.477 19.2163 81.9002C19.2163 82.3235 19.0051 82.5352 18.5828 82.5352C18.1604 82.5352 17.9492 82.3235 17.9492 81.9002Z" fill="white"/>
<path d="M17.9492 65.6034C17.9492 65.3918 18.1604 64.9685 18.5828 64.9685C18.7939 64.9685 19.2163 65.1802 19.2163 65.6034C19.2163 65.8151 19.0051 66.2383 18.5828 66.2383C18.3716 66.0267 17.9492 65.8151 17.9492 65.6034Z" fill="white"/>
<path d="M18.1621 49.0982C18.1621 48.8865 18.3733 48.6749 18.5845 48.6749C18.7956 48.6749 19.0068 48.8865 19.0068 49.0982C19.0068 49.3098 18.7956 49.5215 18.5845 49.5215C18.3733 49.5215 18.1621 49.3098 18.1621 49.0982Z" fill="white"/>
<path d="M18.373 32.802C18.373 32.5903 18.5842 32.5903 18.5842 32.5903L18.7954 32.802C18.7954 33.0136 18.5842 33.0137 18.5842 33.0137C18.5842 33.0137 18.373 33.0136 18.373 32.802Z" fill="white"/>
<path d="M18.373 16.5075C18.373 16.2958 18.5842 16.2958 18.373 16.5075C18.5842 16.2958 18.7954 16.5075 18.7954 16.5075C18.7954 16.5075 18.5842 16.7191 18.373 16.5075C18.5842 16.7191 18.373 16.5075 18.373 16.5075Z" fill="white"/>
<path d="M2.32298 864.92C3.60593 864.92 4.64596 865.963 4.64596 867.248C4.64596 868.534 3.60593 869.576 2.32298 869.576C1.04003 869.576 0 868.534 0 867.248C0 865.963 1.04003 864.92 2.32298 864.92Z" fill="white"/>
<path d="M0.421875 850.742C0.421875 849.684 1.2666 848.837 2.3225 848.837C3.3784 848.837 4.22312 849.684 4.22312 850.742C4.22312 851.8 3.3784 852.646 2.3225 852.646C1.2666 852.646 0.421875 851.8 0.421875 850.742Z" fill="white"/>
<path d="M0.421875 834.447C0.421875 833.389 1.2666 832.542 2.3225 832.542C3.3784 832.542 4.22312 833.389 4.22312 834.447C4.22312 835.505 3.3784 836.352 2.3225 836.352C1.2666 836.352 0.421875 835.505 0.421875 834.447Z" fill="white"/>
<path d="M0.421875 818.152C0.421875 817.094 1.2666 816.247 2.3225 816.247C3.3784 816.247 4.22312 817.094 4.22312 818.152C4.22312 819.21 3.3784 820.057 2.3225 820.057C1.2666 820.057 0.421875 819.21 0.421875 818.152Z" fill="white"/>
<path d="M0.421875 801.644C0.421875 800.586 1.2666 799.74 2.3225 799.74C3.3784 799.74 4.22312 800.586 4.22312 801.644C4.22312 802.702 3.3784 803.549 2.3225 803.549C1.2666 803.549 0.421875 802.702 0.421875 801.644Z" fill="white"/>
<path d="M0.421875 785.349C0.421875 784.291 1.2666 783.445 2.3225 783.445C3.3784 783.445 4.22312 784.291 4.22312 785.349C4.22312 786.407 3.3784 787.254 2.3225 787.254C1.2666 787.254 0.421875 786.407 0.421875 785.349Z" fill="white"/>
<path d="M0.421875 769.054C0.421875 767.996 1.2666 767.15 2.3225 767.15C3.3784 767.15 4.22312 767.996 4.22312 769.054C4.22312 770.112 3.3784 770.959 2.3225 770.959C1.2666 770.959 0.421875 770.112 0.421875 769.054Z" fill="white"/>
<path d="M0.421875 752.757C0.421875 751.699 1.2666 750.853 2.3225 750.853C3.3784 750.853 4.22312 751.699 4.22312 752.757C4.22312 753.816 3.3784 754.662 2.3225 754.662C1.2666 754.45 0.421875 753.604 0.421875 752.757Z" fill="white"/>
<path d="M0.421875 736.252C0.421875 735.193 1.2666 734.347 2.3225 734.347C3.3784 734.347 4.22312 735.193 4.22312 736.252C4.22312 737.31 3.3784 738.156 2.3225 738.156C1.2666 738.156 0.421875 737.31 0.421875 736.252Z" fill="white"/>
<path d="M0.421875 719.957C0.421875 718.899 1.2666 718.052 2.3225 718.052C3.3784 718.052 4.22312 718.899 4.22312 719.957C4.01194 721.015 3.16722 721.861 2.3225 721.861C1.2666 721.861 0.421875 721.015 0.421875 719.957Z" fill="white"/>
<path d="M0.421875 703.66C0.421875 702.602 1.2666 701.756 2.3225 701.756C3.3784 701.756 4.22312 702.602 4.22312 703.66C4.22312 704.719 3.3784 705.354 2.3225 705.354C1.2666 705.354 0.421875 704.507 0.421875 703.66Z" fill="white"/>
<path d="M0.421875 687.154C0.421875 686.096 1.2666 685.249 2.3225 685.249C3.3784 685.249 4.22312 686.096 4.22312 687.154C4.22312 688.212 3.3784 689.059 2.3225 689.059C1.2666 689.059 0.421875 688.212 0.421875 687.154Z" fill="white"/>
<path d="M0.421875 670.859C0.421875 669.801 1.2666 668.954 2.3225 668.954C3.3784 668.954 4.22312 669.801 4.22312 670.859C4.22312 671.917 3.3784 672.764 2.3225 672.764C1.2666 672.764 0.421875 671.917 0.421875 670.859Z" fill="white"/>
<path d="M0.421875 654.564C0.421875 653.506 1.2666 652.659 2.3225 652.659C3.3784 652.659 4.22312 653.506 4.22312 654.564C4.22312 655.622 3.3784 656.469 2.3225 656.469C1.2666 656.257 0.421875 655.411 0.421875 654.564Z" fill="white"/>
<path d="M0.421875 638.056C0.421875 636.998 1.2666 636.152 2.3225 636.152C3.3784 636.152 4.22312 636.998 4.22312 638.056C4.22312 639.114 3.3784 639.961 2.3225 639.961C1.2666 639.961 0.421875 639.114 0.421875 638.056Z" fill="white"/>
<path d="M2.32421 620.069C3.25726 620.069 4.01365 620.827 4.01365 621.762C4.01365 622.697 3.25726 623.455 2.32421 623.455C1.39115 623.455 0.634766 622.697 0.634766 621.762C0.634766 620.827 1.39115 620.069 2.32421 620.069Z" fill="white"/>
<path d="M2.32421 603.772C3.25726 603.772 4.01365 604.53 4.01365 605.465C4.01365 606.4 3.25726 607.158 2.32421 607.158C1.39115 607.158 0.634766 606.4 0.634766 605.465C0.634766 604.53 1.39115 603.772 2.32421 603.772Z" fill="white"/>
<path d="M2.32421 587.266C3.25726 587.266 4.01365 588.024 4.01365 588.959C4.01365 589.894 3.25726 590.652 2.32421 590.652C1.39115 590.652 0.634766 589.894 0.634766 588.959C0.634766 588.024 1.39115 587.266 2.32421 587.266Z" fill="white"/>
<path d="M2.32421 570.971C3.25726 570.971 4.01365 571.729 4.01365 572.664C4.01365 573.599 3.25726 574.357 2.32421 574.357C1.39115 574.357 0.634766 573.599 0.634766 572.664C0.634766 571.729 1.39115 570.971 2.32421 570.971Z" fill="white"/>
<path d="M0.634766 556.369C0.634766 555.311 1.47949 554.676 2.32421 554.676C3.16893 554.676 4.01365 555.523 4.01365 556.369C4.01365 557.216 3.16893 558.062 2.32421 558.062C1.47949 558.062 0.634766 557.216 0.634766 556.369Z" fill="white"/>
<path d="M0.634766 540.073C0.634766 539.015 1.47949 538.38 2.32421 538.38C3.16893 538.38 4.01365 539.226 4.01365 540.073C4.01365 540.919 3.16893 541.766 2.32421 541.766C1.47949 541.766 0.634766 540.919 0.634766 540.073Z" fill="white"/>
<path d="M0.634766 523.567C0.634766 522.509 1.47949 521.874 2.32421 521.874C3.16893 521.874 4.01365 522.72 4.01365 523.567C4.01365 524.413 3.16893 525.26 2.32421 525.26C1.47949 525.26 0.634766 524.625 0.634766 523.567Z" fill="white"/>
<path d="M0.634766 507.27C0.634766 506.212 1.47949 505.577 2.32421 505.577C3.16893 505.577 4.01365 506.423 4.01365 507.27C4.01365 508.116 3.16893 508.963 2.32421 508.963C1.47949 508.963 0.634766 508.116 0.634766 507.27Z" fill="white"/>
<path d="M2.32421 489.282C3.25726 489.282 4.01365 490.04 4.01365 490.975C4.01365 491.91 3.25726 492.668 2.32421 492.668C1.39115 492.668 0.634766 491.91 0.634766 490.975C0.634766 490.04 1.39115 489.282 2.32421 489.282Z" fill="white"/>
<path d="M2.32421 472.776C3.25726 472.776 4.01365 473.534 4.01365 474.469C4.01365 475.404 3.25726 476.162 2.32421 476.162C1.39115 476.162 0.634766 475.404 0.634766 474.469C0.634766 473.534 1.39115 472.776 2.32421 472.776Z" fill="white"/>
<path d="M0.634766 458.172C0.634766 457.326 1.47949 456.479 2.32421 456.479C3.16893 456.479 4.01365 457.326 4.01365 458.172C4.01365 459.019 3.16893 459.865 2.32421 459.865C1.47949 459.865 0.634766 459.019 0.634766 458.172Z" fill="white"/>
<path d="M0.634766 441.877C0.634766 441.031 1.47949 440.184 2.32421 440.184C3.16893 440.184 4.01365 441.031 4.01365 441.877C4.01365 442.724 3.16893 443.57 2.32421 443.57C1.47949 443.57 0.634766 442.724 0.634766 441.877Z" fill="white"/>
<path d="M2.32421 423.678C3.25726 423.678 4.01365 424.436 4.01365 425.371C4.01365 426.306 3.25726 427.064 2.32421 427.064C1.39115 427.064 0.634766 426.306 0.634766 425.371C0.634766 424.436 1.39115 423.678 2.32421 423.678Z" fill="white"/>
<path d="M2.32421 407.382C3.25726 407.382 4.01365 408.14 4.01365 409.075C4.01365 410.01 3.25726 410.768 2.32421 410.768C1.39115 410.768 0.634766 410.01 0.634766 409.075C0.634766 408.14 1.39115 407.382 2.32421 407.382Z" fill="white"/>
<path d="M0.634766 392.78C0.634766 391.933 1.26831 391.087 2.32421 391.087C3.38011 391.087 4.01365 391.721 4.01365 392.78C4.01365 393.626 3.38011 394.473 2.32421 394.473C1.26831 394.473 0.634766 393.626 0.634766 392.78Z" fill="white"/>
<path d="M0.634766 376.274C0.634766 375.427 1.26831 374.581 2.32421 374.581C3.38011 374.581 4.01365 375.216 4.01365 376.274C4.01365 377.12 3.38011 377.967 2.32421 377.967C1.26831 377.967 0.634766 377.332 0.634766 376.274Z" fill="white"/>
<path d="M2.32421 358.286C3.25726 358.286 4.01365 359.044 4.01365 359.979C4.01365 360.914 3.25726 361.672 2.32421 361.672C1.39115 361.672 0.634766 360.914 0.634766 359.979C0.634766 359.044 1.39115 358.286 2.32421 358.286Z" fill="white"/>
<path d="M2.32421 341.989C3.25726 341.989 4.01365 342.747 4.01365 343.682C4.01365 344.617 3.25726 345.375 2.32421 345.375C1.39115 345.375 0.634766 344.617 0.634766 343.682C0.634766 342.747 1.39115 341.989 2.32421 341.989Z" fill="white"/>
<path d="M0.634766 327.387C0.634766 326.541 1.26831 325.906 2.32421 325.906C3.16893 325.906 4.01365 326.541 4.01365 327.387C4.01365 328.234 3.38011 329.08 2.32421 329.08C1.47949 328.868 0.634766 328.234 0.634766 327.387Z" fill="white"/>
<path d="M0.634766 310.881C0.634766 310.035 1.26831 309.4 2.32421 309.4C3.16893 309.4 4.01365 310.035 4.01365 310.881C4.01365 311.728 3.38011 312.574 2.32421 312.574C1.47949 312.574 0.634766 311.728 0.634766 310.881Z" fill="white"/>
<path d="M0.634766 294.585C0.634766 293.739 1.26831 292.892 2.32421 292.892C3.16893 292.892 4.01365 293.527 4.01365 294.585C4.01365 295.432 3.38011 296.066 2.32421 296.066C1.47949 296.066 0.634766 295.432 0.634766 294.585Z" fill="white"/>
<path d="M0.634766 278.29C0.634766 277.444 1.26831 276.809 2.11303 276.809C2.95775 276.809 3.59129 277.444 3.59129 278.29C3.59129 279.137 2.95775 279.771 2.11303 279.771C1.47949 279.771 0.634766 279.137 0.634766 278.29Z" fill="white"/>
<path d="M2.32201 260.301C3.13843 260.301 3.80027 260.964 3.80027 261.782C3.80027 262.6 3.13843 263.264 2.32201 263.264C1.50559 263.264 0.84375 262.6 0.84375 261.782C0.84375 260.964 1.50559 260.301 2.32201 260.301Z" fill="white"/>
<path d="M2.32177 244.218C3.02156 244.218 3.58885 244.787 3.58885 245.488C3.58885 246.189 3.02156 246.758 2.32177 246.758C1.62198 246.758 1.05469 246.189 1.05469 245.488C1.05469 244.787 1.62198 244.218 2.32177 244.218Z" fill="white"/>
<path d="M1.05469 229.193C1.05469 228.558 1.68823 227.923 2.32177 227.923C2.95531 227.923 3.58885 228.558 3.58885 229.193C3.58885 229.828 2.95531 230.463 2.32177 230.463C1.47705 230.463 1.05469 229.828 1.05469 229.193Z" fill="white"/>
<path d="M1.05469 212.685C1.05469 212.05 1.47705 211.416 2.32177 211.416C3.16649 211.416 3.58885 211.839 3.58885 212.685C3.58885 213.532 2.95531 213.955 2.32177 213.955C1.68823 213.955 1.05469 213.32 1.05469 212.685Z" fill="white"/>
<path d="M1.26758 196.391C1.26758 195.756 1.68994 195.333 2.32348 195.333C2.95702 195.333 3.37938 195.756 3.37938 196.391C3.37938 197.026 2.95702 197.449 2.32348 197.449C1.68994 197.449 1.26758 197.026 1.26758 196.391Z" fill="white"/>
<path d="M1.26758 180.094C1.26758 179.459 1.68994 179.036 2.32348 179.036C2.95702 179.036 3.37938 179.459 3.37938 180.094C3.37938 180.729 2.95702 181.152 2.32348 181.152C1.68994 180.941 1.26758 180.517 1.26758 180.094Z" fill="white"/>
<path d="M1.26758 163.587C1.26758 163.164 1.68994 162.741 2.1123 162.741C2.53466 162.741 2.95702 163.164 2.95702 163.587C2.95702 164.01 2.53466 164.434 2.1123 164.434C1.68994 164.434 1.26758 164.222 1.26758 163.587Z" fill="white"/>
<path d="M2.32324 146.446C2.78976 146.446 3.16796 146.825 3.16796 147.292C3.16796 147.76 2.78976 148.139 2.32324 148.139C1.85671 148.139 1.47852 147.76 1.47852 147.292C1.47852 146.825 1.85671 146.446 2.32324 146.446Z" fill="white"/>
<path d="M2.32299 130.363C2.67289 130.363 2.95653 130.647 2.95653 130.998C2.95653 131.349 2.67289 131.633 2.32299 131.633C1.9731 131.633 1.68945 131.349 1.68945 130.998C1.68945 130.647 1.9731 130.363 2.32299 130.363Z" fill="white"/>
<path d="M2.32299 114.066C2.67289 114.066 2.95653 114.351 2.95653 114.701C2.95653 115.052 2.67289 115.336 2.32299 115.336C1.9731 115.336 1.68945 115.052 1.68945 114.701C1.68945 114.351 1.9731 114.066 2.32299 114.066Z" fill="white"/>
<path d="M1.68945 98.1951C1.68945 97.9835 1.90063 97.5602 2.32299 97.5602C2.74535 97.5602 2.95653 97.7719 2.95653 98.1951C2.95653 98.4068 2.74535 98.8301 2.32299 98.8301C1.90063 98.8301 1.68945 98.6184 1.68945 98.1951Z" fill="white"/>
<path d="M1.90039 81.899C1.90039 81.6873 2.11157 81.4758 2.32275 81.4758C2.53393 81.4758 2.74511 81.6873 2.74511 81.899C2.74511 82.1106 2.53393 82.3223 2.32275 82.3223C2.11157 82.3223 1.90039 82.1106 1.90039 81.899Z" fill="white"/>
<path d="M1.90039 65.6048C1.90039 65.3932 2.11157 65.1815 2.32275 65.1815C2.53393 65.1815 2.74511 65.3932 2.74511 65.6048C2.53393 65.8164 2.53393 65.8164 2.32275 65.8164C2.11157 65.8164 1.90039 65.8164 1.90039 65.6048Z" fill="white"/>
<path d="M1.90039 49.0972C1.90039 48.8856 2.11157 48.8856 2.11157 48.8856C2.32275 48.8856 2.32275 49.0972 2.32275 49.0972L2.11157 49.3088C2.11157 49.5205 1.90039 49.3088 1.90039 49.0972Z" fill="white"/>
<path d="M2.11133 32.8024C2.11133 32.8024 2.11133 32.5908 2.11133 32.8024C2.32251 32.5908 2.53369 32.8024 2.53369 32.8024C2.53369 32.8024 2.32251 33.0141 2.11133 32.8024C2.11133 33.0141 2.11133 32.8024 2.11133 32.8024Z" fill="white"/>
<path d="M2.11133 16.5059L2.32251 16.2943V16.5059H2.11133Z" fill="white"/>
</g>
<defs>
<clipPath id="clip0">
<rect width="102" height="870" fill="white" transform="matrix(1 0 0 -1 0 870)"/>
</clipPath>
</defs>
</svg>
